<svg width="36" height="36" viewBox="0 0 36 36" fill="none" xmlns="http://www.w3.org/2000/svg">
<path d="M34.9967 17.7884L34.9906 17.8434V17.8988C34.9906 18.4555 34.517 18.9052 33.9904 18.9052H31.9902H30.9858L30.9902 19.9096L31.034 29.9186C31.034 29.9193 31.034 29.9199 31.034 29.9206C31.0339 30.0404 31.0249 30.1696 31.0088 30.3144L31.0027 30.3695V30.4249V31.4312C31.0027 32.2603 30.3316 32.9314 29.5025 32.9314H28.5024C28.4262 32.9314 28.4028 32.9308 28.3867 32.9293L28.3059 32.9219L28.2249 32.9277C28.1789 32.931 28.127 32.9314 28.0336 32.9314H26.0022H24.5021C23.673 32.9314 23.0019 32.2603 23.0019 31.4312V29.9311V25.9308C23.0019 24.2721 21.6603 22.9306 20.0017 22.9306H16.0014C14.3427 22.9306 13.0012 24.2721 13.0012 25.9308V29.9311V31.4312C13.0012 32.2603 12.3301 32.9314 11.501 32.9314H10.0009H8.00693C7.95204 32.9314 7.89154 32.9278 7.79219 32.9211L7.71735 32.9162L7.64259 32.9224C7.56056 32.9292 7.52707 32.9314 7.50064 32.9314H6.50055C5.67147 32.9314 5.00034 32.2603 5.00034 31.4312V24.4306C5.00034 24.4005 5.0004 24.3838 5.00078 24.3694C5.00089 24.3652 5.00101 24.3622 5.00109 24.3605L5.00659 24.311V24.2556V19.9052V18.9052H4.00659H2.00017C1.42941 18.9052 1 18.4799 1 17.8988C1 17.6006 1.08389 17.3633 1.31107 17.1273L17.3085 3.18257L17.3343 3.16007L17.3585 3.13586C17.4514 3.04299 17.538 2.99899 17.6263 2.97248C17.7267 2.94236 17.8506 2.92871 18.0265 2.92871C18.2955 2.92871 18.5424 3.00836 18.6913 3.12818L34.6428 17.1498L34.6445 17.1513C34.9798 17.4447 35.0125 17.6456 34.9967 17.7884Z" stroke="#E12568" stroke-width="2"/>
</svg>
