<svg width="80" height="80" viewBox="0 0 80 80" fill="none" xmlns="http://www.w3.org/2000/svg">
<path d="M67.9198 46.7772C68.4863 44.4925 68.7952 42.1298 68.7952 39.6633C68.7952 23.8258 56.0757 11 40.3694 11C24.6631 11 11.9436 23.8258 11.9436 39.6633C11.9436 42.3635 12.3298 44.9598 12.9993 47.4523C9.49756 48.7504 7 52.1256 7 56.098C7 61.1868 11.0939 65.3149 16.1405 65.3149C16.9645 65.3149 17.7627 65.1851 18.5094 65.0034C19.4105 69.1315 23.0668 72.2211 27.4182 72.2211C29.9157 72.2211 32.1558 71.2085 33.8037 69.5729C35.4773 71.6759 38.0264 73 40.9101 73C44.1029 73 46.9352 71.3384 48.5573 68.8199C50.0764 69.9363 51.9303 70.5854 53.9386 70.5854C57.9553 70.5854 61.3798 67.9632 62.59 64.3023C63.1822 64.4322 63.8001 64.4841 64.4181 64.4841C69.4647 64.4841 73.5586 60.356 73.5586 55.2672C73.5844 51.4506 71.2413 48.1533 67.9198 46.7772Z" stroke="#848181" stroke-width="2" stroke-linecap="round" stroke-linejoin="round" stroke-dasharray="4 4"/>
<path d="M39.7338 30.768C40.8858 30.768 41.9204 30.9173 42.8378 31.216C43.7551 31.4933 44.5338 31.8987 45.1738 32.432C45.8138 32.944 46.3044 33.5627 46.6458 34.288C46.9871 35.0133 47.1578 35.8133 47.1578 36.688V37.04C47.1578 37.552 47.0938 38.0427 46.9658 38.512C46.8591 38.96 46.6564 39.4187 46.3578 39.888C46.0804 40.3573 45.6858 40.8587 45.1738 41.392C44.6831 41.9253 44.0644 42.5333 43.3178 43.216C42.8484 43.6427 42.4751 44.016 42.1978 44.336C41.9204 44.6347 41.7071 44.9227 41.5578 45.2C41.4084 45.456 41.3124 45.7227 41.2698 46C41.2271 46.256 41.2058 46.5547 41.2058 46.896C41.2058 47.3867 41.0138 47.7707 40.6298 48.048C40.2671 48.3253 39.8404 48.464 39.3498 48.464C38.8164 48.464 38.3578 48.336 37.9738 48.08C37.5898 47.8027 37.3978 47.376 37.3978 46.8C37.3978 46.2453 37.4298 45.744 37.4938 45.296C37.5578 44.848 37.6751 44.4213 37.8458 44.016C38.0378 43.5893 38.3044 43.1733 38.6458 42.768C39.0084 42.3413 39.4778 41.872 40.0538 41.36C40.7151 40.784 41.2378 40.304 41.6218 39.92C42.0271 39.5147 42.3364 39.152 42.5498 38.832C42.7631 38.512 42.9018 38.224 42.9658 37.968C43.0298 37.6907 43.0618 37.392 43.0618 37.072V36.912C43.0618 36.5707 42.9978 36.2507 42.8698 35.952C42.7418 35.6533 42.5391 35.3867 42.2618 35.152C42.0058 34.9173 41.6538 34.736 41.2058 34.608C40.7791 34.4587 40.2458 34.384 39.6058 34.384C38.7524 34.384 38.0058 34.512 37.3658 34.768C36.7258 35.024 36.1178 35.3547 35.5418 35.76C35.1151 36.0587 34.6884 36.1653 34.2618 36.08C33.8564 35.9733 33.5044 35.7173 33.2057 35.312C32.9071 34.928 32.7578 34.5013 32.7578 34.032C32.7791 33.5413 33.0031 33.136 33.4298 32.816C34.2191 32.1973 35.1258 31.7067 36.1498 31.344C37.1951 30.96 38.3898 30.768 39.7338 30.768ZM39.3177 50.608C40.0004 50.608 40.5764 50.8427 41.0458 51.312C41.5151 51.7813 41.7498 52.3573 41.7498 53.04C41.7498 53.7227 41.5151 54.2987 41.0458 54.768C40.5764 55.2373 40.0004 55.472 39.3177 55.472C38.6351 55.472 38.0591 55.2373 37.5898 54.768C37.1204 54.2987 36.8858 53.7227 36.8858 53.04C36.8858 52.3573 37.1204 51.7813 37.5898 51.312C38.0591 50.8427 38.6351 50.608 39.3177 50.608Z" fill="#848181"/>
</svg>
