<?xml version="1.0" encoding="utf-8"?>
<!-- Generator: Adobe Illustrator 16.0.0, SVG Export Plug-In . SVG Version: 6.00 Build 0)  -->
<!DOCTYPE svg PUBLIC "-//W3C//DTD SVG 1.1//EN" "http://www.w3.org/Graphics/SVG/1.1/DTD/svg11.dtd">
<svg version="1.1" id="Layer_1" xmlns="http://www.w3.org/2000/svg" xmlns:xlink="http://www.w3.org/1999/xlink" x="0px" y="0px"
	 width="56px" height="56px" viewBox="0 0 56 56" enable-background="new 0 0 56 56" xml:space="preserve">
<path fill="#848181" d="M55.67,28.923c-0.881,1.85-2.383,3.227-3.645,4.781c-2.119,2.608-4.313,5.153-6.443,7.753
	c-1.977,2.41-4.535,3.563-7.602,3.584c-4.697,0.031-9.395,0.049-14.092-0.014c-1.619-0.021-2.616,0.888-3.6,1.928
	c-0.074,0.078-0.071,0.269-0.047,0.396c0.246,1.279-0.092,2.359-1.028,3.274c-1.65,1.61-3.281,3.243-4.923,4.862
	c-0.694,0.684-1.234,0.684-1.916-0.004c-3.962-4.001-7.922-8.004-11.88-12.008c-0.655-0.662-0.66-1.229-0.013-1.882
	c1.635-1.653,3.278-3.298,4.915-4.948c0.744-0.752,1.629-1.115,2.693-1.072c0.167,0.006,0.42-0.125,0.501-0.268
	c3.615-6.357,11.514-7.921,17.194-5.731c0.279,0.107,0.598,0.151,0.898,0.152c3.717,0.011,7.436,0.024,11.154-0.001
	c1.515-0.011,2.821,0.402,4.015,1.797c0.094-0.209,0.131-0.415,0.25-0.54c2.016-2.095,4.043-4.176,6.063-6.265
	c2.428-2.513,6.096-1.793,7.412,1.457c0.02,0.048,0.063,0.086,0.094,0.128C55.67,27.177,55.67,28.05,55.67,28.923z M18.895,45.224
	c0.104-0.095,0.247-0.206,0.368-0.339c1.346-1.478,3.005-2.066,5.005-2.039c4.532,0.064,9.066,0.032,13.6,0.016
	c2.454-0.008,4.511-0.889,6.077-2.849c1.146-1.433,2.345-2.821,3.521-4.229c1.873-2.245,3.752-4.484,5.615-6.738
	c0.808-0.978,0.715-2.287-0.179-3.088c-0.864-0.774-2.166-0.747-3.001,0.107c-2.348,2.403-4.682,4.82-7.012,7.24
	c-0.111,0.114-0.209,0.314-0.197,0.465c0.183,2.331-1.607,4.791-4.735,4.732c-2.701-0.051-5.403-0.01-8.105-0.011
	c-0.981-0.001-1.501-0.386-1.499-1.104c0.002-0.721,0.506-1.088,1.506-1.089c2.701-0.001,5.403,0.001,8.105-0.003
	c0.271,0,0.547-0.008,0.812-0.057c1.126-0.207,1.902-1.346,1.7-2.473c-0.211-1.181-1.074-1.844-2.442-1.846
	c-3.899-0.006-7.798,0.002-11.696-0.01c-0.354-0.002-0.731-0.052-1.058-0.182c-3.094-1.229-6.204-1.193-9.291-0.045
	c-2.508,0.933-4.381,2.641-5.628,4.965C13.219,39.521,16.045,42.361,18.895,45.224z M13.595,53.381
	c1.311-1.385,2.678-2.84,4.059-4.282c0.669-0.7,0.686-1.235,0-1.923c-2.961-2.973-5.925-5.943-8.89-8.913
	c-0.683-0.684-1.214-0.677-1.908,0.02c-1.309,1.312-2.614,2.626-3.919,3.94C2.84,42.32,2.754,42.43,2.611,42.592
	C6.224,46.141,9.811,49.664,13.595,53.381z"/>
<path fill="#848181" d="M33.575,0c0.672,0.139,1.354,0.242,2.015,0.421c5.544,1.502,9.137,6.532,8.863,12.389
	c-0.25,5.396-4.461,10.099-9.908,11.068c-6.686,1.189-13.084-3.542-13.941-10.309C19.763,6.925,24.407,0.927,31.033,0.095
	C31.157,0.08,31.277,0.032,31.398,0C32.124,0,32.85,0,33.575,0z M32.504,21.855c5.434-0.011,9.803-4.42,9.787-9.875
	c-0.017-5.412-4.416-9.798-9.822-9.793c-5.417,0.006-9.802,4.434-9.786,9.883C22.7,17.486,27.096,21.866,32.504,21.855z"/>
<path fill="#848181" d="M24.863,36.121c0.6-0.012,1.078,0.436,1.102,1.03c0.024,0.616-0.447,1.13-1.053,1.146
	c-0.59,0.015-1.116-0.502-1.115-1.098C23.798,36.619,24.278,36.133,24.863,36.121z"/>
<path fill="#848181" d="M33.357,6.616c0.555,0.387,1.07,0.693,1.523,1.075c0.521,0.439,0.551,1.077,0.146,1.548
	c-0.397,0.463-1.021,0.493-1.561,0.097c-0.261-0.191-0.53-0.381-0.823-0.512c-0.426-0.19-0.824-0.062-1.143,0.261
	c-0.306,0.309-0.403,0.686-0.252,1.104c0.156,0.433,0.468,0.673,0.928,0.731c0.357,0.045,0.726,0.07,1.068,0.173
	c1.25,0.377,2.157,1.502,2.281,2.783c0.129,1.323-0.531,2.609-1.719,3.211c-0.372,0.188-0.498,0.398-0.454,0.79
	c0.03,0.269,0.022,0.547-0.006,0.817c-0.063,0.59-0.53,0.984-1.116,0.967c-0.555-0.017-1.085-0.432-1.021-0.988
	c0.112-0.975-0.202-1.571-1.11-1.961c-0.373-0.161-0.67-0.551-0.94-0.888c-0.362-0.452-0.286-1.047,0.118-1.431
	c0.424-0.401,1.014-0.407,1.479-0.011c0.289,0.247,0.551,0.535,0.869,0.732c0.432,0.267,0.906,0.278,1.32-0.061
	c0.371-0.303,0.509-0.707,0.353-1.172c-0.171-0.509-0.56-0.728-1.076-0.772c-1.705-0.15-2.833-1.099-3.159-2.647
	c-0.304-1.445,0.394-2.795,1.836-3.607c0.135-0.076,0.248-0.283,0.27-0.443c0.044-0.303,0.004-0.617,0.018-0.926
	c0.027-0.65,0.502-1.123,1.101-1.112c0.583,0.01,1.04,0.465,1.067,1.091C33.371,5.881,33.357,6.299,33.357,6.616z"/>
</svg>
