<svg width="56" height="56" viewBox="0 0 56 56" fill="none" xmlns="http://www.w3.org/2000/svg">
<path fill-rule="evenodd" clip-rule="evenodd" d="M45.2044 13.1812C45.9332 12.3124 46.188 11.3192 45.8446 10.2263C45.4497 8.96893 44.5647 8.22086 43.2673 8.04467C41.9384 7.86427 40.8124 8.2864 40.0664 9.44762C38.9943 11.1163 37.9575 12.8076 36.9046 14.4886C36.8278 14.6113 36.7423 14.7285 36.6361 14.8844C36.5379 14.6564 36.4689 14.4905 36.3957 14.3264C34.4585 9.9874 29.8288 7.37525 25.1633 8.12899C20.8049 8.83318 17.9064 11.355 16.4651 15.5402C16.4036 15.719 16.2838 15.9267 16.1301 16.0175C12.8899 17.9336 11.076 20.7629 10.6984 24.5006C10.5737 25.7341 10.6758 26.8621 11.0338 28.0883C11.0355 28.0878 11.0643 28.1813 11.0661 28.1809C11.156 28.442 11.3957 28.6293 11.6782 28.6293C12.0374 28.6293 12.3287 28.3268 12.3287 27.9539C12.3287 27.8794 12.3166 27.8078 12.2952 27.7407C11.1524 22.9639 13.5756 18.9656 16.7952 17.1792C20.1769 15.3027 24.1341 15.8978 26.3477 17.5303C21.591 20.0352 19.4853 23.9455 20.1297 29.3386C19.9645 29.3386 19.8132 29.3386 19.6619 29.3386C17.1075 29.3388 14.5532 29.3322 11.9989 29.3421C10.9322 29.3462 10.0705 30.1645 10.0043 31.1959C9.93709 32.2434 10.6652 33.147 11.7162 33.3191C11.8359 33.3386 11.9569 33.3511 12.0862 33.3679C12.281 34.7907 12.4731 36.1921 12.6648 37.5934C13.0986 40.7677 13.5283 43.9425 13.9684 47.116C14.0753 47.8869 14.2225 47.9991 14.9874 47.9991C22.3312 47.9992 29.675 47.9991 37.0187 47.9991C37.102 47.9991 37.1854 48.0017 37.2686 47.998C37.6993 47.9786 37.9317 47.7785 37.991 47.3466C38.4372 44.1041 38.8792 40.8609 39.3223 37.6179C39.5155 36.2042 39.7083 34.7904 39.9042 33.3547C40.8764 33.2932 41.5623 32.874 41.8696 31.9954C42.1769 31.117 41.9155 30.3658 41.2193 29.7489C41.1375 29.6765 41.114 29.4814 41.1365 29.3563C41.5434 27.1038 41.3013 24.9276 40.3171 22.86C39.9445 22.0774 39.4563 21.3499 39.0016 20.5642C39.0534 20.5 39.1379 20.3917 39.2263 20.2865C41.2192 17.9184 43.215 15.5524 45.2044 13.1812ZM18.1315 15.157C18.1209 15.16 18.1068 15.1504 18.0472 15.1324C18.1083 14.9851 18.163 14.8369 18.2301 14.6945C19.8605 11.2275 23.4612 9.10302 27.2691 9.35963C31.1063 9.61814 34.3951 12.2017 35.5631 15.8587C35.6819 16.2305 35.6971 16.5428 35.431 16.8597C35.2554 17.0689 35.1325 17.3224 34.9714 17.5793C32.747 16.6448 30.5083 16.43 28.2012 16.9556C28.0866 16.9817 27.9218 16.9498 27.8276 16.8807C24.8768 14.7142 21.6439 14.1553 18.1315 15.157ZM12.2633 32.0043C12.1523 32.0043 12.039 32.0148 11.9309 31.9962C11.5721 31.9346 11.3601 31.7207 11.3386 31.3528C11.3184 31.0078 11.5796 30.7234 11.9419 30.6782C12.0377 30.6663 12.1359 30.6719 12.233 30.6719C17.3518 30.6716 22.4707 30.6716 27.5896 30.6716C27.7106 30.6716 27.8318 30.6716 27.9731 30.6716C27.9731 31.1215 27.9731 31.5323 27.9731 32.0046C27.8086 32.0046 27.6727 32.0046 27.5367 32.0046C22.4456 32.0046 17.3545 32.0046 12.2633 32.0043ZM36.7441 46.6492C29.5703 46.6492 22.4267 46.6492 15.2449 46.6492C14.6409 42.2218 14.0379 37.8023 13.4288 33.3374C13.6014 33.3374 13.7511 33.3374 13.9009 33.3374C18.6336 33.3374 23.3664 33.3342 28.099 33.3475C28.3215 33.3482 28.5727 33.4536 28.7607 33.5828C29.4084 34.028 30.0872 34.1461 30.8064 33.8211C31.5228 33.4974 31.9107 32.9168 31.9833 32.1351C32.005 31.901 31.9872 31.6635 31.9937 31.4277C32.006 30.967 32.2599 30.6792 32.6522 30.6749C33.0444 30.6706 33.3159 30.9599 33.3232 31.4148C33.3321 31.9698 33.3523 32.5267 33.3203 33.0799C33.2421 34.4311 34.2034 35.2587 35.1754 35.3308C36.3036 35.4143 37.1563 34.6435 37.3438 33.3567C37.7609 33.3567 38.1457 33.3567 38.5574 33.3567C37.9513 37.7982 37.3486 42.2172 36.7441 46.6492ZM40.65 31.3752C40.6422 31.7209 40.3739 31.9916 39.9974 31.9978C39.1271 32.0122 38.2565 32.0023 37.3404 32.0023C37.3404 31.5461 37.3404 31.1361 37.3404 30.6846C38.2711 30.6846 39.1932 30.6579 40.1125 30.698C40.4648 30.7135 40.6583 31.0075 40.65 31.3752ZM39.749 29.3388C38.779 29.3388 37.8229 29.3372 36.8668 29.3393C36.2122 29.3406 35.9933 29.5588 35.9919 30.2121C35.9898 31.1976 35.9938 32.1832 35.9902 33.1688C35.9884 33.6852 35.7292 34.0007 35.3202 33.9999C34.9079 33.9992 34.6618 33.6921 34.6591 33.1651C34.6561 32.5821 34.6645 31.999 34.6568 31.4161C34.6415 30.2511 33.7604 29.3403 32.6564 29.3398C31.5356 29.3391 30.6727 30.232 30.6598 31.4065C30.6575 31.6146 30.6711 31.8241 30.6524 32.0308C30.618 32.4139 30.3142 32.6841 29.96 32.667C29.6162 32.6504 29.3443 32.3878 29.3333 32.0118C29.3163 31.4292 29.328 30.8459 29.3265 30.2629C29.3249 29.5487 29.1206 29.3394 28.4178 29.3392C26.294 29.3382 24.1701 29.3389 22.0463 29.3389C21.8945 29.3389 21.7425 29.3389 21.5973 29.3389C20.881 26.8876 21.4828 22.8294 24.725 20.1416C27.785 17.605 32.259 17.3107 35.6076 19.4271C39.2129 21.7054 40.5733 25.918 39.749 29.3388ZM38.391 19.208C38.2771 19.3431 38.1581 19.4742 38.0519 19.5954C37.4206 19.1132 36.8165 18.6519 36.1925 18.1754C36.2428 18.0852 36.2982 17.9756 36.3629 17.8717C37.9346 15.3549 39.5058 12.8378 41.0808 10.3229C41.5769 9.53071 42.286 9.21033 43.1653 9.36574C44.5447 9.60925 45.1156 11.182 44.2045 12.2949C43.141 13.5938 42.0458 14.8669 40.9647 16.1512C40.1068 17.1702 39.2495 18.1894 38.391 19.208Z" fill="#848181"/>
<path fill-rule="evenodd" clip-rule="evenodd" d="M19.0874 44.4007C19.0852 44.3863 19.082 44.3724 19.0787 44.3587C19.0796 44.3586 19.0805 44.3584 19.0814 44.3583C18.8334 42.5327 18.5916 40.7526 18.3467 38.9509C18.3465 38.9509 18.3464 38.9509 18.3462 38.951C18.3455 38.9343 18.3444 38.9175 18.342 38.9006C18.2976 38.5934 17.9658 38.3724 17.601 38.4069C17.2361 38.4414 16.9762 38.7185 17.0205 39.0254C17.0225 39.0387 17.0257 39.0517 17.0287 39.0647C17.0274 39.0647 17.0263 39.0649 17.0251 39.0651C17.2735 40.897 17.5161 42.687 17.7616 44.4973C17.7623 44.4972 17.7628 44.4971 17.7635 44.497C17.7643 44.5065 17.7645 44.5159 17.7658 44.5252C17.8102 44.8326 18.142 45.0536 18.5068 45.0192C18.8718 44.9847 19.1317 44.7077 19.0874 44.4007Z" fill="#848181"/>
<path fill-rule="evenodd" clip-rule="evenodd" d="M36.4132 20.2334C36.6075 20.3777 36.7347 20.4589 36.8462 20.5576C37.2605 20.9248 37.6635 21.305 38.0831 21.6661C38.4073 21.9456 38.4897 22.2471 38.2876 22.5319C38.0876 22.8137 37.7294 22.8713 37.4105 22.6075C36.8995 22.1842 36.3967 21.7445 35.9445 21.2613C35.8192 21.1273 35.8057 20.78 35.8867 20.594C35.9595 20.4275 36.2327 20.3485 36.4132 20.2334Z" fill="#848181"/>
</svg>
