<svg width="48" height="48" viewBox="0 0 48 48" fill="none" xmlns="http://www.w3.org/2000/svg">
<path fill-rule="evenodd" clip-rule="evenodd" d="M12.5937 4C13.1145 4 13.6354 4 14.1561 4C14.4488 4.05087 14.7413 4.10185 15.034 4.15272C19.8422 4.98858 23.3385 9.51973 22.6128 14.5905C22.4793 15.5231 22.5973 16.139 23.3235 16.7189C23.8641 17.1506 24.3113 17.6994 24.7679 18.1632C26.9284 16.0026 29.041 13.8899 31.1984 11.7323C30.9981 11.545 30.7652 11.3404 30.5473 11.1209C29.8062 10.3744 29.9026 9.57119 30.8056 9.03091C33.6134 7.35107 36.4245 5.67661 39.2343 4C39.4165 4 39.5988 4 39.7812 4C40.0938 4.24099 40.4327 4.45504 40.7143 4.72816C41.589 5.57652 42.4502 6.43904 43.2984 7.31397C43.5624 7.5864 43.7678 7.91567 44 8.21887C44 8.40118 44 8.58348 44 8.76579C43.9216 8.91207 43.8491 9.06186 43.7639 9.20403C42.1468 11.9021 40.5331 14.6023 38.907 17.2949C38.4396 18.0692 37.6161 18.162 36.9637 17.5348C36.7129 17.2937 36.4841 17.0294 36.2129 16.7414C34.0376 18.8991 31.9094 21.0101 29.762 23.1401C30.585 23.9613 31.3347 24.7189 32.1008 25.4597C32.1798 25.5361 32.3596 25.5448 32.4858 25.5292C33.0136 25.4635 33.5363 25.3457 34.0653 25.3029C38.1206 24.9746 42.1427 27.6055 43.4424 31.4644C43.7013 32.233 43.8179 33.0494 44 33.8439C44 34.3647 44 34.8855 44 35.4063C43.9754 35.5064 43.9399 35.6053 43.9277 35.707C43.7973 36.8022 43.4852 37.8413 42.9922 38.8286C42.4841 39.8458 41.6491 39.9869 40.8399 39.1793C39.4943 37.8366 38.1516 36.4909 36.8059 35.1481C36.6865 35.0289 36.5664 34.904 36.426 34.8135C36.0326 34.5598 35.6173 34.54 35.2075 34.773C34.8127 34.9975 34.6207 35.3479 34.6195 35.803C34.6184 36.1991 34.8267 36.4863 35.0926 36.7516C36.4844 38.1403 37.877 39.5281 39.261 40.9245C39.9546 41.6242 39.8128 42.5098 38.93 42.9345C38.4163 43.1815 37.8875 43.4139 37.3425 43.5748C36.7102 43.7613 36.0527 43.8621 35.4061 44.0001C34.8854 44.0001 34.3645 44.0001 33.8437 44.0001C33.7568 43.9776 33.6711 43.9431 33.5829 43.9343C32.4036 43.8172 31.2913 43.4768 30.2493 42.9164C26.4703 40.8838 24.5723 36.6991 25.5194 32.5161C25.5476 32.3916 25.5459 32.2213 25.4814 32.1225C25.3143 31.8666 25.1044 31.6388 24.8657 31.3431C24.6607 31.5892 24.5695 31.7178 24.4595 31.8278C21.037 35.2525 17.6094 38.6723 14.1907 42.1009C13.2946 42.9994 12.2611 43.6314 11.007 43.88C10.8317 43.9148 10.6585 43.9599 10.4843 44.0001C10.0675 44.0001 9.65097 44.0001 9.23431 44.0001C9.17611 43.9767 9.11986 43.941 9.05942 43.9315C6.95179 43.6006 5.43034 42.469 4.53872 40.5396C4.28201 39.984 4.17538 39.359 4 38.7658C4 38.3491 4 37.9325 4 37.5158C4.01982 37.468 4.05156 37.4216 4.05781 37.3721C4.24324 35.8982 4.97316 34.7254 6.01105 33.694C9.4172 30.3089 12.8057 26.9059 16.205 23.5141C16.3127 23.4067 16.4658 23.3449 16.6574 23.2243C16.3848 22.9793 16.2105 22.8574 16.0814 22.6987C15.8814 22.4531 15.6704 22.4221 15.3657 22.4958C14.9261 22.6023 14.4697 22.6524 14.0175 22.692C9.92438 23.051 5.87708 20.4315 4.55981 16.5376C4.29968 15.7687 4.18289 14.9514 4.0001 14.1565C4.0001 13.6357 4.0001 13.1149 4.0001 12.5941C4.02353 12.5072 4.05859 12.4216 4.06874 12.3333C4.19715 11.2245 4.50953 10.172 5.00938 9.17298C5.51862 8.1554 6.3538 8.01361 7.16251 8.82096C8.49873 10.1547 9.83162 11.4917 11.1674 12.826C11.2869 12.9452 11.4062 13.0696 11.5441 13.1645C11.9438 13.44 12.3692 13.4674 12.7939 13.2271C13.2048 12.9947 13.4474 12.6186 13.3605 12.1617C13.2994 11.8403 13.1257 11.4929 12.8979 11.2585C11.528 9.8487 10.1234 8.47246 8.73933 7.0761C8.04584 6.37645 8.18821 5.48483 9.0728 5.06602C9.62275 4.80559 10.1916 4.57046 10.7736 4.39606C11.3664 4.21775 11.9858 4.12821 12.5937 4ZM41.3816 36.4186C41.419 36.3292 41.4427 36.2861 41.4554 36.24C42.1822 33.5903 40.9624 30.4036 38.672 28.8973C36.762 27.6412 34.7205 27.3035 32.5315 27.9674C31.843 28.1763 31.3219 28.0241 30.8111 27.5094C27.4001 24.0718 23.9773 20.6458 20.5359 17.2387C19.9744 16.6829 19.815 16.1296 20.0608 15.383C20.4561 14.1824 20.4961 12.9403 20.1686 11.7253C19.3893 8.83356 17.5213 7.0512 14.5741 6.44998C13.5865 6.24853 12.5979 6.31191 11.5782 6.60309C12.5901 7.61648 13.5634 8.59159 14.5373 9.56621C15.032 10.0614 15.4081 10.6217 15.6 11.3085C15.9941 12.7196 15.4083 14.3099 14.1622 15.1439C12.9283 15.9697 11.1737 15.9423 10.0833 14.97C8.98696 13.9927 7.97104 12.9248 6.92719 11.8892C6.82905 11.7919 6.78374 11.6412 6.71382 11.5154C5.74819 14.1384 6.97874 17.5376 9.27561 19.0714C11.1875 20.3481 13.2416 20.7062 15.4471 20.0395C16.1522 19.8263 16.6802 19.9762 17.2018 20.5021C20.6024 23.9314 24.0148 27.3494 27.4479 30.7465C28.0203 31.3128 28.1897 31.8709 27.936 32.6332C27.5365 33.8338 27.516 35.0743 27.8356 36.2912C28.5121 38.8679 30.1298 40.5897 32.6835 41.3811C33.9002 41.7581 35.139 41.7575 36.4124 41.4049C36.3009 41.2853 36.2169 41.1896 36.1271 41.0997C35.2351 40.2058 34.3299 39.3247 33.4564 38.4132C33.1457 38.089 32.8653 37.7163 32.6519 37.3221C31.9555 36.036 32.2504 34.335 33.3122 33.2914C34.3756 32.2461 36.0464 31.9589 37.3136 32.6484C37.7296 32.8747 38.1197 33.1762 38.4616 33.5057C39.4438 34.4518 40.3952 35.4301 41.3816 36.4186ZM18.1018 24.8295C18.0421 24.9153 17.9759 25.048 17.8766 25.1476C14.4737 28.5563 11.0672 31.9614 7.66364 35.3697C7.45263 35.581 7.25225 35.805 7.06526 36.0378C5.62622 37.8289 6.48923 40.7183 8.67146 41.432C10.1455 41.9142 11.4114 41.5569 12.4913 40.4784C15.973 37.0012 19.4511 33.5204 22.9302 30.0405C23.0024 29.9682 23.0696 29.8909 23.1146 29.8424C21.4592 28.187 19.8151 26.5429 18.1018 24.8295ZM37.6525 14.8351C38.8869 12.7773 40.1198 10.7221 41.3153 8.72888C40.6114 8.02347 39.953 7.36357 39.2745 6.68355C37.2546 7.89595 35.2028 9.12758 33.1585 10.3545C34.6682 11.8598 36.1481 13.3352 37.6525 14.8351ZM32.8958 13.5369C30.7806 15.6521 28.6667 17.7659 26.5814 19.8512C27.0976 20.3679 27.6359 20.9064 28.1272 21.398C30.2216 19.3034 32.3405 17.1844 34.4434 15.0815C33.9438 14.583 33.4114 14.0515 32.8958 13.5369Z" fill="#E12568"/>
<path fill-rule="evenodd" clip-rule="evenodd" d="M11.242 38.1507C10.7894 38.1411 10.4436 37.9444 10.2256 37.5452C10.0076 37.1459 10.0286 36.745 10.2659 36.3614C10.3402 36.2414 10.4418 36.1358 10.5424 36.0351C12.8396 33.7342 15.1352 31.4319 17.4429 29.1415C17.6376 28.9483 17.8971 28.7783 18.1571 28.7024C18.6487 28.5587 19.1372 28.7942 19.3982 29.2194C19.6551 29.6372 19.62 30.1677 19.3042 30.5675C19.232 30.659 19.1488 30.7424 19.0661 30.825C16.786 33.1061 14.5045 35.3859 12.2257 37.6683C11.951 37.9434 11.6567 38.1647 11.242 38.1507Z" fill="#E12568"/>
</svg>
