<svg width="56" height="56" viewBox="0 0 56 56" fill="none" xmlns="http://www.w3.org/2000/svg">
<path fill-rule="evenodd" clip-rule="evenodd" d="M40.8799 16.8494C40.6541 17.823 40.9384 18.6374 41.5194 19.539C42.9551 21.7667 41.6457 24.7415 39.0643 25.3689C38.6182 25.4773 38.4473 25.6809 38.3222 26.0896C35.9496 33.8533 33.5626 41.6128 31.1796 49.3733C30.6823 50.9923 29.6789 51.899 28.2727 51.9925C26.7666 52.0926 25.483 51.1811 25.0102 49.6541C24.0638 46.5972 23.1256 43.5377 22.1857 40.4788C20.6969 35.6324 19.2069 30.7869 17.7279 25.9377C17.6342 25.6302 17.4973 25.4906 17.1701 25.4144C14.075 24.6929 12.974 21.0998 15.0976 18.7336C15.2386 18.5765 15.3178 18.289 15.2982 18.0735C14.6757 11.1979 19.4322 5.13875 26.2571 4.13289C33.1982 3.10989 39.8309 8.11191 40.717 15.0437C40.7916 15.628 40.8242 16.218 40.8799 16.8494ZM28.0241 5.33479C27.257 5.43227 26.4819 5.48857 25.7238 5.63372C19.9607 6.73692 15.8633 12.5471 16.7789 18.3082C16.8599 18.8185 16.7685 19.1902 16.3386 19.5445C15.2241 20.463 15.1084 22.0598 16.0199 23.166C16.9129 24.25 18.5187 24.4045 19.6499 23.515C20.2928 23.0095 20.5832 23.0534 21.0423 23.7251C21.8841 24.9567 23.3745 25.3543 24.6939 24.6548C25.1451 24.4156 25.4787 24.4647 25.8989 24.7338C27.3295 25.6493 28.7937 25.6424 30.2204 24.7195C30.6225 24.4594 30.9471 24.415 31.381 24.6455C32.724 25.3591 34.2092 24.9628 35.0693 23.7024C35.5091 23.0581 35.8137 23.0128 36.4285 23.4999C37.5625 24.3986 39.1535 24.2581 40.06 23.1796C40.9942 22.0685 40.8709 20.4615 39.733 19.5218C39.3382 19.1958 39.2388 18.8496 39.3064 18.375C40.2853 11.499 34.9636 5.3753 28.0241 5.33479ZM31.1372 43.8181C30.1198 43.1367 29.1607 42.491 28.1953 41.8551C28.1295 41.8116 27.9897 41.8011 27.9283 41.8416C26.9505 42.4863 25.98 43.1419 24.9703 43.8204C25.9664 44.4903 26.897 45.1239 27.8398 45.7388C27.9379 45.8029 28.1453 45.8131 28.2392 45.7519C29.1924 45.1325 30.1325 44.4928 31.1372 43.8181ZM24.9682 32.1115C25.97 32.7847 26.9304 33.4351 27.8993 34.0722C27.9727 34.1205 28.134 34.1184 28.2083 34.0694C29.1747 33.4339 30.1329 32.7857 31.1361 32.1118C30.1429 31.4452 29.2111 30.8105 28.2647 30.1984C28.1605 30.1309 27.9352 30.1348 27.8293 30.2034C26.8966 30.8073 25.9784 31.4332 24.9682 32.1115ZM31.1357 37.9683C30.4371 37.4971 29.7974 37.063 29.1553 36.6328C28.0526 35.894 28.0514 35.8941 26.9488 36.6334C26.3008 37.0678 25.6549 37.5052 24.9689 37.9679C25.9591 38.6333 26.8767 39.2609 27.811 39.8628C27.9267 39.9375 28.1725 39.9394 28.2876 39.8655C29.2221 39.2643 30.1397 38.6368 31.1357 37.9683ZM29.3287 29.1871C30.3359 29.8634 31.2969 30.5119 32.2641 31.1506C32.3299 31.1942 32.4694 31.2057 32.5307 31.1655C33.509 30.5215 34.4803 29.8666 35.498 29.1843C34.4954 28.5122 33.5624 27.8794 32.6175 27.2649C32.5199 27.2015 32.314 27.1908 32.2208 27.2514C31.2658 27.8744 30.3238 28.5168 29.3287 29.1871ZM26.7811 29.1855C25.7836 28.5166 24.8641 27.8933 23.9342 27.286C23.8295 27.2177 23.6225 27.1742 23.5355 27.2308C22.5693 27.859 21.6174 28.5091 20.6136 29.1858C21.6197 29.8623 22.5655 30.5042 23.5214 31.1305C23.6054 31.1855 23.7877 31.1861 23.8714 31.1313C24.8271 30.5055 25.7724 29.8638 26.7811 29.1855ZM21.7658 34.2646C21.9515 34.8773 22.0182 35.5431 22.3435 36.0391C22.6344 36.4825 23.2078 36.7424 23.6662 37.0701C23.701 37.0949 23.8191 37.0238 23.8864 36.9788C24.8351 36.3456 25.7817 35.709 26.7766 35.0412C25.7728 34.3655 24.8167 33.7156 23.8498 33.0826C23.77 33.0303 23.5885 33.0516 23.4993 33.1086C22.9206 33.479 22.3548 33.8686 21.7658 34.2646ZM34.3304 34.2631C33.7442 33.8686 33.1768 33.4775 32.5965 33.1064C32.5081 33.0499 32.3258 33.0356 32.2442 33.0889C31.2792 33.7213 30.3251 34.3702 29.3273 35.0423C30.322 35.7114 31.2579 36.3419 32.1954 36.9697C32.2635 37.0152 32.3808 37.0936 32.4127 37.0705C32.8812 36.7305 33.4596 36.4576 33.7658 36.003C34.0882 35.5243 34.1477 34.8687 34.3304 34.2631ZM29.8283 48.7954C29.3111 48.4476 28.7878 48.0824 28.2471 47.7448C28.1502 47.6844 27.9495 47.6869 27.8517 47.7481C27.3115 48.0866 26.7882 48.4522 26.2695 48.8013C26.4947 49.9756 27.0881 50.5683 28.024 50.5791C28.9888 50.5903 29.6003 49.9957 29.8283 48.7954ZM31.7862 42.5441C32.1318 41.4283 32.4683 40.3613 32.7834 39.2879C32.8082 39.2033 32.7089 39.0391 32.6213 38.9767C32.5343 38.9148 32.3518 38.8779 32.2751 38.9279C31.2978 39.5645 30.3319 40.2187 29.3245 40.8942C30.1706 41.4614 30.95 41.9835 31.7862 42.5441ZM26.7785 40.8941C25.7732 40.2183 24.8444 39.5847 23.9009 38.9736C23.7985 38.9073 23.5714 38.9191 23.4746 38.9916C23.3805 39.0619 23.3175 39.2726 23.3485 39.3945C23.4801 39.9145 23.6497 40.4252 23.8093 40.9381C23.9713 41.4587 24.1376 41.9782 24.3171 42.545C25.1581 41.9809 25.9372 41.4584 26.7785 40.8941ZM19.0461 25.4252C19.3055 26.2628 19.5618 27.0907 19.8397 27.9885C20.6921 27.4159 21.4842 26.8839 22.1996 26.4034C21.5421 25.9414 20.9193 25.4981 20.2882 25.0672C20.2086 25.0127 20.0688 24.9783 19.9853 25.0099C19.6736 25.1279 19.3735 25.2772 19.0461 25.4252ZM37.0501 25.4216C36.7261 25.2776 36.4381 25.1424 36.1435 25.0239C36.061 24.9909 35.9296 24.9659 35.8697 25.0075C35.2088 25.4664 34.5578 25.9392 33.9036 26.4087C34.6277 26.8931 35.4167 27.4207 36.2608 27.9855C36.5395 27.0802 36.7941 26.253 37.0501 25.4216ZM25.0541 26.1373C25.0409 26.1889 25.0279 26.2404 25.0147 26.292C25.9749 26.9362 26.9338 27.5826 27.8987 28.2197C27.9661 28.2643 28.1057 28.2825 28.1658 28.243C29.145 27.5981 30.1167 26.9421 31.0901 26.2885C31.0736 26.2337 31.057 26.1789 31.0404 26.124C30.8732 26.1462 30.6849 26.1259 30.5423 26.1971C28.8739 27.0311 27.215 27.0288 25.5476 26.1932C25.4085 26.1236 25.2198 26.1536 25.0541 26.1373ZM20.9418 31.1212C20.9012 31.1419 20.8606 31.1626 20.8198 31.1832C20.9822 31.7126 21.1444 32.242 21.3296 32.8457C21.7165 32.5839 22.0461 32.3609 22.4169 32.1099C21.8784 31.749 21.4102 31.4351 20.9418 31.1212ZM34.7736 32.8366C34.9594 32.2237 35.1179 31.7015 35.2763 31.1791C35.2439 31.1575 35.2114 31.1358 35.1788 31.1142C34.6956 31.4365 34.2123 31.7587 33.6796 32.114C34.0508 32.359 34.3816 32.5776 34.7736 32.8366ZM25.8015 47.3981C26.1406 47.1717 26.4253 46.9817 26.7765 46.7475C26.285 46.4162 25.8458 46.1202 25.2964 45.7497C25.4825 46.3572 25.6313 46.8428 25.8015 47.3981ZM30.2994 47.3939C30.4684 46.8377 30.6147 46.3565 30.7973 45.7551C30.2447 46.1278 29.8065 46.4232 29.3274 46.7461C29.6723 46.9758 29.9492 47.1605 30.2994 47.3939Z" fill="#848181"/>
<path fill-rule="evenodd" clip-rule="evenodd" d="M21.346 10.6483C21.2133 10.9107 21.1424 11.0799 21.0473 11.2338C20.6931 11.806 20.3211 12.3674 19.9752 12.9443C19.7076 13.3904 19.3635 13.5515 18.9807 13.3683C18.602 13.1871 18.4588 12.7697 18.7089 12.3337C19.1101 11.6341 19.5328 10.941 20.018 10.2994C20.1526 10.1216 20.5658 10.0337 20.8053 10.0923C21.0197 10.1449 21.1709 10.4557 21.346 10.6483Z" fill="#848181"/>
</svg>
