<svg width="56" height="56" viewBox="0 0 56 56" fill="none" xmlns="http://www.w3.org/2000/svg">
<path fill-rule="evenodd" clip-rule="evenodd" d="M28.1308 3C29.6933 4.02243 31.2517 5.05098 32.825 6.05631C32.9643 6.14549 33.2032 6.10954 33.3905 6.0872C34.9918 5.89748 36.5936 5.70793 38.1916 5.49343C38.5988 5.4388 38.8187 5.57301 39.0257 5.92069C39.8396 7.28731 40.6725 8.64346 41.5319 9.98198C41.6918 10.2309 41.978 10.4606 42.2557 10.5613C43.77 11.1107 45.2954 11.6303 46.8272 12.1286C47.1916 12.2471 47.3448 12.4035 47.3803 12.8C47.5278 14.4498 47.7044 16.0976 47.9051 17.7417C47.9356 17.9911 48.1028 18.2644 48.2854 18.4486C49.4216 19.5947 50.5703 20.7292 51.7384 21.8429C52.0208 22.1122 52.0591 22.3391 51.9271 22.691C51.3696 24.1793 50.8192 25.671 50.3128 27.1773C50.2064 27.4941 50.2048 27.9074 50.3111 28.2238C50.8167 29.7304 51.3661 31.2227 51.9243 32.7106C52.0566 33.0632 52.0196 33.2871 51.7376 33.5575C50.5718 34.6736 49.4227 35.8078 48.2957 36.9627C48.0903 37.1732 47.9325 37.502 47.8962 37.7942C47.6946 39.4163 47.5551 41.0463 47.3438 42.6669C47.3146 42.8903 47.0438 43.1826 46.8197 43.2643C45.3064 43.8169 43.7703 44.3065 42.2554 44.854C41.9773 44.9545 41.6895 45.1818 41.5298 45.43C40.6809 46.7493 39.8597 48.0869 39.0556 49.4342C38.8306 49.8113 38.6269 49.9768 38.1358 49.903C36.5848 49.6696 35.0241 49.4946 33.4624 49.3478C33.1283 49.3165 32.7267 49.4216 32.4375 49.5974C31.0782 50.4231 29.7408 51.2858 28.4108 52.1588C28.1073 52.3582 27.8903 52.35 27.5924 52.1552C26.2612 51.2841 24.9248 50.4196 23.5653 49.5939C23.2763 49.4183 22.8734 49.3177 22.5387 49.3493C20.9553 49.4991 19.374 49.6839 17.7995 49.9091C17.3661 49.971 17.1806 49.8267 16.9792 49.4909C16.1833 48.1639 15.382 46.8395 14.5344 45.5457C14.3278 45.2301 13.9758 44.9323 13.6253 44.802C12.1772 44.2632 10.71 43.7727 9.2364 43.3074C8.78226 43.1643 8.64944 42.9313 8.61016 42.4766C8.47158 40.87 8.29303 39.266 8.09423 37.6657C8.06317 37.4163 7.89264 37.1454 7.70991 36.9602C6.57577 35.8118 5.42872 34.6759 4.26438 33.5583C3.9867 33.2918 3.94027 33.0677 4.07431 32.7115C4.64173 31.2035 5.19431 29.6897 5.71391 28.1646C5.80886 27.8857 5.80676 27.5185 5.71129 27.2391C5.19135 25.7143 4.63807 24.2008 4.07274 22.6921C3.94027 22.339 3.98041 22.1121 4.26212 21.8438C5.39957 20.761 6.52638 19.6661 7.61897 18.5388C7.86542 18.2847 8.05933 17.8951 8.10523 17.5453C8.31537 15.9466 8.48013 14.3412 8.62395 12.7348C8.65938 12.3401 8.86708 12.2382 9.1781 12.134C10.6645 11.6362 12.1538 11.1449 13.6213 10.5958C13.971 10.4649 14.3273 10.1773 14.5327 9.86469C15.3703 8.5904 16.1685 7.28906 16.941 5.97392C17.1745 5.57633 17.4235 5.43356 17.877 5.49517C19.4101 5.70322 20.9457 5.89905 22.4849 6.05386C22.8202 6.08737 23.2279 6.01965 23.5109 5.84808C24.9269 4.98971 26.3129 4.08195 27.7069 3.18745C27.7736 3.14469 27.8156 3.06353 27.869 3.00017C27.9563 3 28.0437 3 28.1308 3ZM44.9291 27.7442C44.9621 18.4105 37.3931 10.796 28.0416 10.7555C18.7284 10.7152 11.1097 18.304 11.0699 27.6611C11.0303 36.9674 18.5881 44.5915 27.8928 44.6321C37.2928 44.6732 44.8956 37.1363 44.9291 27.7442Z" fill="#9BDEAC"/>
<path fill-rule="evenodd" clip-rule="evenodd" d="M46 27.5341C45.9881 37.7733 37.6877 46.028 27.4319 45.9999C17.2371 45.9724 8.98512 37.6857 9.00002 27.4902C9.01492 17.306 17.2922 9.02213 27.4759 9.00005C37.6815 8.97722 46.0124 17.3125 46 27.5341Z" fill="#9BDEAC"/>
<mask id="path-3-outside-1_1145_9133" maskUnits="userSpaceOnUse" x="7.9375" y="17.3398" width="38" height="23" fill="black">
<rect fill="white" x="7.9375" y="17.3398" width="38" height="23"/>
<path d="M12.1375 23.5398C12.1375 22.8998 12.2775 22.3465 12.5575 21.8798C12.8508 21.4132 13.2642 21.0265 13.7975 20.7198C14.3442 20.4132 15.0042 20.1865 15.7775 20.0398C16.5508 19.8798 17.4242 19.7998 18.3975 19.7998C19.3708 19.7998 20.2442 19.8798 21.0175 20.0398C21.7908 20.1865 22.4442 20.4132 22.9775 20.7198C23.5242 21.0265 23.9375 21.4132 24.2175 21.8798C24.5108 22.3465 24.6575 22.8998 24.6575 23.5398C24.6575 24.1798 24.5108 24.7332 24.2175 25.1998C23.9375 25.6665 23.5242 26.0532 22.9775 26.3598C22.4442 26.6665 21.7908 26.8998 21.0175 27.0598C20.2442 27.2065 19.3708 27.2798 18.3975 27.2798C17.4242 27.2798 16.5508 27.2065 15.7775 27.0598C15.0042 26.8998 14.3442 26.6665 13.7975 26.3598C13.2642 26.0532 12.8508 25.6665 12.5575 25.1998C12.2775 24.7332 12.1375 24.1798 12.1375 23.5398ZM22.1175 23.5398C22.1175 23.0332 21.8308 22.6332 21.2575 22.3398C20.6842 22.0465 19.7308 21.8998 18.3975 21.8998C17.0642 21.8998 16.1108 22.0465 15.5375 22.3398C14.9642 22.6332 14.6775 23.0332 14.6775 23.5398C14.6775 24.0465 14.9642 24.4465 15.5375 24.7398C16.1108 25.0332 17.0642 25.1798 18.3975 25.1798C19.7308 25.1798 20.6842 25.0332 21.2575 24.7398C21.8308 24.4465 22.1175 24.0465 22.1175 23.5398ZM10.8375 30.8198C10.5308 30.8198 10.3042 30.7132 10.1575 30.4998C10.0108 30.2865 9.9375 30.0332 9.9375 29.7398C9.9375 29.4465 10.0108 29.1932 10.1575 28.9798C10.3042 28.7665 10.5308 28.6598 10.8375 28.6598H25.9575C26.2642 28.6598 26.4908 28.7665 26.6375 28.9798C26.7842 29.1932 26.8575 29.4465 26.8575 29.7398C26.8575 30.0332 26.7842 30.2865 26.6375 30.4998C26.4908 30.7132 26.2642 30.8198 25.9575 30.8198H10.8375ZM24.1175 35.6598C24.4242 35.6598 24.6508 35.7665 24.7975 35.9798C24.9442 36.1932 25.0175 36.4465 25.0175 36.7398C25.0175 37.0332 24.9442 37.2865 24.7975 37.4998C24.6508 37.7132 24.4242 37.8198 24.1175 37.8198H13.7975C13.1575 37.8198 12.7108 37.6998 12.4575 37.4598C12.2175 37.2198 12.0975 36.7865 12.0975 36.1598V33.0598C12.0975 32.6865 12.2242 32.4132 12.4775 32.2398C12.7442 32.0665 13.0508 31.9798 13.3975 31.9798C13.7308 31.9798 14.0242 32.0665 14.2775 32.2398C14.5442 32.4132 14.6775 32.6865 14.6775 33.0598V35.1998C14.6775 35.5065 14.8308 35.6598 15.1375 35.6598H24.1175Z"/>
<path d="M35.3806 22.8798V24.3998C35.3806 24.8265 35.4073 25.2132 35.4606 25.5598C35.514 25.9065 35.594 26.2265 35.7006 26.5198C35.8206 26.8132 35.974 27.0998 36.1606 27.3798C36.3473 27.6465 36.5806 27.9198 36.8606 28.1998C37.2473 28.5865 37.6206 28.9532 37.9806 29.2998C38.3406 29.6465 38.674 29.9532 38.9806 30.2198C39.234 30.4465 39.334 30.7132 39.2806 31.0198C39.2406 31.3265 39.1206 31.5865 38.9206 31.7998C38.7206 31.9998 38.474 32.1332 38.1806 32.1998C37.8873 32.2532 37.6206 32.1732 37.3806 31.9598C37.114 31.7332 36.8206 31.4665 36.5006 31.1598C36.1806 30.8398 35.8406 30.4998 35.4806 30.1398C34.9606 29.6198 34.6073 29.2265 34.4206 28.9598C34.2473 28.6798 34.1406 28.4465 34.1006 28.2598H34.0806C34.0273 28.4865 33.9073 28.7398 33.7206 29.0198C33.5473 29.2865 33.2006 29.6798 32.6806 30.1998C32.3206 30.5598 31.9606 30.9132 31.6006 31.2598C31.2406 31.6065 30.8673 31.9465 30.4806 32.2798C30.3473 32.3865 30.2073 32.4532 30.0606 32.4798C29.914 32.5065 29.7673 32.5065 29.6206 32.4798C29.4873 32.4398 29.354 32.3865 29.2206 32.3198C29.1006 32.2398 28.994 32.1465 28.9006 32.0398C28.7006 31.8132 28.594 31.5465 28.5806 31.2398C28.5673 30.9332 28.6873 30.6665 28.9406 30.4398C29.7806 29.7065 30.5673 28.9598 31.3006 28.1998C31.5806 27.9198 31.814 27.6465 32.0006 27.3798C32.1873 27.0998 32.334 26.8132 32.4406 26.5198C32.5606 26.2265 32.6473 25.9065 32.7006 25.5598C32.754 25.2132 32.7806 24.8265 32.7806 24.3998V22.8798H29.8006C29.494 22.8798 29.2673 22.7732 29.1206 22.5598C28.974 22.3465 28.9006 22.0932 28.9006 21.7998C28.9006 21.4932 28.974 21.2332 29.1206 21.0198C29.2673 20.8065 29.494 20.6998 29.8006 20.6998H38.2006C38.5073 20.6998 38.734 20.8065 38.8806 21.0198C39.0273 21.2332 39.1006 21.4932 39.1006 21.7998C39.1006 22.0932 39.0273 22.3465 38.8806 22.5598C38.734 22.7732 38.5073 22.8798 38.2006 22.8798H35.3806ZM43.4606 35.7398C43.4606 36.1132 43.3273 36.3865 43.0606 36.5598C42.8073 36.7332 42.5073 36.8198 42.1606 36.8198C41.8273 36.8198 41.5273 36.7332 41.2606 36.5598C41.0073 36.3865 40.8806 36.1132 40.8806 35.7398V20.4198C40.8806 20.0465 41.0073 19.7732 41.2606 19.5998C41.5273 19.4265 41.8273 19.3398 42.1606 19.3398C42.5073 19.3398 42.8073 19.4265 43.0606 19.5998C43.3273 19.7732 43.4606 20.0465 43.4606 20.4198V35.7398Z"/>
</mask>
<path d="M12.1375 23.5398C12.1375 22.8998 12.2775 22.3465 12.5575 21.8798C12.8508 21.4132 13.2642 21.0265 13.7975 20.7198C14.3442 20.4132 15.0042 20.1865 15.7775 20.0398C16.5508 19.8798 17.4242 19.7998 18.3975 19.7998C19.3708 19.7998 20.2442 19.8798 21.0175 20.0398C21.7908 20.1865 22.4442 20.4132 22.9775 20.7198C23.5242 21.0265 23.9375 21.4132 24.2175 21.8798C24.5108 22.3465 24.6575 22.8998 24.6575 23.5398C24.6575 24.1798 24.5108 24.7332 24.2175 25.1998C23.9375 25.6665 23.5242 26.0532 22.9775 26.3598C22.4442 26.6665 21.7908 26.8998 21.0175 27.0598C20.2442 27.2065 19.3708 27.2798 18.3975 27.2798C17.4242 27.2798 16.5508 27.2065 15.7775 27.0598C15.0042 26.8998 14.3442 26.6665 13.7975 26.3598C13.2642 26.0532 12.8508 25.6665 12.5575 25.1998C12.2775 24.7332 12.1375 24.1798 12.1375 23.5398ZM22.1175 23.5398C22.1175 23.0332 21.8308 22.6332 21.2575 22.3398C20.6842 22.0465 19.7308 21.8998 18.3975 21.8998C17.0642 21.8998 16.1108 22.0465 15.5375 22.3398C14.9642 22.6332 14.6775 23.0332 14.6775 23.5398C14.6775 24.0465 14.9642 24.4465 15.5375 24.7398C16.1108 25.0332 17.0642 25.1798 18.3975 25.1798C19.7308 25.1798 20.6842 25.0332 21.2575 24.7398C21.8308 24.4465 22.1175 24.0465 22.1175 23.5398ZM10.8375 30.8198C10.5308 30.8198 10.3042 30.7132 10.1575 30.4998C10.0108 30.2865 9.9375 30.0332 9.9375 29.7398C9.9375 29.4465 10.0108 29.1932 10.1575 28.9798C10.3042 28.7665 10.5308 28.6598 10.8375 28.6598H25.9575C26.2642 28.6598 26.4908 28.7665 26.6375 28.9798C26.7842 29.1932 26.8575 29.4465 26.8575 29.7398C26.8575 30.0332 26.7842 30.2865 26.6375 30.4998C26.4908 30.7132 26.2642 30.8198 25.9575 30.8198H10.8375ZM24.1175 35.6598C24.4242 35.6598 24.6508 35.7665 24.7975 35.9798C24.9442 36.1932 25.0175 36.4465 25.0175 36.7398C25.0175 37.0332 24.9442 37.2865 24.7975 37.4998C24.6508 37.7132 24.4242 37.8198 24.1175 37.8198H13.7975C13.1575 37.8198 12.7108 37.6998 12.4575 37.4598C12.2175 37.2198 12.0975 36.7865 12.0975 36.1598V33.0598C12.0975 32.6865 12.2242 32.4132 12.4775 32.2398C12.7442 32.0665 13.0508 31.9798 13.3975 31.9798C13.7308 31.9798 14.0242 32.0665 14.2775 32.2398C14.5442 32.4132 14.6775 32.6865 14.6775 33.0598V35.1998C14.6775 35.5065 14.8308 35.6598 15.1375 35.6598H24.1175Z" fill="#6ABAA4"/>
<path d="M35.3806 22.8798V24.3998C35.3806 24.8265 35.4073 25.2132 35.4606 25.5598C35.514 25.9065 35.594 26.2265 35.7006 26.5198C35.8206 26.8132 35.974 27.0998 36.1606 27.3798C36.3473 27.6465 36.5806 27.9198 36.8606 28.1998C37.2473 28.5865 37.6206 28.9532 37.9806 29.2998C38.3406 29.6465 38.674 29.9532 38.9806 30.2198C39.234 30.4465 39.334 30.7132 39.2806 31.0198C39.2406 31.3265 39.1206 31.5865 38.9206 31.7998C38.7206 31.9998 38.474 32.1332 38.1806 32.1998C37.8873 32.2532 37.6206 32.1732 37.3806 31.9598C37.114 31.7332 36.8206 31.4665 36.5006 31.1598C36.1806 30.8398 35.8406 30.4998 35.4806 30.1398C34.9606 29.6198 34.6073 29.2265 34.4206 28.9598C34.2473 28.6798 34.1406 28.4465 34.1006 28.2598H34.0806C34.0273 28.4865 33.9073 28.7398 33.7206 29.0198C33.5473 29.2865 33.2006 29.6798 32.6806 30.1998C32.3206 30.5598 31.9606 30.9132 31.6006 31.2598C31.2406 31.6065 30.8673 31.9465 30.4806 32.2798C30.3473 32.3865 30.2073 32.4532 30.0606 32.4798C29.914 32.5065 29.7673 32.5065 29.6206 32.4798C29.4873 32.4398 29.354 32.3865 29.2206 32.3198C29.1006 32.2398 28.994 32.1465 28.9006 32.0398C28.7006 31.8132 28.594 31.5465 28.5806 31.2398C28.5673 30.9332 28.6873 30.6665 28.9406 30.4398C29.7806 29.7065 30.5673 28.9598 31.3006 28.1998C31.5806 27.9198 31.814 27.6465 32.0006 27.3798C32.1873 27.0998 32.334 26.8132 32.4406 26.5198C32.5606 26.2265 32.6473 25.9065 32.7006 25.5598C32.754 25.2132 32.7806 24.8265 32.7806 24.3998V22.8798H29.8006C29.494 22.8798 29.2673 22.7732 29.1206 22.5598C28.974 22.3465 28.9006 22.0932 28.9006 21.7998C28.9006 21.4932 28.974 21.2332 29.1206 21.0198C29.2673 20.8065 29.494 20.6998 29.8006 20.6998H38.2006C38.5073 20.6998 38.734 20.8065 38.8806 21.0198C39.0273 21.2332 39.1006 21.4932 39.1006 21.7998C39.1006 22.0932 39.0273 22.3465 38.8806 22.5598C38.734 22.7732 38.5073 22.8798 38.2006 22.8798H35.3806ZM43.4606 35.7398C43.4606 36.1132 43.3273 36.3865 43.0606 36.5598C42.8073 36.7332 42.5073 36.8198 42.1606 36.8198C41.8273 36.8198 41.5273 36.7332 41.2606 36.5598C41.0073 36.3865 40.8806 36.1132 40.8806 35.7398V20.4198C40.8806 20.0465 41.0073 19.7732 41.2606 19.5998C41.5273 19.4265 41.8273 19.3398 42.1606 19.3398C42.5073 19.3398 42.8073 19.4265 43.0606 19.5998C43.3273 19.7732 43.4606 20.0465 43.4606 20.4198V35.7398Z" fill="#6ABAA4"/>
<path d="M12.1375 23.5398C12.1375 22.8998 12.2775 22.3465 12.5575 21.8798C12.8508 21.4132 13.2642 21.0265 13.7975 20.7198C14.3442 20.4132 15.0042 20.1865 15.7775 20.0398C16.5508 19.8798 17.4242 19.7998 18.3975 19.7998C19.3708 19.7998 20.2442 19.8798 21.0175 20.0398C21.7908 20.1865 22.4442 20.4132 22.9775 20.7198C23.5242 21.0265 23.9375 21.4132 24.2175 21.8798C24.5108 22.3465 24.6575 22.8998 24.6575 23.5398C24.6575 24.1798 24.5108 24.7332 24.2175 25.1998C23.9375 25.6665 23.5242 26.0532 22.9775 26.3598C22.4442 26.6665 21.7908 26.8998 21.0175 27.0598C20.2442 27.2065 19.3708 27.2798 18.3975 27.2798C17.4242 27.2798 16.5508 27.2065 15.7775 27.0598C15.0042 26.8998 14.3442 26.6665 13.7975 26.3598C13.2642 26.0532 12.8508 25.6665 12.5575 25.1998C12.2775 24.7332 12.1375 24.1798 12.1375 23.5398ZM22.1175 23.5398C22.1175 23.0332 21.8308 22.6332 21.2575 22.3398C20.6842 22.0465 19.7308 21.8998 18.3975 21.8998C17.0642 21.8998 16.1108 22.0465 15.5375 22.3398C14.9642 22.6332 14.6775 23.0332 14.6775 23.5398C14.6775 24.0465 14.9642 24.4465 15.5375 24.7398C16.1108 25.0332 17.0642 25.1798 18.3975 25.1798C19.7308 25.1798 20.6842 25.0332 21.2575 24.7398C21.8308 24.4465 22.1175 24.0465 22.1175 23.5398ZM10.8375 30.8198C10.5308 30.8198 10.3042 30.7132 10.1575 30.4998C10.0108 30.2865 9.9375 30.0332 9.9375 29.7398C9.9375 29.4465 10.0108 29.1932 10.1575 28.9798C10.3042 28.7665 10.5308 28.6598 10.8375 28.6598H25.9575C26.2642 28.6598 26.4908 28.7665 26.6375 28.9798C26.7842 29.1932 26.8575 29.4465 26.8575 29.7398C26.8575 30.0332 26.7842 30.2865 26.6375 30.4998C26.4908 30.7132 26.2642 30.8198 25.9575 30.8198H10.8375ZM24.1175 35.6598C24.4242 35.6598 24.6508 35.7665 24.7975 35.9798C24.9442 36.1932 25.0175 36.4465 25.0175 36.7398C25.0175 37.0332 24.9442 37.2865 24.7975 37.4998C24.6508 37.7132 24.4242 37.8198 24.1175 37.8198H13.7975C13.1575 37.8198 12.7108 37.6998 12.4575 37.4598C12.2175 37.2198 12.0975 36.7865 12.0975 36.1598V33.0598C12.0975 32.6865 12.2242 32.4132 12.4775 32.2398C12.7442 32.0665 13.0508 31.9798 13.3975 31.9798C13.7308 31.9798 14.0242 32.0665 14.2775 32.2398C14.5442 32.4132 14.6775 32.6865 14.6775 33.0598V35.1998C14.6775 35.5065 14.8308 35.6598 15.1375 35.6598H24.1175Z" stroke="white" stroke-width="4" mask="url(#path-3-outside-1_1145_9133)"/>
<path d="M35.3806 22.8798V24.3998C35.3806 24.8265 35.4073 25.2132 35.4606 25.5598C35.514 25.9065 35.594 26.2265 35.7006 26.5198C35.8206 26.8132 35.974 27.0998 36.1606 27.3798C36.3473 27.6465 36.5806 27.9198 36.8606 28.1998C37.2473 28.5865 37.6206 28.9532 37.9806 29.2998C38.3406 29.6465 38.674 29.9532 38.9806 30.2198C39.234 30.4465 39.334 30.7132 39.2806 31.0198C39.2406 31.3265 39.1206 31.5865 38.9206 31.7998C38.7206 31.9998 38.474 32.1332 38.1806 32.1998C37.8873 32.2532 37.6206 32.1732 37.3806 31.9598C37.114 31.7332 36.8206 31.4665 36.5006 31.1598C36.1806 30.8398 35.8406 30.4998 35.4806 30.1398C34.9606 29.6198 34.6073 29.2265 34.4206 28.9598C34.2473 28.6798 34.1406 28.4465 34.1006 28.2598H34.0806C34.0273 28.4865 33.9073 28.7398 33.7206 29.0198C33.5473 29.2865 33.2006 29.6798 32.6806 30.1998C32.3206 30.5598 31.9606 30.9132 31.6006 31.2598C31.2406 31.6065 30.8673 31.9465 30.4806 32.2798C30.3473 32.3865 30.2073 32.4532 30.0606 32.4798C29.914 32.5065 29.7673 32.5065 29.6206 32.4798C29.4873 32.4398 29.354 32.3865 29.2206 32.3198C29.1006 32.2398 28.994 32.1465 28.9006 32.0398C28.7006 31.8132 28.594 31.5465 28.5806 31.2398C28.5673 30.9332 28.6873 30.6665 28.9406 30.4398C29.7806 29.7065 30.5673 28.9598 31.3006 28.1998C31.5806 27.9198 31.814 27.6465 32.0006 27.3798C32.1873 27.0998 32.334 26.8132 32.4406 26.5198C32.5606 26.2265 32.6473 25.9065 32.7006 25.5598C32.754 25.2132 32.7806 24.8265 32.7806 24.3998V22.8798H29.8006C29.494 22.8798 29.2673 22.7732 29.1206 22.5598C28.974 22.3465 28.9006 22.0932 28.9006 21.7998C28.9006 21.4932 28.974 21.2332 29.1206 21.0198C29.2673 20.8065 29.494 20.6998 29.8006 20.6998H38.2006C38.5073 20.6998 38.734 20.8065 38.8806 21.0198C39.0273 21.2332 39.1006 21.4932 39.1006 21.7998C39.1006 22.0932 39.0273 22.3465 38.8806 22.5598C38.734 22.7732 38.5073 22.8798 38.2006 22.8798H35.3806ZM43.4606 35.7398C43.4606 36.1132 43.3273 36.3865 43.0606 36.5598C42.8073 36.7332 42.5073 36.8198 42.1606 36.8198C41.8273 36.8198 41.5273 36.7332 41.2606 36.5598C41.0073 36.3865 40.8806 36.1132 40.8806 35.7398V20.4198C40.8806 20.0465 41.0073 19.7732 41.2606 19.5998C41.5273 19.4265 41.8273 19.3398 42.1606 19.3398C42.5073 19.3398 42.8073 19.4265 43.0606 19.5998C43.3273 19.7732 43.4606 20.0465 43.4606 20.4198V35.7398Z" stroke="white" stroke-width="4" mask="url(#path-3-outside-1_1145_9133)"/>
</svg>
