<svg width="56" height="56" viewBox="0 0 56 56" fill="none" xmlns="http://www.w3.org/2000/svg">
<path fill-rule="evenodd" clip-rule="evenodd" d="M28.1308 3C29.6933 4.02243 31.2517 5.05098 32.825 6.05631C32.9643 6.14549 33.2032 6.10954 33.3905 6.0872C34.9919 5.89748 36.5936 5.70793 38.1916 5.49343C38.5988 5.4388 38.8187 5.57301 39.0257 5.92069C39.8396 7.28731 40.6725 8.64346 41.5319 9.98198C41.6918 10.2309 41.978 10.4606 42.2557 10.5613C43.77 11.1107 45.2954 11.6303 46.8272 12.1286C47.1916 12.2471 47.3448 12.4035 47.3803 12.8C47.5278 14.4498 47.7044 16.0976 47.9051 17.7417C47.9356 17.9911 48.1028 18.2644 48.2854 18.4486C49.4216 19.5947 50.5703 20.7292 51.7384 21.8429C52.0208 22.1122 52.0591 22.3391 51.9271 22.691C51.3696 24.1793 50.8192 25.671 50.3128 27.1773C50.2064 27.4941 50.2048 27.9074 50.3111 28.2238C50.8167 29.7304 51.3662 31.2227 51.9243 32.7106C52.0566 33.0632 52.0196 33.2871 51.7376 33.5575C50.5718 34.6736 49.4227 35.8078 48.2957 36.9627C48.0903 37.1732 47.9325 37.502 47.8962 37.7942C47.6946 39.4163 47.5552 41.0463 47.3438 42.6669C47.3146 42.8903 47.0438 43.1826 46.8197 43.2643C45.3064 43.8169 43.7703 44.3065 42.2554 44.854C41.9773 44.9545 41.6895 45.1818 41.5298 45.43C40.6809 46.7493 39.8597 48.0869 39.0556 49.4342C38.8306 49.8113 38.6269 49.9768 38.1358 49.903C36.5848 49.6696 35.0241 49.4946 33.4624 49.3478C33.1283 49.3165 32.7267 49.4216 32.4375 49.5974C31.0782 50.4231 29.7408 51.2858 28.4108 52.1588C28.1073 52.3582 27.8903 52.35 27.5924 52.1552C26.2612 51.2841 24.9248 50.4196 23.5653 49.5939C23.2763 49.4183 22.8734 49.3177 22.5387 49.3493C20.9553 49.4991 19.374 49.6839 17.7995 49.9091C17.3661 49.971 17.1806 49.8267 16.9792 49.4909C16.1833 48.1639 15.382 46.8395 14.5344 45.5457C14.3278 45.2301 13.9758 44.9323 13.6253 44.802C12.1772 44.2632 10.71 43.7727 9.2364 43.3074C8.78226 43.1643 8.64943 42.9313 8.61016 42.4766C8.47158 40.87 8.29303 39.266 8.09423 37.6657C8.06317 37.4163 7.89264 37.1454 7.70991 36.9602C6.57577 35.8118 5.42872 34.6759 4.26438 33.5583C3.9867 33.2918 3.94027 33.0677 4.07431 32.7115C4.64173 31.2035 5.19431 29.6897 5.71391 28.1646C5.80886 27.8857 5.80676 27.5185 5.71129 27.2391C5.19135 25.7143 4.63807 24.2007 4.07274 22.6921C3.94027 22.339 3.98041 22.1121 4.26211 21.8438C5.39957 20.761 6.52637 19.6661 7.61897 18.5388C7.86542 18.2847 8.05933 17.8951 8.10523 17.5453C8.31537 15.9466 8.48013 14.3412 8.62395 12.7348C8.65938 12.3401 8.86708 12.2382 9.17811 12.134C10.6645 11.6362 12.1538 11.1449 13.6213 10.5958C13.971 10.4649 14.3273 10.1773 14.5327 9.86469C15.3703 8.5904 16.1685 7.28906 16.941 5.97392C17.1745 5.57633 17.4236 5.43356 17.877 5.49517C19.4101 5.70322 20.9457 5.89905 22.4849 6.05386C22.8202 6.08737 23.2279 6.01965 23.5109 5.84808C24.9269 4.98971 26.3129 4.08195 27.7069 3.18745C27.7736 3.14469 27.8156 3.06353 27.869 3.00017C27.9563 3 28.0437 3 28.1308 3ZM44.9291 27.7442C44.9621 18.4105 37.3931 10.796 28.0416 10.7555C18.7284 10.7152 11.1097 18.304 11.0699 27.6611C11.0303 36.9674 18.5881 44.5915 27.8928 44.6321C37.2928 44.6732 44.8956 37.1363 44.9291 27.7442Z" fill="#9BDEAC"/>
<path fill-rule="evenodd" clip-rule="evenodd" d="M46 27.5341C45.9881 37.7733 37.6877 46.028 27.4319 45.9999C17.2371 45.9724 8.98512 37.6857 9.00002 27.4902C9.01492 17.306 17.2922 9.02213 27.4759 9.00005C37.6815 8.97722 46.0124 17.3125 46 27.5341Z" fill="#9BDEAC"/>
<mask id="path-3-outside-1_1147_9184" maskUnits="userSpaceOnUse" x="7.9375" y="17.8799" width="40" height="23" fill="black">
<rect fill="white" x="7.9375" y="17.8799" width="40" height="23"/>
<path d="M12.4975 28.1799C12.2042 28.1799 11.9842 28.0799 11.8375 27.8799C11.7042 27.6666 11.6375 27.4132 11.6375 27.1199C11.6375 26.8265 11.7042 26.5799 11.8375 26.3799C11.9842 26.1665 12.2042 26.0599 12.4975 26.0599H14.2175V22.3599H12.5775C12.2842 22.3599 12.0642 22.2599 11.9175 22.0599C11.7842 21.8465 11.7175 21.5932 11.7175 21.2999C11.7175 21.0065 11.7842 20.7599 11.9175 20.5599C12.0642 20.3465 12.2842 20.2399 12.5775 20.2399H24.2175C24.5108 20.2399 24.7242 20.3465 24.8575 20.5599C25.0042 20.7599 25.0775 21.0065 25.0775 21.2999C25.0775 21.5932 25.0042 21.8465 24.8575 22.0599C24.7242 22.2599 24.5108 22.3599 24.2175 22.3599H22.5775V26.0599H24.2975C24.5908 26.0599 24.8042 26.1665 24.9375 26.3799C25.0842 26.5799 25.1575 26.8265 25.1575 27.1199C25.1575 27.4132 25.0842 27.6666 24.9375 27.8799C24.8042 28.0799 24.5908 28.1799 24.2975 28.1799H12.4975ZM16.6775 26.0599H20.1175V22.3599H16.6775V26.0599ZM10.8375 32.0799C10.5308 32.0799 10.3042 31.9732 10.1575 31.7599C10.0108 31.5466 9.9375 31.2932 9.9375 30.9999C9.9375 30.7066 10.0108 30.4532 10.1575 30.2399C10.3042 30.0266 10.5308 29.9199 10.8375 29.9199H25.9575C26.2642 29.9199 26.4908 30.0266 26.6375 30.2399C26.7842 30.4532 26.8575 30.7066 26.8575 30.9999C26.8575 31.2932 26.7842 31.5466 26.6375 31.7599C26.4908 31.9732 26.2642 32.0799 25.9575 32.0799H19.6775V37.1399C19.6775 37.5132 19.5442 37.7866 19.2775 37.9599C19.0242 38.1332 18.7308 38.2199 18.3975 38.2199C18.0642 38.2199 17.7642 38.1332 17.4975 37.9599C17.2442 37.7866 17.1175 37.5132 17.1175 37.1399V32.0799H10.8375Z"/>
<path d="M41.0606 19.8799C41.7006 19.8799 42.1406 19.9999 42.3806 20.2399C42.634 20.4799 42.7606 20.9132 42.7606 21.5399V23.0599C42.7606 23.6866 42.634 24.1199 42.3806 24.3599C42.1406 24.5999 41.7006 24.7199 41.0606 24.7199H33.1806C32.9806 24.7199 32.8806 24.8199 32.8806 25.0199V25.3799C32.8806 25.5799 32.9806 25.6799 33.1806 25.6799H42.3406C42.6206 25.6799 42.8273 25.7799 42.9606 25.9799C43.094 26.1666 43.1606 26.3932 43.1606 26.6599C43.1606 26.9265 43.094 27.1599 42.9606 27.3599C42.8273 27.5599 42.6206 27.6599 42.3406 27.6599H32.1006C31.4606 27.6599 31.014 27.5399 30.7606 27.2999C30.5206 27.0599 30.4006 26.6265 30.4006 25.9999V24.4799C30.4006 23.8532 30.5206 23.4199 30.7606 23.1799C31.014 22.9399 31.4606 22.8199 32.1006 22.8199H39.9806C40.1806 22.8199 40.2806 22.7199 40.2806 22.5199V22.1599C40.2806 21.9599 40.1806 21.8599 39.9806 21.8599H31.1806C30.9006 21.8599 30.694 21.7599 30.5606 21.5599C30.4273 21.3599 30.3606 21.1265 30.3606 20.8599C30.3606 20.5932 30.4273 20.3665 30.5606 20.1799C30.694 19.9799 30.9006 19.8799 31.1806 19.8799H41.0606ZM29.0206 30.7399C28.714 30.7399 28.4873 30.6399 28.3406 30.4399C28.2073 30.2399 28.1406 29.9866 28.1406 29.6799C28.1406 29.3999 28.2073 29.1599 28.3406 28.9599C28.4873 28.7599 28.714 28.6599 29.0206 28.6599H44.1806C44.4873 28.6599 44.7073 28.7599 44.8406 28.9599C44.9873 29.1599 45.0606 29.3999 45.0606 29.6799C45.0606 29.9866 44.9873 30.2399 44.8406 30.4399C44.7073 30.6399 44.4873 30.7399 44.1806 30.7399H29.0206ZM32.0006 37.9599C31.3606 37.9599 30.914 37.8399 30.6606 37.5999C30.4206 37.3599 30.3006 36.9265 30.3006 36.2999V33.4399C30.3006 32.8132 30.4206 32.3799 30.6606 32.1399C30.914 31.8999 31.3606 31.7799 32.0006 31.7799H41.2006C41.8406 31.7799 42.2806 31.8999 42.5206 32.1399C42.774 32.3799 42.9006 32.8132 42.9006 33.4399V36.2999C42.9006 36.9265 42.774 37.3599 42.5206 37.5999C42.2806 37.8399 41.8406 37.9599 41.2006 37.9599H32.0006ZM39.9206 35.9199C40.2273 35.9199 40.3806 35.7666 40.3806 35.4599V34.2799C40.3806 33.9732 40.2273 33.8199 39.9206 33.8199H33.2806C32.974 33.8199 32.8206 33.9732 32.8206 34.2799V35.4599C32.8206 35.7666 32.974 35.9199 33.2806 35.9199H39.9206Z"/>
</mask>
<path d="M12.4975 28.1799C12.2042 28.1799 11.9842 28.0799 11.8375 27.8799C11.7042 27.6666 11.6375 27.4132 11.6375 27.1199C11.6375 26.8265 11.7042 26.5799 11.8375 26.3799C11.9842 26.1665 12.2042 26.0599 12.4975 26.0599H14.2175V22.3599H12.5775C12.2842 22.3599 12.0642 22.2599 11.9175 22.0599C11.7842 21.8465 11.7175 21.5932 11.7175 21.2999C11.7175 21.0065 11.7842 20.7599 11.9175 20.5599C12.0642 20.3465 12.2842 20.2399 12.5775 20.2399H24.2175C24.5108 20.2399 24.7242 20.3465 24.8575 20.5599C25.0042 20.7599 25.0775 21.0065 25.0775 21.2999C25.0775 21.5932 25.0042 21.8465 24.8575 22.0599C24.7242 22.2599 24.5108 22.3599 24.2175 22.3599H22.5775V26.0599H24.2975C24.5908 26.0599 24.8042 26.1665 24.9375 26.3799C25.0842 26.5799 25.1575 26.8265 25.1575 27.1199C25.1575 27.4132 25.0842 27.6666 24.9375 27.8799C24.8042 28.0799 24.5908 28.1799 24.2975 28.1799H12.4975ZM16.6775 26.0599H20.1175V22.3599H16.6775V26.0599ZM10.8375 32.0799C10.5308 32.0799 10.3042 31.9732 10.1575 31.7599C10.0108 31.5466 9.9375 31.2932 9.9375 30.9999C9.9375 30.7066 10.0108 30.4532 10.1575 30.2399C10.3042 30.0266 10.5308 29.9199 10.8375 29.9199H25.9575C26.2642 29.9199 26.4908 30.0266 26.6375 30.2399C26.7842 30.4532 26.8575 30.7066 26.8575 30.9999C26.8575 31.2932 26.7842 31.5466 26.6375 31.7599C26.4908 31.9732 26.2642 32.0799 25.9575 32.0799H19.6775V37.1399C19.6775 37.5132 19.5442 37.7866 19.2775 37.9599C19.0242 38.1332 18.7308 38.2199 18.3975 38.2199C18.0642 38.2199 17.7642 38.1332 17.4975 37.9599C17.2442 37.7866 17.1175 37.5132 17.1175 37.1399V32.0799H10.8375Z" fill="#6ABAA4"/>
<path d="M41.0606 19.8799C41.7006 19.8799 42.1406 19.9999 42.3806 20.2399C42.634 20.4799 42.7606 20.9132 42.7606 21.5399V23.0599C42.7606 23.6866 42.634 24.1199 42.3806 24.3599C42.1406 24.5999 41.7006 24.7199 41.0606 24.7199H33.1806C32.9806 24.7199 32.8806 24.8199 32.8806 25.0199V25.3799C32.8806 25.5799 32.9806 25.6799 33.1806 25.6799H42.3406C42.6206 25.6799 42.8273 25.7799 42.9606 25.9799C43.094 26.1666 43.1606 26.3932 43.1606 26.6599C43.1606 26.9265 43.094 27.1599 42.9606 27.3599C42.8273 27.5599 42.6206 27.6599 42.3406 27.6599H32.1006C31.4606 27.6599 31.014 27.5399 30.7606 27.2999C30.5206 27.0599 30.4006 26.6265 30.4006 25.9999V24.4799C30.4006 23.8532 30.5206 23.4199 30.7606 23.1799C31.014 22.9399 31.4606 22.8199 32.1006 22.8199H39.9806C40.1806 22.8199 40.2806 22.7199 40.2806 22.5199V22.1599C40.2806 21.9599 40.1806 21.8599 39.9806 21.8599H31.1806C30.9006 21.8599 30.694 21.7599 30.5606 21.5599C30.4273 21.3599 30.3606 21.1265 30.3606 20.8599C30.3606 20.5932 30.4273 20.3665 30.5606 20.1799C30.694 19.9799 30.9006 19.8799 31.1806 19.8799H41.0606ZM29.0206 30.7399C28.714 30.7399 28.4873 30.6399 28.3406 30.4399C28.2073 30.2399 28.1406 29.9866 28.1406 29.6799C28.1406 29.3999 28.2073 29.1599 28.3406 28.9599C28.4873 28.7599 28.714 28.6599 29.0206 28.6599H44.1806C44.4873 28.6599 44.7073 28.7599 44.8406 28.9599C44.9873 29.1599 45.0606 29.3999 45.0606 29.6799C45.0606 29.9866 44.9873 30.2399 44.8406 30.4399C44.7073 30.6399 44.4873 30.7399 44.1806 30.7399H29.0206ZM32.0006 37.9599C31.3606 37.9599 30.914 37.8399 30.6606 37.5999C30.4206 37.3599 30.3006 36.9265 30.3006 36.2999V33.4399C30.3006 32.8132 30.4206 32.3799 30.6606 32.1399C30.914 31.8999 31.3606 31.7799 32.0006 31.7799H41.2006C41.8406 31.7799 42.2806 31.8999 42.5206 32.1399C42.774 32.3799 42.9006 32.8132 42.9006 33.4399V36.2999C42.9006 36.9265 42.774 37.3599 42.5206 37.5999C42.2806 37.8399 41.8406 37.9599 41.2006 37.9599H32.0006ZM39.9206 35.9199C40.2273 35.9199 40.3806 35.7666 40.3806 35.4599V34.2799C40.3806 33.9732 40.2273 33.8199 39.9206 33.8199H33.2806C32.974 33.8199 32.8206 33.9732 32.8206 34.2799V35.4599C32.8206 35.7666 32.974 35.9199 33.2806 35.9199H39.9206Z" fill="#6ABAA4"/>
<path d="M12.4975 28.1799C12.2042 28.1799 11.9842 28.0799 11.8375 27.8799C11.7042 27.6666 11.6375 27.4132 11.6375 27.1199C11.6375 26.8265 11.7042 26.5799 11.8375 26.3799C11.9842 26.1665 12.2042 26.0599 12.4975 26.0599H14.2175V22.3599H12.5775C12.2842 22.3599 12.0642 22.2599 11.9175 22.0599C11.7842 21.8465 11.7175 21.5932 11.7175 21.2999C11.7175 21.0065 11.7842 20.7599 11.9175 20.5599C12.0642 20.3465 12.2842 20.2399 12.5775 20.2399H24.2175C24.5108 20.2399 24.7242 20.3465 24.8575 20.5599C25.0042 20.7599 25.0775 21.0065 25.0775 21.2999C25.0775 21.5932 25.0042 21.8465 24.8575 22.0599C24.7242 22.2599 24.5108 22.3599 24.2175 22.3599H22.5775V26.0599H24.2975C24.5908 26.0599 24.8042 26.1665 24.9375 26.3799C25.0842 26.5799 25.1575 26.8265 25.1575 27.1199C25.1575 27.4132 25.0842 27.6666 24.9375 27.8799C24.8042 28.0799 24.5908 28.1799 24.2975 28.1799H12.4975ZM16.6775 26.0599H20.1175V22.3599H16.6775V26.0599ZM10.8375 32.0799C10.5308 32.0799 10.3042 31.9732 10.1575 31.7599C10.0108 31.5466 9.9375 31.2932 9.9375 30.9999C9.9375 30.7066 10.0108 30.4532 10.1575 30.2399C10.3042 30.0266 10.5308 29.9199 10.8375 29.9199H25.9575C26.2642 29.9199 26.4908 30.0266 26.6375 30.2399C26.7842 30.4532 26.8575 30.7066 26.8575 30.9999C26.8575 31.2932 26.7842 31.5466 26.6375 31.7599C26.4908 31.9732 26.2642 32.0799 25.9575 32.0799H19.6775V37.1399C19.6775 37.5132 19.5442 37.7866 19.2775 37.9599C19.0242 38.1332 18.7308 38.2199 18.3975 38.2199C18.0642 38.2199 17.7642 38.1332 17.4975 37.9599C17.2442 37.7866 17.1175 37.5132 17.1175 37.1399V32.0799H10.8375Z" stroke="white" stroke-width="4" mask="url(#path-3-outside-1_1147_9184)"/>
<path d="M41.0606 19.8799C41.7006 19.8799 42.1406 19.9999 42.3806 20.2399C42.634 20.4799 42.7606 20.9132 42.7606 21.5399V23.0599C42.7606 23.6866 42.634 24.1199 42.3806 24.3599C42.1406 24.5999 41.7006 24.7199 41.0606 24.7199H33.1806C32.9806 24.7199 32.8806 24.8199 32.8806 25.0199V25.3799C32.8806 25.5799 32.9806 25.6799 33.1806 25.6799H42.3406C42.6206 25.6799 42.8273 25.7799 42.9606 25.9799C43.094 26.1666 43.1606 26.3932 43.1606 26.6599C43.1606 26.9265 43.094 27.1599 42.9606 27.3599C42.8273 27.5599 42.6206 27.6599 42.3406 27.6599H32.1006C31.4606 27.6599 31.014 27.5399 30.7606 27.2999C30.5206 27.0599 30.4006 26.6265 30.4006 25.9999V24.4799C30.4006 23.8532 30.5206 23.4199 30.7606 23.1799C31.014 22.9399 31.4606 22.8199 32.1006 22.8199H39.9806C40.1806 22.8199 40.2806 22.7199 40.2806 22.5199V22.1599C40.2806 21.9599 40.1806 21.8599 39.9806 21.8599H31.1806C30.9006 21.8599 30.694 21.7599 30.5606 21.5599C30.4273 21.3599 30.3606 21.1265 30.3606 20.8599C30.3606 20.5932 30.4273 20.3665 30.5606 20.1799C30.694 19.9799 30.9006 19.8799 31.1806 19.8799H41.0606ZM29.0206 30.7399C28.714 30.7399 28.4873 30.6399 28.3406 30.4399C28.2073 30.2399 28.1406 29.9866 28.1406 29.6799C28.1406 29.3999 28.2073 29.1599 28.3406 28.9599C28.4873 28.7599 28.714 28.6599 29.0206 28.6599H44.1806C44.4873 28.6599 44.7073 28.7599 44.8406 28.9599C44.9873 29.1599 45.0606 29.3999 45.0606 29.6799C45.0606 29.9866 44.9873 30.2399 44.8406 30.4399C44.7073 30.6399 44.4873 30.7399 44.1806 30.7399H29.0206ZM32.0006 37.9599C31.3606 37.9599 30.914 37.8399 30.6606 37.5999C30.4206 37.3599 30.3006 36.9265 30.3006 36.2999V33.4399C30.3006 32.8132 30.4206 32.3799 30.6606 32.1399C30.914 31.8999 31.3606 31.7799 32.0006 31.7799H41.2006C41.8406 31.7799 42.2806 31.8999 42.5206 32.1399C42.774 32.3799 42.9006 32.8132 42.9006 33.4399V36.2999C42.9006 36.9265 42.774 37.3599 42.5206 37.5999C42.2806 37.8399 41.8406 37.9599 41.2006 37.9599H32.0006ZM39.9206 35.9199C40.2273 35.9199 40.3806 35.7666 40.3806 35.4599V34.2799C40.3806 33.9732 40.2273 33.8199 39.9206 33.8199H33.2806C32.974 33.8199 32.8206 33.9732 32.8206 34.2799V35.4599C32.8206 35.7666 32.974 35.9199 33.2806 35.9199H39.9206Z" stroke="white" stroke-width="4" mask="url(#path-3-outside-1_1147_9184)"/>
</svg>
