<svg width="56" height="56" viewBox="0 0 56 56" fill="none" xmlns="http://www.w3.org/2000/svg">
<g clip-path="url(#clip0_748_9080)">
<path d="M28.5491 6.104C29.4787 6.3616 30.2963 6.7872 30.6883 7.7168C30.8787 8.1648 31.0131 8.68 31.0131 9.1616C31.0355 13.5408 31.0355 17.9312 31.0243 22.3104C31.0243 23.6992 30.2403 24.7968 29.0083 25.1888C27.8099 25.5808 26.5331 25.1664 25.7715 24.1472C25.3795 23.632 25.2003 23.0272 25.2003 22.3888C25.2003 17.9424 25.1891 13.5072 25.2003 9.0608C25.2003 7.6272 26.0627 6.5632 27.4403 6.1824C27.5187 6.16 27.5971 6.1264 27.6755 6.104C27.9779 6.104 28.2691 6.104 28.5491 6.104Z" fill="#FB4D8D"/>
<path d="M8.34375 30.5425C8.47815 24.0689 10.8862 18.9729 15.6014 14.9745C16.5085 14.2129 17.5389 14.0113 18.6365 14.4481C19.7117 14.8737 20.3277 15.6913 20.4397 16.8449C20.5293 17.7297 20.2493 18.5025 19.6221 19.1521C18.8157 19.9809 17.9198 20.7313 17.203 21.6385C14.7166 24.7857 13.7197 28.3921 14.3805 32.3681C15.2317 37.5425 18.1885 41.1377 22.9821 43.1873C25.3677 44.2065 27.8989 44.4305 30.4637 43.9601C35.2349 43.0753 38.7405 40.4209 40.7565 36.0417C42.6717 31.8977 42.5149 27.7089 40.3533 23.6433C39.5133 22.0753 38.3934 20.7425 37.0382 19.5889C36.3773 19.0289 35.8958 18.3681 35.8062 17.4609C35.683 16.2401 36.1533 15.2993 37.1725 14.6721C38.2029 14.0449 39.2894 14.0225 40.275 14.7281C41.5742 15.6465 42.6605 16.8113 43.6461 18.0657C45.8974 20.9441 47.2973 24.1921 47.7118 27.8209C48.3501 33.3313 46.9613 38.3041 43.4781 42.6385C40.5102 46.3345 36.6573 48.6641 32.0093 49.6161C28.2685 50.3777 24.5949 50.0529 21.0221 48.6865C17.3933 47.2977 14.4366 45.0017 12.1406 41.8769C10.203 39.2337 8.97095 36.2769 8.55655 33.0065C8.45575 32.0881 8.39975 31.1697 8.34375 30.5425Z" fill="#FB4D8D"/>
</g>
<defs>
<clipPath id="clip0_748_9080">
<rect width="56" height="56" fill="white"/>
</clipPath>
</defs>
</svg>
