<svg width="738" height="65" viewBox="0 0 738 65" fill="none" xmlns="http://www.w3.org/2000/svg">
<path d="M0.539062 65V0.0999963H3.83906V65H0.539062ZM7.13906 65V0.0999963H17.0391V65H7.13906ZM20.3391 65V0.0999963H23.6391V65H20.3391ZM33.5391 65V0.0999963H36.8391V65H33.5391ZM40.1391 65V0.0999963H50.0391V65H40.1391ZM53.3906 65V0.0999963H63.2906V65H53.3906ZM66.5906 65V0.0999963H69.8906V65H66.5906ZM73.1906 65V0.0999963H76.4906V65H73.1906ZM86.3906 65V0.0999963H89.6906V65H86.3906ZM92.9906 65V0.0999963H102.891V65H92.9906ZM106.242 65V0.0999963H109.542V65H106.242ZM112.842 65V0.0999963H122.742V65H112.842ZM126.042 65V0.0999963H129.342V65H126.042ZM132.642 65V0.0999963H142.542V65H132.642ZM152.442 65V0.0999963H155.742V65H152.442ZM159.094 65V0.0999963H168.994V65H159.094ZM172.294 65V0.0999963H175.594V65H172.294ZM178.894 65V0.0999963H182.194V65H178.894ZM185.494 65V0.0999963H188.794V65H185.494ZM198.694 65V0.0999963H208.594V65H198.694ZM211.945 65V0.0999963H215.245V65H211.945ZM218.545 65V0.0999963H228.445V65H218.545ZM231.745 65V0.0999963H235.045V65H231.745ZM244.945 65V0.0999963H254.845V65H244.945ZM258.145 65V0.0999963H261.445V65H258.145ZM264.797 65V0.0999963H268.097V65H264.797ZM271.397 65V0.0999963H274.697V65H271.397ZM277.997 65V0.0999963H287.897V65H277.997ZM291.197 65V0.0999963H294.497V65H291.197ZM304.397 65V0.0999963H314.297V65H304.397ZM317.648 65V0.0999963H320.948V65H317.648ZM330.848 65V0.0999963H340.748V65H330.848ZM344.048 65V0.0999963H347.348V65H344.048ZM350.648 65V0.0999963H360.548V65H350.648ZM363.848 65V0.0999963H367.148V65H363.848ZM370.5 65V0.0999963H380.4V65H370.5ZM383.7 65V0.0999963H387V65H383.7ZM390.3 65V0.0999963H393.6V65H390.3ZM396.9 65V0.0999963H406.8V65H396.9ZM416.7 65V0.0999963H420V65H416.7ZM423.352 65V0.0999963H433.252V65H423.352ZM436.552 65V0.0999963H439.852V65H436.552ZM443.152 65V0.0999963H453.052V65H443.152ZM456.352 65V0.0999963H459.652V65H456.352ZM469.552 65V0.0999963H472.852V65H469.552ZM476.203 65V0.0999963H479.503V65H476.203ZM482.803 65V0.0999963H492.703V65H482.803ZM496.003 65V0.0999963H499.303V65H496.003ZM509.203 65V0.0999963H512.503V65H509.203ZM515.803 65V0.0999963H525.703V65H515.803ZM529.055 65V0.0999963H532.355V65H529.055ZM535.655 65V0.0999963H545.555V65H535.655ZM548.855 65V0.0999963H552.155V65H548.855ZM562.055 65V0.0999963H565.355V65H562.055ZM568.655 65V0.0999963H578.555V65H568.655ZM581.906 65V0.0999963H585.206V65H581.906ZM588.506 65V0.0999963H598.406V65H588.506ZM601.706 65V0.0999963H605.006V65H601.706ZM614.906 65V0.0999963H624.806V65H614.906ZM628.106 65V0.0999963H631.406V65H628.106ZM634.758 65V0.0999963H638.058V65H634.758ZM641.358 65V0.0999963H644.658V65H641.358ZM647.958 65V0.0999963H657.858V65H647.958ZM661.158 65V0.0999963H664.458V65H661.158ZM674.358 65V0.0999963H684.258V65H674.358ZM687.609 65V0.0999963H690.909V65H687.609ZM694.209 65V0.0999963H704.109V65H694.209ZM707.409 65V0.0999963H710.709V65H707.409ZM714.009 65V0.0999963H723.909V65H714.009ZM733.809 65V0.0999963H737.109V65H733.809Z" fill="black"/>
</svg>
