<svg width="375" height="234" viewBox="0 0 375 234" fill="none" xmlns="http://www.w3.org/2000/svg">
<g filter="url(#filter0_d_515_7603)">
<rect x="4" width="367" height="226" rx="20" fill="white"/>
<rect x="5.5" y="1.5" width="364" height="223" rx="18.5" stroke="#D9D9D9" stroke-width="3"/>
</g>
<path d="M262.239 38H259.068C258.881 37.0881 258.553 36.2869 258.084 35.5966C257.624 34.9062 257.061 34.3267 256.396 33.858C255.74 33.3807 255.011 33.0227 254.21 32.7841C253.409 32.5455 252.574 32.4261 251.705 32.4261C250.119 32.4261 248.683 32.8267 247.396 33.6278C246.118 34.429 245.099 35.6094 244.341 37.169C243.591 38.7287 243.216 40.642 243.216 42.9091C243.216 45.1761 243.591 47.0895 244.341 48.6491C245.099 50.2088 246.118 51.3892 247.396 52.1903C248.683 52.9915 250.119 53.392 251.705 53.392C252.574 53.392 253.409 53.2727 254.21 53.0341C255.011 52.7955 255.74 52.4418 256.396 51.973C257.061 51.4957 257.624 50.9119 258.084 50.2216C258.553 49.5227 258.881 48.7216 259.068 47.8182H262.239C262 49.1562 261.565 50.3537 260.935 51.4105C260.304 52.4673 259.52 53.3665 258.582 54.108C257.645 54.8409 256.592 55.3991 255.425 55.7827C254.266 56.1662 253.026 56.358 251.705 56.358C249.472 56.358 247.486 55.8125 245.747 54.7216C244.009 53.6307 242.641 52.0795 241.643 50.0682C240.646 48.0568 240.148 45.6705 240.148 42.9091C240.148 40.1477 240.646 37.7614 241.643 35.75C242.641 33.7386 244.009 32.1875 245.747 31.0966C247.486 30.0057 249.472 29.4602 251.705 29.4602C253.026 29.4602 254.266 29.652 255.425 30.0355C256.592 30.419 257.645 30.9815 258.582 31.723C259.52 32.456 260.304 33.3509 260.935 34.4077C261.565 35.456 262 36.6534 262.239 38ZM268.436 56H265.112L274.725 29.8182H277.998L287.612 56H284.288L276.464 33.9602H276.26L268.436 56ZM269.663 45.7727H283.061V48.5852H269.663V45.7727ZM291.69 56V29.8182H300.537C302.582 29.8182 304.261 30.1676 305.574 30.8665C306.886 31.5568 307.858 32.5071 308.488 33.7173C309.119 34.9276 309.434 36.304 309.434 37.8466C309.434 39.3892 309.119 40.7571 308.488 41.9503C307.858 43.1435 306.89 44.081 305.586 44.7628C304.282 45.4361 302.616 45.7727 300.588 45.7727H293.429V42.9091H300.485C301.883 42.9091 303.008 42.7045 303.86 42.2955C304.721 41.8864 305.343 41.3068 305.727 40.5568C306.119 39.7983 306.315 38.8949 306.315 37.8466C306.315 36.7983 306.119 35.8821 305.727 35.098C305.335 34.3139 304.708 33.7088 303.848 33.2827C302.987 32.848 301.849 32.6307 300.434 32.6307H294.86V56H291.69ZM304.014 44.2386L310.457 56H306.775L300.434 44.2386H304.014ZM322.797 56H314.717V29.8182H323.155C325.695 29.8182 327.868 30.3423 329.675 31.3906C331.482 32.4304 332.866 33.9261 333.83 35.8778C334.793 37.821 335.274 40.1477 335.274 42.858C335.274 45.5852 334.788 47.9332 333.817 49.902C332.845 51.8622 331.43 53.3707 329.572 54.4276C327.714 55.4759 325.456 56 322.797 56ZM317.888 53.1875H322.592C324.757 53.1875 326.551 52.7699 327.974 51.9347C329.398 51.0994 330.459 49.9105 331.158 48.3679C331.857 46.8253 332.206 44.9886 332.206 42.858C332.206 40.7443 331.861 38.9247 331.17 37.3991C330.48 35.8651 329.449 34.6889 328.077 33.8707C326.705 33.044 324.996 32.6307 322.95 32.6307H317.888V53.1875Z" fill="#D9D9D9"/>
<rect x="41" y="93" width="45" height="40" rx="8" fill="#FFD12E" fill-opacity="0.7"/>
<line x1="41" y1="112.5" x2="51" y2="112.5" stroke="black" stroke-opacity="0.7"/>
<line x1="41" y1="103.5" x2="51" y2="103.5" stroke="black" stroke-opacity="0.7"/>
<line x1="41" y1="121.5" x2="51" y2="121.5" stroke="black" stroke-opacity="0.7"/>
<line x1="77" y1="112.5" x2="86" y2="112.5" stroke="black" stroke-opacity="0.7"/>
<line x1="77" y1="103.5" x2="86" y2="103.5" stroke="black" stroke-opacity="0.7"/>
<line x1="77" y1="121.5" x2="86" y2="121.5" stroke="black" stroke-opacity="0.7"/>
<rect x="51.5" y="92.5" width="25" height="41" rx="4.5" stroke="black" stroke-opacity="0.7"/>
<line x1="51" y1="92" x2="79" y2="92" stroke="white" stroke-width="2"/>
<line x1="50" y1="134" x2="78" y2="134" stroke="white" stroke-width="2"/>
<defs>
<filter id="filter0_d_515_7603" x="0" y="0" width="375" height="234" filterUnits="userSpaceOnUse" color-interpolation-filters="sRGB">
<feFlood flood-opacity="0" result="BackgroundImageFix"/>
<feColorMatrix in="SourceAlpha" type="matrix" values="0 0 0 0 0 0 0 0 0 0 0 0 0 0 0 0 0 0 127 0" result="hardAlpha"/>
<feOffset dy="4"/>
<feGaussianBlur stdDeviation="2"/>
<feComposite in2="hardAlpha" operator="out"/>
<feColorMatrix type="matrix" values="0 0 0 0 0 0 0 0 0 0 0 0 0 0 0 0 0 0 0.25 0"/>
<feBlend mode="normal" in2="BackgroundImageFix" result="effect1_dropShadow_515_7603"/>
<feBlend mode="normal" in="SourceGraphic" in2="effect1_dropShadow_515_7603" result="shape"/>
</filter>
</defs>
</svg>
