<svg width="882" height="4" viewBox="0 0 882 4" fill="none" xmlns="http://www.w3.org/2000/svg">
<path d="M11.9098 0.72017V3.45455H0.773393V0.72017H11.9098ZM28.0084 0.72017V3.45455H16.872V0.72017H28.0084ZM44.107 0.72017V3.45455H32.9707V0.72017H44.107ZM60.2057 0.72017V3.45455H49.0693V0.72017H60.2057ZM76.3043 0.72017V3.45455H65.1679V0.72017H76.3043ZM92.4029 0.72017V3.45455H81.2666V0.72017H92.4029ZM108.502 0.72017V3.45455H97.3652V0.72017H108.502ZM124.6 0.72017V3.45455H113.464V0.72017H124.6ZM140.699 0.72017V3.45455H129.562V0.72017H140.699ZM156.797 0.72017V3.45455H145.661V0.72017H156.797ZM172.896 0.72017V3.45455H161.76V0.72017H172.896ZM188.995 0.72017V3.45455H177.858V0.72017H188.995ZM205.093 0.72017V3.45455H193.957V0.72017H205.093ZM221.192 0.72017V3.45455H210.056V0.72017H221.192ZM237.291 0.72017V3.45455H226.154V0.72017H237.291ZM253.389 0.72017V3.45455H242.253V0.72017H253.389ZM269.488 0.72017V3.45455H258.352V0.72017H269.488ZM285.587 0.72017V3.45455H274.45V0.72017H285.587ZM301.685 0.72017V3.45455H290.549V0.72017H301.685ZM317.784 0.72017V3.45455H306.647V0.72017H317.784ZM333.882 0.72017V3.45455H322.746V0.72017H333.882ZM349.981 0.72017V3.45455H338.845V0.72017H349.981ZM366.08 0.72017V3.45455H354.943V0.72017H366.08ZM382.178 0.72017V3.45455H371.042V0.72017H382.178ZM398.277 0.72017V3.45455H387.141V0.72017H398.277ZM414.376 0.72017V3.45455H403.239V0.72017H414.376ZM430.474 0.72017V3.45455H419.338V0.72017H430.474ZM446.573 0.72017V3.45455H435.436V0.72017H446.573ZM462.671 0.72017V3.45455H451.535V0.72017H462.671ZM478.77 0.72017V3.45455H467.634V0.72017H478.77ZM494.869 0.72017V3.45455H483.732V0.72017H494.869ZM510.967 0.72017V3.45455H499.831V0.72017H510.967ZM527.066 0.72017V3.45455H515.93V0.72017H527.066ZM543.165 0.72017V3.45455H532.028V0.72017H543.165ZM559.263 0.72017V3.45455H548.127V0.72017H559.263ZM575.362 0.72017V3.45455H564.226V0.72017H575.362ZM591.461 0.72017V3.45455H580.324V0.72017H591.461ZM607.559 0.72017V3.45455H596.423V0.72017H607.559ZM623.658 0.72017V3.45455H612.521V0.72017H623.658ZM639.756 0.72017V3.45455H628.62V0.72017H639.756ZM655.855 0.72017V3.45455H644.719V0.72017H655.855ZM671.954 0.72017V3.45455H660.817V0.72017H671.954ZM688.052 0.72017V3.45455H676.916V0.72017H688.052ZM704.151 0.72017V3.45455H693.015V0.72017H704.151ZM720.25 0.72017V3.45455H709.113V0.72017H720.25ZM736.348 0.72017V3.45455H725.212V0.72017H736.348ZM752.447 0.72017V3.45455H741.311V0.72017H752.447ZM768.545 0.72017V3.45455H757.409V0.72017H768.545ZM784.644 0.72017V3.45455H773.508V0.72017H784.644ZM800.743 0.72017V3.45455H789.606V0.72017H800.743ZM816.841 0.72017V3.45455H805.705V0.72017H816.841ZM832.94 0.72017V3.45455H821.804V0.72017H832.94ZM849.039 0.72017V3.45455H837.902V0.72017H849.039ZM865.137 0.72017V3.45455H854.001V0.72017H865.137ZM881.236 0.72017V3.45455H870.1V0.72017H881.236Z" fill="#2C2C2C"/>
</svg>
