<svg width="55" height="52" viewBox="0 0 55 52" fill="none" xmlns="http://www.w3.org/2000/svg">
<path d="M54.0113 20.989C53.7313 21.9186 53.1041 22.5682 52.3873 23.1842C48.8033 26.2978 45.2417 29.4338 41.6689 32.5586C41.3553 32.8386 41.2657 33.0738 41.3553 33.4882C42.4753 38.3266 43.5617 43.1762 44.6705 48.0146C44.9617 49.2802 44.6929 50.3778 43.6289 51.1618C42.5537 51.957 41.4113 51.9234 40.2801 51.2402C36.0353 48.6978 31.7793 46.1666 27.5345 43.6018C27.1201 43.3442 26.8401 43.389 26.4593 43.6242C22.2257 46.1666 17.9921 48.6978 13.7585 51.229C12.3249 52.0802 10.7569 51.845 9.83851 50.6466C9.25611 49.885 9.11051 49.0226 9.32331 48.1042C10.4209 43.2658 11.5185 38.4162 12.6385 33.5778C12.7505 33.1074 12.6721 32.8274 12.3025 32.5026C8.56171 29.2546 4.84331 25.973 1.11371 22.7138C0.150507 21.8738 -0.241493 20.821 0.150507 19.589C0.531307 18.3906 1.40491 17.7074 2.67051 17.5842C5.64971 17.3042 8.61771 17.0354 11.5969 16.7666C13.6577 16.5762 15.7297 16.3858 17.7905 16.2178C18.1153 16.1954 18.2721 16.0498 18.3953 15.7474C20.3441 11.1554 22.3153 6.58581 24.2641 1.99381C24.7569 0.840214 25.5521 0.112214 26.8177 0.0114143C28.1281 -0.100586 29.1809 0.616214 29.7633 1.96021C31.5553 6.16021 33.4033 10.3266 35.1057 14.5602C35.5985 15.781 36.1921 16.2626 37.5249 16.3522C41.9601 16.6546 46.3841 17.1362 50.8081 17.4946C52.4545 17.629 53.5633 18.3122 54.0337 19.925C54.0113 20.2946 54.0113 20.6418 54.0113 20.989Z" fill="#80B9DA"/>
</svg>
