<svg width="56" height="56" viewBox="0 0 56 56" fill="none" xmlns="http://www.w3.org/2000/svg">
<path fill-rule="evenodd" clip-rule="evenodd" d="M28.1308 3C29.6933 4.02243 31.2517 5.05098 32.825 6.05631C32.9643 6.14549 33.2032 6.10954 33.3905 6.0872C34.9918 5.89748 36.5936 5.70793 38.1916 5.49343C38.5988 5.4388 38.8187 5.57301 39.0257 5.92069C39.8396 7.28731 40.6725 8.64346 41.5319 9.98198C41.6918 10.2309 41.978 10.4606 42.2557 10.5613C43.77 11.1107 45.2954 11.6303 46.8272 12.1286C47.1916 12.2471 47.3448 12.4035 47.3803 12.8C47.5278 14.4498 47.7044 16.0976 47.9051 17.7417C47.9356 17.9911 48.1028 18.2644 48.2854 18.4486C49.4216 19.5947 50.5703 20.7292 51.7384 21.8429C52.0208 22.1122 52.0591 22.3391 51.9271 22.691C51.3696 24.1793 50.8192 25.671 50.3128 27.1773C50.2064 27.4941 50.2048 27.9074 50.3111 28.2238C50.8167 29.7304 51.3661 31.2227 51.9243 32.7106C52.0566 33.0632 52.0196 33.2871 51.7376 33.5575C50.5718 34.6736 49.4227 35.8078 48.2957 36.9627C48.0903 37.1732 47.9325 37.502 47.8962 37.7942C47.6946 39.4163 47.5551 41.0463 47.3438 42.6669C47.3146 42.8903 47.0438 43.1826 46.8197 43.2643C45.3064 43.8169 43.7703 44.3065 42.2554 44.854C41.9773 44.9545 41.6895 45.1818 41.5298 45.43C40.6809 46.7493 39.8597 48.0869 39.0556 49.4342C38.8306 49.8113 38.6269 49.9768 38.1358 49.903C36.5848 49.6696 35.0241 49.4946 33.4624 49.3478C33.1283 49.3165 32.7267 49.4216 32.4375 49.5974C31.0782 50.4231 29.7408 51.2858 28.4108 52.1588C28.1073 52.3582 27.8903 52.35 27.5924 52.1552C26.2612 51.2841 24.9248 50.4196 23.5653 49.5939C23.2763 49.4183 22.8734 49.3177 22.5387 49.3493C20.9553 49.4991 19.374 49.6839 17.7995 49.9091C17.3661 49.971 17.1806 49.8267 16.9792 49.4909C16.1833 48.1639 15.382 46.8395 14.5344 45.5457C14.3278 45.2301 13.9758 44.9323 13.6253 44.802C12.1772 44.2632 10.71 43.7727 9.2364 43.3074C8.78226 43.1643 8.64944 42.9313 8.61016 42.4766C8.47158 40.87 8.29303 39.266 8.09423 37.6657C8.06317 37.4163 7.89264 37.1454 7.70991 36.9602C6.57577 35.8118 5.42872 34.6759 4.26438 33.5583C3.9867 33.2918 3.94027 33.0677 4.07431 32.7115C4.64173 31.2035 5.19431 29.6897 5.71391 28.1646C5.80886 27.8857 5.80676 27.5185 5.71129 27.2391C5.19135 25.7143 4.63807 24.2008 4.07274 22.6921C3.94027 22.339 3.98041 22.1121 4.26212 21.8438C5.39957 20.761 6.52638 19.6661 7.61897 18.5388C7.86542 18.2847 8.05933 17.8951 8.10523 17.5453C8.31537 15.9466 8.48013 14.3412 8.62395 12.7348C8.65938 12.3401 8.86708 12.2382 9.1781 12.134C10.6645 11.6362 12.1538 11.1449 13.6213 10.5958C13.971 10.4649 14.3273 10.1773 14.5327 9.86469C15.3703 8.5904 16.1685 7.28906 16.941 5.97392C17.1745 5.57633 17.4235 5.43356 17.877 5.49517C19.4101 5.70322 20.9457 5.89905 22.4849 6.05386C22.8202 6.08737 23.2279 6.01965 23.5109 5.84808C24.9269 4.98971 26.3129 4.08195 27.7069 3.18745C27.7736 3.14469 27.8156 3.06353 27.869 3.00017C27.9563 3 28.0437 3 28.1308 3ZM44.9291 27.7442C44.9621 18.4105 37.3931 10.796 28.0416 10.7555C18.7284 10.7152 11.1097 18.304 11.0699 27.6611C11.0303 36.9674 18.5881 44.5915 27.8928 44.6321C37.2928 44.6732 44.8956 37.1363 44.9291 27.7442Z" fill="#9BDEAC"/>
<path fill-rule="evenodd" clip-rule="evenodd" d="M46 27.5341C45.9881 37.7733 37.6877 46.028 27.4319 45.9999C17.2371 45.9724 8.98512 37.6857 9.00002 27.4902C9.01492 17.306 17.2922 9.02213 27.4759 9.00005C37.6815 8.97722 46.0124 17.3125 46 27.5341Z" fill="#9BDEAC"/>
<path d="M15.1831 30.907C15.4548 30.6353 15.6971 30.3811 15.9002 30.1487C16.0927 30.3619 16.3175 30.5956 16.5689 30.847L17.5889 31.867L17.5964 31.8745L17.6041 31.8818C17.932 32.1961 18.2379 32.4746 18.521 32.7155C18.969 33.1093 19.5375 33.296 20.1549 33.1837L20.1763 33.1798L20.1976 33.175C20.6626 33.0693 21.0812 32.8489 21.4231 32.507L21.4345 32.4955L21.4455 32.4838C21.531 32.3926 21.6078 32.2966 21.676 32.1963V35.7398C21.676 36.362 21.9047 36.9838 22.4913 37.3852L22.5011 37.3918L22.511 37.3983C22.9479 37.6823 23.439 37.8198 23.956 37.8198C24.4735 37.8198 24.9729 37.6885 25.4113 37.3915C26.0073 36.9989 26.256 36.3796 26.256 35.7398V20.4198C26.256 19.7801 26.0073 19.1607 25.4113 18.7682C24.9729 18.4712 24.4735 18.3398 23.956 18.3398C23.439 18.3398 22.9479 18.4774 22.511 18.7614L22.5011 18.7679L22.4913 18.7745C21.9047 19.1759 21.676 19.7977 21.676 20.4198V20.7603C21.6266 20.6551 21.5682 20.5525 21.5 20.4533C21.1305 19.9158 20.5623 19.6998 19.996 19.6998H11.596C11.0297 19.6998 10.4615 19.9158 10.092 20.4533L10.092 20.4533C9.81081 20.8623 9.696 21.3291 9.696 21.7998C9.696 22.2676 9.81584 22.7248 10.092 23.1264C10.4615 23.6639 11.0297 23.8798 11.596 23.8798H13.576V24.3998C13.576 24.7861 13.5518 25.1208 13.5076 25.4078C13.465 25.6849 13.3977 25.9279 13.3105 26.1412L13.303 26.1595L13.2962 26.1781C13.22 26.3877 13.1129 26.6002 12.9702 26.8157C12.824 27.0232 12.6325 27.2491 12.3889 27.4927L12.3826 27.4991L12.3764 27.5055C11.6639 28.2439 10.898 28.9709 10.0783 29.6865L10.0783 29.6865L10.0692 29.6946C9.61974 30.0968 9.34909 30.6426 9.37694 31.2833C9.40001 31.8139 9.59181 32.2992 9.94477 32.6999C10.0968 32.8734 10.2698 33.0243 10.4613 33.1519L10.5131 33.1864L10.5688 33.2143C10.7499 33.3048 10.9366 33.3801 11.1287 33.4377L11.1822 33.4537L11.2371 33.4637C11.5021 33.5119 11.7699 33.5119 12.0349 33.4637C12.3671 33.4033 12.6569 33.2558 12.9007 33.0607L12.915 33.0492L12.9289 33.0373C13.3292 32.6922 13.7161 32.3398 14.0896 31.9802C14.4543 31.6291 14.8187 31.2713 15.1831 30.907ZM21.676 29.7185C21.6059 29.6322 21.5279 29.5507 21.4428 29.4746L21.4375 29.4699L21.4322 29.4652C21.1408 29.2119 20.8201 28.917 20.4696 28.5795L19.776 29.2998L20.4696 28.5795C20.1146 28.2376 19.7457 27.8754 19.3631 27.4927C19.1194 27.2491 18.9279 27.0231 18.7817 26.8156C18.6367 26.5969 18.52 26.3783 18.4291 26.1596C18.3505 25.9392 18.2877 25.6897 18.2444 25.4078C18.2002 25.1208 18.176 24.7861 18.176 24.3998V23.8798H19.996C20.5623 23.8798 21.1305 23.6639 21.5 23.1264C21.568 23.0276 21.6264 22.9254 21.676 22.8205V29.7185ZM35.1974 27.2381C35.7653 26.9303 36.2596 26.6136 36.6264 26.2814C36.9894 26.5878 37.4605 26.8852 38.0009 27.1781C38.5714 27.4905 39.1551 27.7959 39.7519 28.0943L39.7601 28.0984L39.7684 28.1023C40.2122 28.3141 40.6783 28.5333 41.1666 28.7598H32.1609C32.6023 28.5546 33.0253 28.3554 33.4299 28.1623L33.4381 28.1584L33.4463 28.1543C34.0431 27.8559 34.6268 27.5505 35.1974 27.2381ZM44.1591 28.7598H43.7487C44.027 28.5555 44.2525 28.2892 44.4136 27.9671L44.4183 27.9575L44.4229 27.9479C44.6305 27.5096 44.6912 27.0405 44.6333 26.5706C44.5692 25.918 44.1994 25.3981 43.6091 25.117L43.6091 25.1169L43.5996 25.1125C43.0579 24.8615 42.496 24.5971 41.9139 24.3193C41.354 24.0458 40.7666 23.7456 40.1514 23.4184C39.2114 22.9107 38.8991 22.33 38.8991 21.6598V20.8998C38.8991 20.2623 38.6611 19.6279 38.0545 19.2282C37.6161 18.9312 37.1166 18.7998 36.5991 18.7998C36.0771 18.7998 35.5776 18.9332 35.1341 19.2214L35.1242 19.2279L35.1144 19.2345C34.5177 19.6428 34.2991 20.2795 34.2991 20.8998V21.6598C34.2991 22.33 33.9868 22.9107 33.0468 23.4184C32.4328 23.745 31.84 24.0445 31.2684 24.3174L31.2684 24.3173L31.2603 24.3213C30.6927 24.5985 30.1388 24.8622 29.5987 25.1125L29.5986 25.1125L29.5892 25.117C28.9875 25.4035 28.6282 25.932 28.5472 26.5729C28.483 27.0685 28.5592 27.556 28.7847 28.0071L28.7935 28.0246L28.8029 28.0418C28.9567 28.3214 29.1557 28.5629 29.3963 28.7598H29.0391C28.4729 28.7598 27.9046 28.9758 27.5351 29.5133C27.259 29.9149 27.1391 30.3721 27.1391 30.8398C27.1391 31.3076 27.259 31.7647 27.5351 32.1664C27.9046 32.7039 28.4729 32.9198 29.0391 32.9198H34.3191V37.1398C34.3191 37.762 34.5479 38.3838 35.1344 38.7852L35.1442 38.7918L35.1541 38.7983C35.591 39.0823 36.0821 39.2198 36.5991 39.2198C37.1121 39.2198 37.6026 39.0841 38.0344 38.7915C38.6304 38.399 38.8791 37.7796 38.8791 37.1398V32.9198H44.1591C44.7254 32.9198 45.2937 32.7039 45.6632 32.1664C45.9393 31.7647 46.0591 31.3076 46.0591 30.8398C46.0591 30.3721 45.9393 29.9149 45.6632 29.5133C45.2937 28.9758 44.7254 28.7598 44.1591 28.7598Z" fill="#6ABAA4" stroke="white" stroke-width="2"/>
</svg>
