<svg width="56" height="56" viewBox="0 0 56 56" fill="none" xmlns="http://www.w3.org/2000/svg">
<path fill-rule="evenodd" clip-rule="evenodd" d="M55.6694 28.9229C54.7894 30.7725 53.2877 32.1494 52.025 33.7039C49.9065 36.312 47.7121 38.8579 45.5817 41.4565C43.6054 43.8665 41.0464 45.0199 37.9803 45.0408C33.2831 45.0727 28.5852 45.0892 23.8886 45.0272C22.2702 45.0059 21.2727 45.9151 20.2891 46.9546C20.2149 47.0329 20.218 47.2236 20.2424 47.3511C20.4877 48.6309 20.1502 49.7115 19.2138 50.6258C17.5635 52.2369 15.933 53.8685 14.2903 55.4876C13.5963 56.1716 13.0561 56.1713 12.3749 55.4837C8.41302 51.4832 4.45302 47.4809 0.494476 43.4771C-0.160119 42.8149 -0.165353 42.2487 0.482118 41.5946C2.1173 39.9421 3.76004 38.2971 5.39653 36.6459C6.14069 35.8952 7.0256 35.5309 8.0895 35.5739C8.25642 35.5807 8.50927 35.4493 8.5904 35.3064C12.2057 28.9486 20.1038 27.3855 25.7849 29.5753C26.0635 29.6826 26.3825 29.727 26.6829 29.7278C30.4008 29.7379 34.119 29.7516 37.8368 29.7261C39.352 29.7157 40.6589 30.129 41.8523 31.5228C41.9455 31.3146 41.9819 31.1083 42.1021 30.9832C44.1168 28.8891 46.145 26.8076 48.1643 24.7181C50.5924 22.2055 54.2591 22.9247 55.5767 26.1749C55.5961 26.2224 55.6382 26.2608 55.6696 26.3034C55.6694 27.1766 55.6694 28.0498 55.6694 28.9229ZM18.8947 45.2235C18.9989 45.1284 19.1417 45.0172 19.262 44.8853C20.6085 43.4075 22.2678 42.8178 24.2675 42.8463C28.8 42.9106 33.334 42.8779 37.8675 42.8619C40.3213 42.8531 42.3777 41.9728 43.9444 40.0126C45.0894 38.5801 46.2892 37.1915 47.4644 35.7831C49.3374 33.538 51.2172 31.2983 53.0799 29.0444C53.8878 28.067 53.7956 26.7577 52.9014 25.9569C52.0378 25.1832 50.7353 25.2102 49.9006 26.0645C47.5529 28.4674 45.2194 30.8844 42.8886 33.3041C42.7778 33.4192 42.6797 33.6185 42.6916 33.7694C42.8741 36.1004 41.084 38.5602 37.956 38.502C35.2551 38.4515 32.5525 38.4924 29.8505 38.4911C28.8685 38.4906 28.3495 38.1055 28.3514 37.3865C28.3533 36.666 28.8578 36.2984 29.8569 36.2978C32.5589 36.2964 35.2609 36.2989 37.9627 36.2949C38.2336 36.2945 38.5091 36.2865 38.7743 36.2378C39.9009 36.0309 40.6766 34.8932 40.475 33.7663C40.2635 32.5847 39.4 31.9216 38.0321 31.9197C34.1334 31.9142 30.2345 31.9222 26.3359 31.9097C25.982 31.9085 25.6046 31.8582 25.2785 31.7287C22.1839 30.4989 19.0745 30.5349 15.988 31.6829C13.4794 32.616 11.6063 34.3244 10.3599 36.6491C13.2187 39.5208 16.0455 42.361 18.8947 45.2235ZM13.595 53.381C14.906 51.9962 16.2735 50.5414 17.6537 49.0985C18.3233 48.3985 18.3398 47.8639 17.6537 47.1754C14.6924 44.2025 11.729 41.2319 8.76416 38.2629C8.08165 37.5793 7.55021 37.5861 6.85621 38.282C5.54774 39.5937 4.24233 40.9087 2.93707 42.2233C2.84023 42.3209 2.75459 42.4294 2.61137 42.5923C6.22429 46.141 9.81119 49.6643 13.595 53.381Z" fill="#FB4D8D"/>
<path fill-rule="evenodd" clip-rule="evenodd" d="M33.5752 0C34.2472 0.138671 34.9287 0.242345 35.5897 0.421407C41.1337 1.92331 44.7266 6.95336 44.4538 12.81C44.2025 18.2061 39.9919 22.9094 34.5453 23.8779C27.8589 25.0667 21.4609 20.3357 20.6042 13.569C19.7631 6.92536 24.4071 0.927095 31.0336 0.0950717C31.1573 0.0796153 31.277 0.032371 31.3985 0C32.1241 0 32.8496 0 33.5752 0ZM32.5043 21.8551C37.9381 21.8437 42.3071 17.4352 42.2907 11.9798C42.2745 6.56855 37.8748 2.18155 32.4693 2.18679C27.0513 2.19219 22.6669 6.62002 22.6833 12.0697C22.6995 17.4858 27.0961 21.8663 32.5043 21.8551Z" fill="#FB4D8D"/>
<path fill-rule="evenodd" clip-rule="evenodd" d="M24.863 36.1213C25.4622 36.1095 25.941 36.5572 25.9648 37.1512C25.9894 37.7677 25.5176 38.2811 24.912 38.2965C24.3219 38.3116 23.7959 37.7944 23.7969 37.1998C23.7979 36.6186 24.2782 36.1327 24.863 36.1213Z" fill="#FB4D8D"/>
<path fill-rule="evenodd" clip-rule="evenodd" d="M33.3569 6.6161C33.9128 7.00324 34.4281 7.3096 34.8807 7.69091C35.4015 8.12967 35.4318 8.76746 35.0265 9.23903C34.6283 9.70243 34.0058 9.73262 33.466 9.33614C33.2057 9.14513 32.9354 8.95469 32.6428 8.82433C32.2162 8.63404 31.8191 8.76236 31.4996 9.08549C31.1944 9.39389 31.0968 9.77097 31.248 10.1889C31.4045 10.6215 31.7159 10.8618 32.1751 10.9203C32.5334 10.9659 32.9012 10.9903 33.2441 11.0937C34.4939 11.4706 35.4012 12.5964 35.5253 13.8767C35.6537 15.2003 34.994 16.4862 33.8062 17.0884C33.4344 17.2768 33.3081 17.4866 33.3527 17.878C33.3832 18.1469 33.3752 18.4251 33.3466 18.6952C33.2835 19.2856 32.816 19.6791 32.2306 19.6619C31.6756 19.6457 31.1456 19.2303 31.2101 18.674C31.323 17.6988 31.0075 17.103 30.0996 16.7127C29.7265 16.5524 29.429 16.1615 29.159 15.8252C28.7963 15.3732 28.8726 14.7778 29.2775 14.3942C29.7014 13.9926 30.2917 13.9875 30.7561 14.3835C31.0447 14.6297 31.3066 14.9185 31.6253 15.1155C32.0567 15.3821 32.5312 15.3938 32.946 15.0542C33.3159 14.7511 33.4542 14.3475 33.2979 13.8819C33.1269 13.373 32.7381 13.1545 32.2218 13.1091C30.5168 12.9595 29.3883 12.0107 29.0628 10.4626C28.7586 9.01695 29.4562 7.667 30.8988 6.85509C31.033 6.77956 31.1458 6.57236 31.1686 6.41196C31.2117 6.10881 31.1715 5.79487 31.1849 5.48618C31.2133 4.83613 31.6873 4.36384 32.2863 4.37419C32.8685 4.38411 33.3258 4.83949 33.3534 5.46474C33.3717 5.88119 33.3569 6.2991 33.3569 6.6161Z" fill="#FB4D8D"/>
</svg>
