<svg width="56" height="56" viewBox="0 0 56 56" fill="none" xmlns="http://www.w3.org/2000/svg">
<path fill-rule="evenodd" clip-rule="evenodd" d="M31.7462 51.8232C28.3288 52.4908 24.926 52.5503 21.4996 52.0024C21.4353 52.3585 21.4085 52.6918 21.3131 53.0046C20.8276 54.5941 19.7945 55.7001 18.1312 55.8714C16.5773 56.0311 14.9829 56.0241 13.4269 55.8758C11.5549 55.6971 10.1554 54.0123 10.1215 52.1327C10.0933 50.5778 10.128 49.0217 10.096 47.4668C10.0908 47.2153 9.94856 46.8896 9.75892 46.7298C7.53941 44.8621 5.8177 42.625 4.66076 39.9626C4.53216 39.6666 4.38356 39.5324 4.04651 39.5519C3.51122 39.5826 2.97298 39.5591 2.43606 39.5617C0.972734 39.5693 0.0669127 38.7312 0.0273553 37.2535C-0.0127948 35.7546 0.00527993 34.2541 0.00202051 32.7543C0.000390808 31.9766 -0.00523898 31.1985 0.0141693 30.4213C0.0452819 29.163 1.00236 28.2293 2.25902 28.2173C2.87001 28.2116 3.48189 28.1999 4.09184 28.2271C4.40534 28.241 4.54742 28.1184 4.66639 27.8441C5.83059 25.164 7.56208 22.9117 9.79893 21.0349C9.97553 20.8866 10.1006 20.5801 10.1075 20.3429C10.1397 19.2328 10.1311 18.121 10.1182 17.0103C10.1115 16.424 10.3536 16.0208 10.8885 15.7836C13.1167 14.7955 15.2161 15.0114 17.1502 16.4996C17.4646 16.7414 17.6949 16.7552 18.0371 16.624C18.8121 16.3273 19.6038 16.0735 20.4557 15.779C18.4096 12.7027 17.9472 9.416 19.3985 5.96028C20.2655 3.89545 21.7244 2.32337 23.683 1.23695C27.6482 -0.962117 32.5742 -0.162672 35.7068 3.10741C38.5413 6.06621 39.9011 11.9492 35.7917 16.6824C36.4926 16.9807 37.1953 17.2515 37.8739 17.5728C43.2211 20.1057 46.8521 24.108 48.3723 29.8998C48.5996 30.7659 49.5227 31.4259 50.1961 30.7813C49.9897 30.198 49.7224 29.6463 49.6045 29.0642C49.3944 28.0283 49.9373 27.0865 50.8575 26.7214C51.7473 26.3687 52.715 26.635 53.2158 27.4069C53.6134 28.0195 53.7343 28.7061 53.6182 29.4284C53.578 29.6768 53.5164 29.9219 53.4471 30.2521C53.6314 30.1128 53.7465 30.0256 53.8614 29.9387C54.3704 29.5547 54.9597 29.5838 55.3633 30.0125C55.7838 30.4589 55.7769 31.0838 55.3086 31.5548C54.493 32.3752 53.5244 32.6132 52.4037 32.2941C52.2137 32.24 51.9196 32.2646 51.7762 32.3802C50.952 33.0433 50.0426 33.3561 48.8528 33.1509C48.8528 33.8323 48.9005 34.4742 48.8449 35.107C48.4751 39.3198 46.6015 42.7988 43.5894 45.7007C43.2566 46.0213 43.1045 46.3283 43.1126 46.7981C43.1426 48.4826 43.13 50.1678 43.1229 51.853C43.1125 54.307 41.4167 55.9896 38.9529 55.9985C38.0641 56.0016 37.1752 55.9989 36.2864 55.9989C33.5172 55.9989 32.0302 54.6566 31.7462 51.8232ZM40.9388 47.9682C40.5727 48.2343 40.3103 48.4829 40.0002 48.633C39.7332 48.7623 39.4024 48.8614 39.1169 48.8281C38.6567 48.7747 38.3674 48.4365 38.2745 47.9792C38.1798 47.5135 38.3822 47.1588 38.7433 46.8695C39.7827 46.0365 40.8626 45.2473 41.8435 44.3499C46.5118 40.0809 47.9238 34.2963 45.6691 28.6006C43.5214 23.1758 39.3091 20.0839 33.9091 18.3859C33.7626 18.3398 33.5479 18.4089 33.3986 18.4877C29.6996 20.4414 26.1246 20.2424 22.656 17.9068C22.4838 17.7908 22.2004 17.7167 22.0106 17.7705C20.6454 18.1579 19.2854 18.5668 17.935 19.003C17.0862 19.2772 16.8467 19.2344 16.2238 18.5755C15.2755 17.5724 14.1264 17.1746 12.7536 17.4294C12.4355 17.4884 12.327 17.6174 12.3327 17.9404C12.3506 18.977 12.3266 20.0143 12.3444 21.0509C12.3534 21.5766 12.1715 21.9696 11.7478 22.2877C9.24083 24.1699 7.4397 26.5835 6.33358 29.5178C6.0792 30.1927 5.76777 30.398 5.02685 30.4063C4.28637 30.4146 3.54411 30.4371 2.80556 30.3982C2.32657 30.3728 2.15886 30.5056 2.16923 31.0075C2.20983 32.9696 2.20909 34.9323 2.22701 36.8951C2.2282 37.0363 2.25531 37.1773 2.27339 37.3477C3.19447 37.3477 4.08118 37.3453 4.96803 37.3484C5.75829 37.3511 6.05594 37.5551 6.34054 38.3003C7.43081 41.1554 9.18379 43.5191 11.6203 45.3624C12.13 45.7481 12.337 46.2019 12.3285 46.8305C12.306 48.5152 12.3116 50.2003 12.3253 51.8853C12.3336 52.9265 12.9865 53.6671 14.0215 53.7145C15.2038 53.7685 16.3921 53.7677 17.5744 53.7136C18.587 53.6673 19.2161 52.9412 19.2785 51.9364C19.3025 51.5516 19.1945 51.3543 18.8014 51.2113C17.8126 50.8514 16.843 50.4362 15.8768 50.0172C15.1928 49.7207 14.9386 49.134 15.1913 48.5418C15.4513 47.9325 16.073 47.7307 16.7813 48.0297C16.9686 48.1088 17.1529 48.1952 17.3363 48.2829C19.9716 49.5416 22.7653 50.0704 25.669 50.1092C27.9196 50.1391 30.1372 49.8986 32.3238 49.3598C33.4362 49.0857 33.9909 49.53 33.9967 50.6717C33.9989 51.079 33.9898 51.4866 33.9996 51.8937C34.0244 52.9401 34.7391 53.6705 35.7896 53.6879C36.9187 53.7065 38.0486 53.7052 39.1778 53.6871C40.118 53.672 40.8687 53.0775 40.9195 52.1565C40.9943 50.7981 40.9388 49.432 40.9388 47.9682ZM28.4374 17.6154C32.7228 17.6182 36.1867 14.1873 36.2064 9.92047C36.2258 5.75775 32.7911 2.2207 28.7063 2.19685C24.2879 2.17107 20.7722 5.57908 20.7731 9.88669C20.774 14.1479 24.2098 17.6125 28.4374 17.6154Z" fill="#322D2D"/>
<path fill-rule="evenodd" clip-rule="evenodd" d="M28.8244 20.0892C30.903 20.0797 32.9582 20.2543 34.9548 20.8816C35.0955 20.9259 35.24 20.9629 35.3748 21.0214C35.9376 21.2659 36.1966 21.8287 36.0107 22.387C35.8372 22.9077 35.2847 23.2642 34.7287 23.0911C30.6446 21.8204 26.5431 22.228 22.4354 22.9177C21.7115 23.039 21.1612 22.7211 21.0288 22.0987C20.8981 21.4853 21.2914 20.9297 21.9983 20.7859C24.25 20.3275 26.5244 20.08 28.8244 20.0892Z" fill="#322D2D"/>
<path fill-rule="evenodd" clip-rule="evenodd" d="M40.1055 32.5029C39.9858 32.0472 39.8101 31.2225 39.5478 30.4263C39.3315 29.7694 39.4806 29.1793 40.0442 28.9128C40.6149 28.6429 41.2687 28.8325 41.5105 29.4844C41.8217 30.3234 42.1484 31.2064 42.1952 32.0849C42.3729 35.4067 41.293 38.3312 39.1315 40.8556C38.928 41.0934 38.6986 41.3116 38.4668 41.523C37.8184 42.1137 37.1802 42.1567 36.715 41.6529C36.2547 41.1543 36.3686 40.5073 36.9874 39.9191C38.9955 38.0108 39.9107 35.6198 40.1055 32.5029Z" fill="#322D2D"/>
<path fill-rule="evenodd" clip-rule="evenodd" d="M14.5195 28.2396C14.4256 29.1965 14.0654 30.0372 13.0869 30.4816C11.9107 31.0158 10.7192 30.362 10.5488 29.0818C10.4212 28.123 10.7074 27.2898 11.4724 26.6834C12.0758 26.2051 12.7699 26.0233 13.5052 26.3934C14.2364 26.7611 14.4903 27.4143 14.5195 28.2396Z" fill="#322D2D"/>
<path fill-rule="evenodd" clip-rule="evenodd" d="M33.466 42.045C34.0567 42.0496 34.5576 42.5558 34.5524 43.1429C34.5473 43.7336 34.045 44.2252 33.4508 44.2212C32.8581 44.2174 32.3592 43.7154 32.3633 43.1272C32.3675 42.5389 32.8755 42.0401 33.466 42.045Z" fill="#322D2D"/>
<path fill-rule="evenodd" clip-rule="evenodd" d="M29.5911 15.8041C29.4561 16.6696 29.0765 17.1133 28.4205 17.0874C27.7848 17.0624 27.4242 16.6127 27.3298 15.7312C26.825 15.6316 26.3071 15.578 25.8205 15.4244C24.392 14.9732 23.3777 13.7043 23.3478 12.3952C23.3326 11.73 23.7173 11.2511 24.317 11.1887C24.915 11.1265 25.3735 11.4748 25.5143 12.098C25.7383 13.0903 26.225 13.4606 27.3144 13.4351C27.3144 12.5781 27.3144 11.7186 27.3144 10.7867C26.8484 10.6841 26.3514 10.5749 25.8543 10.465C24.5556 10.1779 23.7164 9.39696 23.4251 8.09779C23.1416 6.83299 23.6164 5.80909 24.5768 4.99661C25.2312 4.4431 26.005 4.16042 26.8612 4.10486C27.0059 4.09553 27.1501 4.07745 27.2873 4.06427C27.4489 3.15045 27.7737 2.78035 28.4066 2.76791C29.0607 2.75502 29.3925 3.118 29.5666 3.99108C30.1521 4.17953 30.7379 4.30013 31.2615 4.55066C32.3463 5.06965 33.0185 5.93858 33.1906 7.1533C33.2941 7.88371 32.8988 8.46877 32.2565 8.55263C31.6264 8.6347 31.1345 8.21528 31.0162 7.4948C30.8976 6.77343 30.4498 6.40334 29.5806 6.34289C29.5806 7.2013 29.5806 8.05838 29.5806 8.98716C29.8991 9.06006 30.2502 9.14643 30.6037 9.21977C32.0294 9.51549 32.9326 10.3797 33.1892 11.6997C33.4265 12.9205 32.8463 14.277 31.6692 14.9643C31.0467 15.3285 30.3212 15.5167 29.5911 15.8041ZM27.3317 6.11059C26.7764 6.35845 26.2808 6.48601 25.9158 6.77728C25.6952 6.95314 25.5472 7.41109 25.6072 7.69051C25.6607 7.93897 26.0164 8.17957 26.2924 8.30787C26.5963 8.44921 26.9616 8.45855 27.3316 8.53144C27.3317 7.768 27.3317 7.05211 27.3317 6.11059ZM29.5837 11.2722C29.5837 11.9873 29.5837 12.6992 29.5837 13.413C30.4664 13.3371 31.019 12.8832 31.0313 12.2404C31.043 11.6442 30.6981 11.4099 29.5837 11.2722Z" fill="#322D2D"/>
</svg>
