<svg width="56" height="56" viewBox="0 0 56 56" fill="none" xmlns="http://www.w3.org/2000/svg">
<path fill-rule="evenodd" clip-rule="evenodd" d="M28.1308 3C29.6933 4.02243 31.2517 5.05098 32.825 6.05631C32.9643 6.14549 33.2032 6.10954 33.3905 6.0872C34.9918 5.89748 36.5936 5.70793 38.1916 5.49343C38.5988 5.4388 38.8187 5.57301 39.0257 5.92069C39.8396 7.28731 40.6725 8.64346 41.5319 9.98198C41.6918 10.2309 41.978 10.4606 42.2557 10.5613C43.77 11.1107 45.2954 11.6303 46.8272 12.1286C47.1916 12.2471 47.3448 12.4035 47.3803 12.8C47.5278 14.4498 47.7044 16.0976 47.9051 17.7417C47.9356 17.9911 48.1028 18.2644 48.2854 18.4486C49.4216 19.5947 50.5703 20.7292 51.7384 21.8429C52.0208 22.1122 52.0591 22.3391 51.9271 22.691C51.3696 24.1793 50.8192 25.671 50.3128 27.1773C50.2064 27.4941 50.2048 27.9074 50.3111 28.2238C50.8167 29.7304 51.3661 31.2227 51.9243 32.7106C52.0566 33.0632 52.0196 33.2871 51.7376 33.5575C50.5718 34.6736 49.4227 35.8078 48.2957 36.9627C48.0903 37.1732 47.9325 37.502 47.8962 37.7942C47.6946 39.4163 47.5551 41.0463 47.3438 42.6669C47.3146 42.8903 47.0438 43.1826 46.8197 43.2643C45.3064 43.8169 43.7703 44.3065 42.2554 44.854C41.9773 44.9545 41.6895 45.1818 41.5298 45.43C40.6809 46.7493 39.8597 48.0869 39.0556 49.4342C38.8306 49.8113 38.6269 49.9768 38.1358 49.903C36.5848 49.6696 35.0241 49.4946 33.4624 49.3478C33.1283 49.3165 32.7267 49.4216 32.4375 49.5974C31.0782 50.4231 29.7408 51.2858 28.4108 52.1588C28.1073 52.3582 27.8903 52.35 27.5924 52.1552C26.2612 51.2841 24.9248 50.4196 23.5653 49.5939C23.2763 49.4183 22.8734 49.3177 22.5387 49.3493C20.9553 49.4991 19.374 49.6839 17.7995 49.9091C17.3661 49.971 17.1806 49.8267 16.9792 49.4909C16.1833 48.1639 15.382 46.8395 14.5344 45.5457C14.3278 45.2301 13.9758 44.9323 13.6253 44.802C12.1772 44.2632 10.71 43.7727 9.2364 43.3074C8.78226 43.1643 8.64944 42.9313 8.61016 42.4766C8.47158 40.87 8.29303 39.266 8.09423 37.6657C8.06317 37.4163 7.89264 37.1454 7.70991 36.9602C6.57577 35.8118 5.42872 34.6759 4.26438 33.5583C3.9867 33.2918 3.94027 33.0677 4.07431 32.7115C4.64173 31.2035 5.19431 29.6897 5.71391 28.1646C5.80886 27.8857 5.80676 27.5185 5.71129 27.2391C5.19135 25.7143 4.63807 24.2008 4.07274 22.6921C3.94027 22.339 3.98041 22.1121 4.26212 21.8438C5.39957 20.761 6.52638 19.6661 7.61897 18.5388C7.86542 18.2847 8.05933 17.8951 8.10523 17.5453C8.31537 15.9466 8.48013 14.3412 8.62395 12.7348C8.65938 12.3401 8.86708 12.2382 9.1781 12.134C10.6645 11.6362 12.1538 11.1449 13.6213 10.5958C13.971 10.4649 14.3273 10.1773 14.5327 9.86469C15.3703 8.5904 16.1685 7.28906 16.941 5.97392C17.1745 5.57633 17.4235 5.43356 17.877 5.49517C19.4101 5.70322 20.9457 5.89905 22.4849 6.05386C22.8202 6.08737 23.2279 6.01965 23.5109 5.84808C24.9269 4.98971 26.3129 4.08195 27.7069 3.18745C27.7736 3.14469 27.8156 3.06353 27.869 3.00017C27.9563 3 28.0437 3 28.1308 3ZM44.9291 27.7442C44.9621 18.4105 37.3931 10.796 28.0416 10.7555C18.7284 10.7152 11.1097 18.304 11.0699 27.6611C11.0303 36.9674 18.5881 44.5915 27.8928 44.6321C37.2928 44.6732 44.8956 37.1363 44.9291 27.7442Z" fill="#9BDEAC"/>
<path fill-rule="evenodd" clip-rule="evenodd" d="M46 27.5341C45.9881 37.7733 37.6877 46.028 27.4319 45.9999C17.2371 45.9724 8.98512 37.6857 9.00002 27.4902C9.01492 17.306 17.2922 9.02213 27.4759 9.00005C37.6815 8.97722 46.0124 17.3125 46 27.5341Z" fill="#9BDEAC"/>
<mask id="path-3-outside-1_1147_9175" maskUnits="userSpaceOnUse" x="8.58984" y="17.0596" width="39" height="24" fill="black">
<rect fill="white" x="8.58984" y="17.0596" width="39" height="24"/>
<path d="M11.6765 22.5396C11.3698 22.5396 11.1432 22.4329 10.9965 22.2196C10.8498 22.0062 10.7765 21.7529 10.7765 21.4596C10.7765 21.1529 10.8498 20.8929 10.9965 20.6796C11.1432 20.4662 11.3698 20.3596 11.6765 20.3596H17.4565C18.0965 20.3596 18.5365 20.4796 18.7765 20.7196C19.0298 20.9596 19.1565 21.3929 19.1565 22.0196V23.5396C19.1565 24.2862 19.0765 24.9196 18.9165 25.4396C18.7565 25.9462 18.4298 26.4262 17.9365 26.8796C17.4432 27.3329 16.7432 27.8062 15.8365 28.2996C14.9298 28.7929 13.7298 29.3929 12.2365 30.0996C11.9165 30.2462 11.6165 30.2462 11.3365 30.0996C11.0565 29.9529 10.8565 29.7462 10.7365 29.4796C10.6698 29.3596 10.6232 29.2262 10.5965 29.0796C10.5832 28.9329 10.5898 28.7929 10.6165 28.6596C10.6432 28.5129 10.6965 28.3796 10.7765 28.2596C10.8698 28.1396 11.0032 28.0396 11.1765 27.9596C12.5098 27.3462 13.5432 26.8462 14.2765 26.4596C15.0098 26.0596 15.5498 25.7129 15.8965 25.4196C16.2432 25.1129 16.4498 24.8196 16.5165 24.5396C16.5832 24.2462 16.6165 23.8862 16.6165 23.4596V22.9996C16.6165 22.6929 16.4632 22.5396 16.1565 22.5396H11.6765ZM25.3765 29.2796C25.3765 29.6529 25.2432 29.9262 24.9765 30.0996C24.7232 30.2729 24.4365 30.3596 24.1165 30.3596C23.7965 30.3596 23.5032 30.2729 23.2365 30.0996C22.9832 29.9262 22.8565 29.6529 22.8565 29.2796V27.9396H20.6165C20.3098 27.9396 20.0832 27.8329 19.9365 27.6196C19.8032 27.4062 19.7365 27.1462 19.7365 26.8396C19.7365 26.5462 19.8032 26.2929 19.9365 26.0796C20.0832 25.8662 20.3098 25.7596 20.6165 25.7596H22.8565V24.1796H20.7765C20.4698 24.1796 20.2432 24.0729 20.0965 23.8596C19.9632 23.6462 19.8965 23.3862 19.8965 23.0796C19.8965 22.7862 19.9632 22.5329 20.0965 22.3196C20.2432 22.1062 20.4698 21.9996 20.7765 21.9996H22.8565V20.4196C22.8565 20.0462 22.9832 19.7729 23.2365 19.5996C23.5032 19.4262 23.7965 19.3396 24.1165 19.3396C24.4365 19.3396 24.7232 19.4262 24.9765 19.5996C25.2432 19.7729 25.3765 20.0462 25.3765 20.4196V29.2796ZM13.3565 34.3596C13.3565 33.0662 13.8898 32.0996 14.9565 31.4596C16.0365 30.8062 17.5165 30.4796 19.3965 30.4796C21.2765 30.4796 22.7498 30.8062 23.8165 31.4596C24.8965 32.0996 25.4365 33.0662 25.4365 34.3596C25.4365 35.6662 24.8965 36.6396 23.8165 37.2796C22.7498 37.9196 21.2765 38.2396 19.3965 38.2396C17.5165 38.2396 16.0365 37.9196 14.9565 37.2796C13.8898 36.6396 13.3565 35.6662 13.3565 34.3596ZM22.8965 34.3596C22.8965 33.8129 22.6232 33.3729 22.0765 33.0396C21.5432 32.6929 20.6498 32.5196 19.3965 32.5196C18.1298 32.5196 17.2298 32.6929 16.6965 33.0396C16.1632 33.3729 15.8965 33.8129 15.8965 34.3596C15.8965 34.9062 16.1632 35.3462 16.6965 35.6796C17.2298 36.0262 18.1298 36.1996 19.3965 36.1996C20.6498 36.1996 21.5432 36.0262 22.0765 35.6796C22.6232 35.3462 22.8965 34.9062 22.8965 34.3596Z"/>
<path d="M30.9796 27.8396C30.9796 26.6929 31.4796 25.8329 32.4796 25.2596C33.4796 24.6729 34.853 24.3796 36.5996 24.3796C37.4663 24.3796 38.2463 24.4529 38.9396 24.5996C39.633 24.7462 40.2196 24.9662 40.6996 25.2596C41.193 25.5396 41.5663 25.8996 41.8196 26.3396C42.0863 26.7662 42.2196 27.2662 42.2196 27.8396C42.2196 28.4129 42.0863 28.9196 41.8196 29.3596C41.5663 29.7862 41.193 30.1462 40.6996 30.4396C40.2196 30.7196 39.633 30.9329 38.9396 31.0796C38.2463 31.2262 37.4663 31.2996 36.5996 31.2996C34.853 31.2996 33.4796 31.0129 32.4796 30.4396C31.4796 29.8529 30.9796 28.9862 30.9796 27.8396ZM39.7596 27.8396C39.7596 27.3862 39.5196 27.0262 39.0396 26.7596C38.573 26.4929 37.7596 26.3596 36.5996 26.3596C35.4396 26.3596 34.6196 26.4929 34.1396 26.7596C33.673 27.0262 33.4396 27.3862 33.4396 27.8396C33.4396 28.2929 33.673 28.6529 34.1396 28.9196C34.6196 29.1862 35.4396 29.3196 36.5996 29.3196C37.7596 29.3196 38.573 29.1862 39.0396 28.9196C39.5196 28.6529 39.7596 28.2929 39.7596 27.8396ZM30.3796 23.4596C30.073 23.4596 29.8463 23.3529 29.6996 23.1396C29.553 22.9262 29.4796 22.6729 29.4796 22.3796C29.4796 22.0862 29.553 21.8329 29.6996 21.6196C29.8463 21.4062 30.073 21.2996 30.3796 21.2996H35.2996V20.1596C35.2996 19.7862 35.4263 19.5129 35.6796 19.3396C35.9463 19.1529 36.253 19.0596 36.5996 19.0596C36.9463 19.0596 37.2463 19.1529 37.4996 19.3396C37.7663 19.5129 37.8996 19.7862 37.8996 20.1596V21.2996H42.8196C43.1263 21.2996 43.353 21.4062 43.4996 21.6196C43.6463 21.8329 43.7196 22.0862 43.7196 22.3796C43.7196 22.6729 43.6463 22.9262 43.4996 23.1396C43.353 23.3529 43.1263 23.4596 42.8196 23.4596H30.3796ZM37.8796 30.0796V33.0196H44.1596C44.4663 33.0196 44.693 33.1262 44.8396 33.3396C44.9863 33.5529 45.0596 33.8062 45.0596 34.0996C45.0596 34.3929 44.9863 34.6462 44.8396 34.8596C44.693 35.0729 44.4663 35.1796 44.1596 35.1796H29.0396C28.733 35.1796 28.5063 35.0729 28.3596 34.8596C28.213 34.6462 28.1396 34.3929 28.1396 34.0996C28.1396 33.8062 28.213 33.5529 28.3596 33.3396C28.5063 33.1262 28.733 33.0196 29.0396 33.0196H35.3196V30.0796H37.8796Z"/>
</mask>
<path d="M11.6765 22.5396C11.3698 22.5396 11.1432 22.4329 10.9965 22.2196C10.8498 22.0062 10.7765 21.7529 10.7765 21.4596C10.7765 21.1529 10.8498 20.8929 10.9965 20.6796C11.1432 20.4662 11.3698 20.3596 11.6765 20.3596H17.4565C18.0965 20.3596 18.5365 20.4796 18.7765 20.7196C19.0298 20.9596 19.1565 21.3929 19.1565 22.0196V23.5396C19.1565 24.2862 19.0765 24.9196 18.9165 25.4396C18.7565 25.9462 18.4298 26.4262 17.9365 26.8796C17.4432 27.3329 16.7432 27.8062 15.8365 28.2996C14.9298 28.7929 13.7298 29.3929 12.2365 30.0996C11.9165 30.2462 11.6165 30.2462 11.3365 30.0996C11.0565 29.9529 10.8565 29.7462 10.7365 29.4796C10.6698 29.3596 10.6232 29.2262 10.5965 29.0796C10.5832 28.9329 10.5898 28.7929 10.6165 28.6596C10.6432 28.5129 10.6965 28.3796 10.7765 28.2596C10.8698 28.1396 11.0032 28.0396 11.1765 27.9596C12.5098 27.3462 13.5432 26.8462 14.2765 26.4596C15.0098 26.0596 15.5498 25.7129 15.8965 25.4196C16.2432 25.1129 16.4498 24.8196 16.5165 24.5396C16.5832 24.2462 16.6165 23.8862 16.6165 23.4596V22.9996C16.6165 22.6929 16.4632 22.5396 16.1565 22.5396H11.6765ZM25.3765 29.2796C25.3765 29.6529 25.2432 29.9262 24.9765 30.0996C24.7232 30.2729 24.4365 30.3596 24.1165 30.3596C23.7965 30.3596 23.5032 30.2729 23.2365 30.0996C22.9832 29.9262 22.8565 29.6529 22.8565 29.2796V27.9396H20.6165C20.3098 27.9396 20.0832 27.8329 19.9365 27.6196C19.8032 27.4062 19.7365 27.1462 19.7365 26.8396C19.7365 26.5462 19.8032 26.2929 19.9365 26.0796C20.0832 25.8662 20.3098 25.7596 20.6165 25.7596H22.8565V24.1796H20.7765C20.4698 24.1796 20.2432 24.0729 20.0965 23.8596C19.9632 23.6462 19.8965 23.3862 19.8965 23.0796C19.8965 22.7862 19.9632 22.5329 20.0965 22.3196C20.2432 22.1062 20.4698 21.9996 20.7765 21.9996H22.8565V20.4196C22.8565 20.0462 22.9832 19.7729 23.2365 19.5996C23.5032 19.4262 23.7965 19.3396 24.1165 19.3396C24.4365 19.3396 24.7232 19.4262 24.9765 19.5996C25.2432 19.7729 25.3765 20.0462 25.3765 20.4196V29.2796ZM13.3565 34.3596C13.3565 33.0662 13.8898 32.0996 14.9565 31.4596C16.0365 30.8062 17.5165 30.4796 19.3965 30.4796C21.2765 30.4796 22.7498 30.8062 23.8165 31.4596C24.8965 32.0996 25.4365 33.0662 25.4365 34.3596C25.4365 35.6662 24.8965 36.6396 23.8165 37.2796C22.7498 37.9196 21.2765 38.2396 19.3965 38.2396C17.5165 38.2396 16.0365 37.9196 14.9565 37.2796C13.8898 36.6396 13.3565 35.6662 13.3565 34.3596ZM22.8965 34.3596C22.8965 33.8129 22.6232 33.3729 22.0765 33.0396C21.5432 32.6929 20.6498 32.5196 19.3965 32.5196C18.1298 32.5196 17.2298 32.6929 16.6965 33.0396C16.1632 33.3729 15.8965 33.8129 15.8965 34.3596C15.8965 34.9062 16.1632 35.3462 16.6965 35.6796C17.2298 36.0262 18.1298 36.1996 19.3965 36.1996C20.6498 36.1996 21.5432 36.0262 22.0765 35.6796C22.6232 35.3462 22.8965 34.9062 22.8965 34.3596Z" fill="#6ABAA4"/>
<path d="M30.9796 27.8396C30.9796 26.6929 31.4796 25.8329 32.4796 25.2596C33.4796 24.6729 34.853 24.3796 36.5996 24.3796C37.4663 24.3796 38.2463 24.4529 38.9396 24.5996C39.633 24.7462 40.2196 24.9662 40.6996 25.2596C41.193 25.5396 41.5663 25.8996 41.8196 26.3396C42.0863 26.7662 42.2196 27.2662 42.2196 27.8396C42.2196 28.4129 42.0863 28.9196 41.8196 29.3596C41.5663 29.7862 41.193 30.1462 40.6996 30.4396C40.2196 30.7196 39.633 30.9329 38.9396 31.0796C38.2463 31.2262 37.4663 31.2996 36.5996 31.2996C34.853 31.2996 33.4796 31.0129 32.4796 30.4396C31.4796 29.8529 30.9796 28.9862 30.9796 27.8396ZM39.7596 27.8396C39.7596 27.3862 39.5196 27.0262 39.0396 26.7596C38.573 26.4929 37.7596 26.3596 36.5996 26.3596C35.4396 26.3596 34.6196 26.4929 34.1396 26.7596C33.673 27.0262 33.4396 27.3862 33.4396 27.8396C33.4396 28.2929 33.673 28.6529 34.1396 28.9196C34.6196 29.1862 35.4396 29.3196 36.5996 29.3196C37.7596 29.3196 38.573 29.1862 39.0396 28.9196C39.5196 28.6529 39.7596 28.2929 39.7596 27.8396ZM30.3796 23.4596C30.073 23.4596 29.8463 23.3529 29.6996 23.1396C29.553 22.9262 29.4796 22.6729 29.4796 22.3796C29.4796 22.0862 29.553 21.8329 29.6996 21.6196C29.8463 21.4062 30.073 21.2996 30.3796 21.2996H35.2996V20.1596C35.2996 19.7862 35.4263 19.5129 35.6796 19.3396C35.9463 19.1529 36.253 19.0596 36.5996 19.0596C36.9463 19.0596 37.2463 19.1529 37.4996 19.3396C37.7663 19.5129 37.8996 19.7862 37.8996 20.1596V21.2996H42.8196C43.1263 21.2996 43.353 21.4062 43.4996 21.6196C43.6463 21.8329 43.7196 22.0862 43.7196 22.3796C43.7196 22.6729 43.6463 22.9262 43.4996 23.1396C43.353 23.3529 43.1263 23.4596 42.8196 23.4596H30.3796ZM37.8796 30.0796V33.0196H44.1596C44.4663 33.0196 44.693 33.1262 44.8396 33.3396C44.9863 33.5529 45.0596 33.8062 45.0596 34.0996C45.0596 34.3929 44.9863 34.6462 44.8396 34.8596C44.693 35.0729 44.4663 35.1796 44.1596 35.1796H29.0396C28.733 35.1796 28.5063 35.0729 28.3596 34.8596C28.213 34.6462 28.1396 34.3929 28.1396 34.0996C28.1396 33.8062 28.213 33.5529 28.3596 33.3396C28.5063 33.1262 28.733 33.0196 29.0396 33.0196H35.3196V30.0796H37.8796Z" fill="#6ABAA4"/>
<path d="M11.6765 22.5396C11.3698 22.5396 11.1432 22.4329 10.9965 22.2196C10.8498 22.0062 10.7765 21.7529 10.7765 21.4596C10.7765 21.1529 10.8498 20.8929 10.9965 20.6796C11.1432 20.4662 11.3698 20.3596 11.6765 20.3596H17.4565C18.0965 20.3596 18.5365 20.4796 18.7765 20.7196C19.0298 20.9596 19.1565 21.3929 19.1565 22.0196V23.5396C19.1565 24.2862 19.0765 24.9196 18.9165 25.4396C18.7565 25.9462 18.4298 26.4262 17.9365 26.8796C17.4432 27.3329 16.7432 27.8062 15.8365 28.2996C14.9298 28.7929 13.7298 29.3929 12.2365 30.0996C11.9165 30.2462 11.6165 30.2462 11.3365 30.0996C11.0565 29.9529 10.8565 29.7462 10.7365 29.4796C10.6698 29.3596 10.6232 29.2262 10.5965 29.0796C10.5832 28.9329 10.5898 28.7929 10.6165 28.6596C10.6432 28.5129 10.6965 28.3796 10.7765 28.2596C10.8698 28.1396 11.0032 28.0396 11.1765 27.9596C12.5098 27.3462 13.5432 26.8462 14.2765 26.4596C15.0098 26.0596 15.5498 25.7129 15.8965 25.4196C16.2432 25.1129 16.4498 24.8196 16.5165 24.5396C16.5832 24.2462 16.6165 23.8862 16.6165 23.4596V22.9996C16.6165 22.6929 16.4632 22.5396 16.1565 22.5396H11.6765ZM25.3765 29.2796C25.3765 29.6529 25.2432 29.9262 24.9765 30.0996C24.7232 30.2729 24.4365 30.3596 24.1165 30.3596C23.7965 30.3596 23.5032 30.2729 23.2365 30.0996C22.9832 29.9262 22.8565 29.6529 22.8565 29.2796V27.9396H20.6165C20.3098 27.9396 20.0832 27.8329 19.9365 27.6196C19.8032 27.4062 19.7365 27.1462 19.7365 26.8396C19.7365 26.5462 19.8032 26.2929 19.9365 26.0796C20.0832 25.8662 20.3098 25.7596 20.6165 25.7596H22.8565V24.1796H20.7765C20.4698 24.1796 20.2432 24.0729 20.0965 23.8596C19.9632 23.6462 19.8965 23.3862 19.8965 23.0796C19.8965 22.7862 19.9632 22.5329 20.0965 22.3196C20.2432 22.1062 20.4698 21.9996 20.7765 21.9996H22.8565V20.4196C22.8565 20.0462 22.9832 19.7729 23.2365 19.5996C23.5032 19.4262 23.7965 19.3396 24.1165 19.3396C24.4365 19.3396 24.7232 19.4262 24.9765 19.5996C25.2432 19.7729 25.3765 20.0462 25.3765 20.4196V29.2796ZM13.3565 34.3596C13.3565 33.0662 13.8898 32.0996 14.9565 31.4596C16.0365 30.8062 17.5165 30.4796 19.3965 30.4796C21.2765 30.4796 22.7498 30.8062 23.8165 31.4596C24.8965 32.0996 25.4365 33.0662 25.4365 34.3596C25.4365 35.6662 24.8965 36.6396 23.8165 37.2796C22.7498 37.9196 21.2765 38.2396 19.3965 38.2396C17.5165 38.2396 16.0365 37.9196 14.9565 37.2796C13.8898 36.6396 13.3565 35.6662 13.3565 34.3596ZM22.8965 34.3596C22.8965 33.8129 22.6232 33.3729 22.0765 33.0396C21.5432 32.6929 20.6498 32.5196 19.3965 32.5196C18.1298 32.5196 17.2298 32.6929 16.6965 33.0396C16.1632 33.3729 15.8965 33.8129 15.8965 34.3596C15.8965 34.9062 16.1632 35.3462 16.6965 35.6796C17.2298 36.0262 18.1298 36.1996 19.3965 36.1996C20.6498 36.1996 21.5432 36.0262 22.0765 35.6796C22.6232 35.3462 22.8965 34.9062 22.8965 34.3596Z" stroke="white" stroke-width="4" mask="url(#path-3-outside-1_1147_9175)"/>
<path d="M30.9796 27.8396C30.9796 26.6929 31.4796 25.8329 32.4796 25.2596C33.4796 24.6729 34.853 24.3796 36.5996 24.3796C37.4663 24.3796 38.2463 24.4529 38.9396 24.5996C39.633 24.7462 40.2196 24.9662 40.6996 25.2596C41.193 25.5396 41.5663 25.8996 41.8196 26.3396C42.0863 26.7662 42.2196 27.2662 42.2196 27.8396C42.2196 28.4129 42.0863 28.9196 41.8196 29.3596C41.5663 29.7862 41.193 30.1462 40.6996 30.4396C40.2196 30.7196 39.633 30.9329 38.9396 31.0796C38.2463 31.2262 37.4663 31.2996 36.5996 31.2996C34.853 31.2996 33.4796 31.0129 32.4796 30.4396C31.4796 29.8529 30.9796 28.9862 30.9796 27.8396ZM39.7596 27.8396C39.7596 27.3862 39.5196 27.0262 39.0396 26.7596C38.573 26.4929 37.7596 26.3596 36.5996 26.3596C35.4396 26.3596 34.6196 26.4929 34.1396 26.7596C33.673 27.0262 33.4396 27.3862 33.4396 27.8396C33.4396 28.2929 33.673 28.6529 34.1396 28.9196C34.6196 29.1862 35.4396 29.3196 36.5996 29.3196C37.7596 29.3196 38.573 29.1862 39.0396 28.9196C39.5196 28.6529 39.7596 28.2929 39.7596 27.8396ZM30.3796 23.4596C30.073 23.4596 29.8463 23.3529 29.6996 23.1396C29.553 22.9262 29.4796 22.6729 29.4796 22.3796C29.4796 22.0862 29.553 21.8329 29.6996 21.6196C29.8463 21.4062 30.073 21.2996 30.3796 21.2996H35.2996V20.1596C35.2996 19.7862 35.4263 19.5129 35.6796 19.3396C35.9463 19.1529 36.253 19.0596 36.5996 19.0596C36.9463 19.0596 37.2463 19.1529 37.4996 19.3396C37.7663 19.5129 37.8996 19.7862 37.8996 20.1596V21.2996H42.8196C43.1263 21.2996 43.353 21.4062 43.4996 21.6196C43.6463 21.8329 43.7196 22.0862 43.7196 22.3796C43.7196 22.6729 43.6463 22.9262 43.4996 23.1396C43.353 23.3529 43.1263 23.4596 42.8196 23.4596H30.3796ZM37.8796 30.0796V33.0196H44.1596C44.4663 33.0196 44.693 33.1262 44.8396 33.3396C44.9863 33.5529 45.0596 33.8062 45.0596 34.0996C45.0596 34.3929 44.9863 34.6462 44.8396 34.8596C44.693 35.0729 44.4663 35.1796 44.1596 35.1796H29.0396C28.733 35.1796 28.5063 35.0729 28.3596 34.8596C28.213 34.6462 28.1396 34.3929 28.1396 34.0996C28.1396 33.8062 28.213 33.5529 28.3596 33.3396C28.5063 33.1262 28.733 33.0196 29.0396 33.0196H35.3196V30.0796H37.8796Z" stroke="white" stroke-width="4" mask="url(#path-3-outside-1_1147_9175)"/>
</svg>
