<svg width="56" height="56" viewBox="0 0 56 56" fill="none" xmlns="http://www.w3.org/2000/svg">
<path fill-rule="evenodd" clip-rule="evenodd" d="M28.1308 3C29.6933 4.02243 31.2517 5.05098 32.825 6.05631C32.9643 6.14549 33.2032 6.10954 33.3905 6.0872C34.9918 5.89748 36.5936 5.70793 38.1916 5.49343C38.5988 5.4388 38.8187 5.57301 39.0257 5.92069C39.8396 7.28731 40.6725 8.64346 41.5319 9.98198C41.6918 10.2309 41.978 10.4606 42.2557 10.5613C43.77 11.1107 45.2954 11.6303 46.8272 12.1286C47.1916 12.2471 47.3448 12.4035 47.3803 12.8C47.5278 14.4498 47.7044 16.0976 47.9051 17.7417C47.9356 17.9911 48.1028 18.2644 48.2854 18.4486C49.4216 19.5947 50.5703 20.7292 51.7384 21.8429C52.0208 22.1122 52.0591 22.3391 51.9271 22.691C51.3696 24.1793 50.8192 25.671 50.3128 27.1773C50.2064 27.4941 50.2048 27.9074 50.3111 28.2238C50.8167 29.7304 51.3661 31.2227 51.9243 32.7106C52.0566 33.0632 52.0196 33.2871 51.7376 33.5575C50.5718 34.6736 49.4227 35.8078 48.2957 36.9627C48.0903 37.1732 47.9325 37.502 47.8962 37.7942C47.6946 39.4163 47.5551 41.0463 47.3438 42.6669C47.3146 42.8903 47.0438 43.1826 46.8197 43.2643C45.3064 43.8169 43.7703 44.3065 42.2554 44.854C41.9773 44.9545 41.6895 45.1818 41.5298 45.43C40.6809 46.7493 39.8597 48.0869 39.0556 49.4342C38.8306 49.8113 38.6269 49.9768 38.1358 49.903C36.5848 49.6696 35.0241 49.4946 33.4624 49.3478C33.1283 49.3165 32.7267 49.4216 32.4375 49.5974C31.0782 50.4231 29.7408 51.2858 28.4108 52.1588C28.1073 52.3582 27.8903 52.35 27.5924 52.1552C26.2612 51.2841 24.9248 50.4196 23.5653 49.5939C23.2763 49.4183 22.8734 49.3177 22.5387 49.3493C20.9553 49.4991 19.374 49.6839 17.7995 49.9091C17.3661 49.971 17.1806 49.8267 16.9792 49.4909C16.1833 48.1639 15.382 46.8395 14.5344 45.5457C14.3278 45.2301 13.9758 44.9323 13.6253 44.802C12.1772 44.2632 10.71 43.7727 9.2364 43.3074C8.78226 43.1643 8.64944 42.9313 8.61016 42.4766C8.47158 40.87 8.29303 39.266 8.09423 37.6657C8.06317 37.4163 7.89264 37.1454 7.70991 36.9602C6.57577 35.8118 5.42872 34.6759 4.26438 33.5583C3.9867 33.2918 3.94027 33.0677 4.07431 32.7115C4.64173 31.2035 5.19431 29.6897 5.71391 28.1646C5.80886 27.8857 5.80676 27.5185 5.71129 27.2391C5.19135 25.7143 4.63807 24.2008 4.07274 22.6921C3.94027 22.339 3.98041 22.1121 4.26212 21.8438C5.39957 20.761 6.52638 19.6661 7.61897 18.5388C7.86542 18.2847 8.05933 17.8951 8.10523 17.5453C8.31537 15.9466 8.48013 14.3412 8.62395 12.7348C8.65938 12.3401 8.86708 12.2382 9.1781 12.134C10.6645 11.6362 12.1538 11.1449 13.6213 10.5958C13.971 10.4649 14.3273 10.1773 14.5327 9.86469C15.3703 8.5904 16.1685 7.28906 16.941 5.97392C17.1745 5.57633 17.4235 5.43356 17.877 5.49517C19.4101 5.70322 20.9457 5.89905 22.4849 6.05386C22.8202 6.08737 23.2279 6.01965 23.5109 5.84808C24.9269 4.98971 26.3129 4.08195 27.7069 3.18745C27.7736 3.14469 27.8156 3.06353 27.869 3.00017C27.9563 3 28.0437 3 28.1308 3ZM44.9291 27.7442C44.9621 18.4105 37.3931 10.796 28.0416 10.7555C18.7284 10.7152 11.1097 18.304 11.0699 27.6611C11.0303 36.9674 18.5881 44.5915 27.8928 44.6321C37.2928 44.6732 44.8956 37.1363 44.9291 27.7442Z" fill="#9BDEAC"/>
<path fill-rule="evenodd" clip-rule="evenodd" d="M46 27.5341C45.9881 37.7733 37.6877 46.028 27.4319 45.9999C17.2371 45.9724 8.98512 37.6857 9.00002 27.4902C9.01492 17.306 17.2922 9.02213 27.4759 9.00005C37.6815 8.97722 46.0124 17.3125 46 27.5341Z" fill="#9BDEAC"/>
<mask id="path-3-outside-1_1147_9165" maskUnits="userSpaceOnUse" x="7.9375" y="17.3398" width="38" height="23" fill="black">
<rect fill="white" x="7.9375" y="17.3398" width="38" height="23"/>
<path d="M12.8575 22.1798C12.5508 22.1798 12.3242 22.0732 12.1775 21.8598C12.0308 21.6465 11.9575 21.3932 11.9575 21.0998C11.9575 20.8198 12.0308 20.5732 12.1775 20.3598C12.3242 20.1465 12.5508 20.0398 12.8575 20.0398H23.9375C24.2442 20.0398 24.4708 20.1465 24.6175 20.3598C24.7642 20.5732 24.8375 20.8198 24.8375 21.0998C24.8375 21.3932 24.7642 21.6465 24.6175 21.8598C24.4708 22.0732 24.2442 22.1798 23.9375 22.1798H19.6975V22.3598C19.6975 22.7065 19.8175 23.0132 20.0575 23.2798C20.3108 23.5332 20.7375 23.7865 21.3375 24.0398C21.9508 24.2932 22.5242 24.5265 23.0575 24.7398C23.5908 24.9398 24.1508 25.1398 24.7375 25.3398C25.0175 25.4465 25.2042 25.6332 25.2975 25.8998C25.3908 26.1665 25.3842 26.4332 25.2775 26.6998C25.1575 27.0198 24.9708 27.2532 24.7175 27.3998C24.4775 27.5332 24.1842 27.5398 23.8375 27.4198C23.3175 27.2332 22.8042 27.0465 22.2975 26.8598C21.8042 26.6732 21.2975 26.4732 20.7775 26.2598C20.3242 26.0732 19.9508 25.9065 19.6575 25.7598C19.3775 25.5998 19.1508 25.4532 18.9775 25.3198C18.8042 25.1865 18.6775 25.0598 18.5975 24.9398C18.5175 24.8198 18.4575 24.6998 18.4175 24.5798H18.3975C18.3575 24.7132 18.2908 24.8465 18.1975 24.9798C18.1175 25.0998 17.9908 25.2332 17.8175 25.3798C17.6442 25.5132 17.4108 25.6598 17.1175 25.8198C16.8375 25.9665 16.4708 26.1332 16.0175 26.3198C15.4975 26.5332 14.9842 26.7332 14.4775 26.9198C13.9842 27.1065 13.4775 27.2932 12.9575 27.4798C12.6108 27.5998 12.3108 27.5932 12.0575 27.4598C11.8175 27.3132 11.6375 27.0732 11.5175 26.7398C11.4108 26.4598 11.3975 26.1865 11.4775 25.9198C11.5708 25.6398 11.7642 25.4465 12.0575 25.3398C12.6442 25.1398 13.2042 24.9398 13.7375 24.7398C14.2708 24.5265 14.8442 24.2932 15.4575 24.0398C16.0575 23.7865 16.4775 23.5332 16.7175 23.2798C16.9708 23.0132 17.0975 22.7065 17.0975 22.3598V22.1798H12.8575ZM10.8375 30.6598C10.5308 30.6598 10.3042 30.5532 10.1575 30.3398C10.0108 30.1265 9.9375 29.8798 9.9375 29.5998C9.9375 29.3065 10.0108 29.0532 10.1575 28.8398C10.3042 28.6265 10.5308 28.5198 10.8375 28.5198H25.9575C26.2642 28.5198 26.4908 28.6265 26.6375 28.8398C26.7842 29.0532 26.8575 29.3065 26.8575 29.5998C26.8575 29.8798 26.7842 30.1265 26.6375 30.3398C26.4908 30.5532 26.2642 30.6598 25.9575 30.6598H19.9375V33.0198C19.9375 33.3665 19.8108 33.6198 19.5575 33.7798C19.3175 33.9265 19.0175 33.9998 18.6575 33.9998C18.3108 33.9998 18.0108 33.9265 17.7575 33.7798C17.5175 33.6198 17.3975 33.3665 17.3975 33.0198V30.6598H10.8375ZM24.1175 35.6598C24.4242 35.6598 24.6508 35.7665 24.7975 35.9798C24.9442 36.1932 25.0175 36.4465 25.0175 36.7398C25.0175 37.0332 24.9442 37.2865 24.7975 37.4998C24.6508 37.7132 24.4242 37.8198 24.1175 37.8198H13.7975C13.1575 37.8198 12.7108 37.6998 12.4575 37.4598C12.2175 37.2198 12.0975 36.7865 12.0975 36.1598V33.0598C12.0975 32.6865 12.2242 32.4132 12.4775 32.2398C12.7442 32.0665 13.0508 31.9798 13.3975 31.9798C13.7308 31.9798 14.0242 32.0665 14.2775 32.2398C14.5442 32.4132 14.6775 32.6865 14.6775 33.0598V35.1998C14.6775 35.5065 14.8308 35.6598 15.1375 35.6598H24.1175Z"/>
<path d="M28.6206 24.6398C28.6206 23.9865 28.7206 23.3798 28.9206 22.8198C29.1206 22.2598 29.414 21.7798 29.8006 21.3798C30.1873 20.9665 30.674 20.6465 31.2606 20.4198C31.8473 20.1932 32.5273 20.0798 33.3006 20.0798C34.074 20.0798 34.754 20.1932 35.3406 20.4198C35.9273 20.6465 36.414 20.9665 36.8006 21.3798C37.1873 21.7798 37.4806 22.2598 37.6806 22.8198C37.8806 23.3798 37.9806 23.9865 37.9806 24.6398C37.9806 25.3065 37.8806 25.9198 37.6806 26.4798C37.4806 27.0265 37.1873 27.5065 36.8006 27.9198C36.414 28.3198 35.9273 28.6332 35.3406 28.8598C34.754 29.0865 34.074 29.1998 33.3006 29.1998C32.5273 29.1998 31.8473 29.0865 31.2606 28.8598C30.674 28.6332 30.1873 28.3198 29.8006 27.9198C29.414 27.5065 29.1206 27.0265 28.9206 26.4798C28.7206 25.9198 28.6206 25.3065 28.6206 24.6398ZM35.5406 24.6398C35.5406 24.3065 35.5006 23.9932 35.4206 23.6998C35.3406 23.3932 35.2073 23.1332 35.0206 22.9198C34.8473 22.6932 34.6206 22.5198 34.3406 22.3998C34.0606 22.2665 33.714 22.1998 33.3006 22.1998C32.8873 22.1998 32.5406 22.2665 32.2606 22.3998C31.9806 22.5198 31.7473 22.6932 31.5606 22.9198C31.3873 23.1332 31.2606 23.3932 31.1806 23.6998C31.1006 23.9932 31.0606 24.3065 31.0606 24.6398C31.0606 24.9865 31.1006 25.3065 31.1806 25.5998C31.2606 25.8932 31.3873 26.1532 31.5606 26.3798C31.7473 26.5932 31.9806 26.7665 32.2606 26.8998C32.5406 27.0198 32.8873 27.0798 33.3006 27.0798C33.714 27.0798 34.0606 27.0198 34.3406 26.8998C34.6206 26.7665 34.8473 26.5932 35.0206 26.3798C35.2073 26.1532 35.3406 25.8932 35.4206 25.5998C35.5006 25.3065 35.5406 24.9865 35.5406 24.6398ZM43.5806 29.2798C43.5806 29.6532 43.4473 29.9265 43.1806 30.0998C42.9273 30.2732 42.6406 30.3598 42.3206 30.3598C42.0006 30.3598 41.7073 30.2732 41.4406 30.0998C41.1873 29.9265 41.0606 29.6532 41.0606 29.2798V27.5798H39.3006C38.994 27.5798 38.7673 27.4732 38.6206 27.2598C38.4873 27.0465 38.4206 26.7865 38.4206 26.4798C38.4206 26.1865 38.4873 25.9332 38.6206 25.7198C38.7673 25.5065 38.994 25.3998 39.3006 25.3998H41.0606V23.9798H39.3006C38.994 23.9798 38.7673 23.8732 38.6206 23.6598C38.4873 23.4465 38.4206 23.1865 38.4206 22.8798C38.4206 22.5865 38.4873 22.3332 38.6206 22.1198C38.7673 21.9065 38.994 21.7998 39.3006 21.7998H41.0606V20.4198C41.0606 20.0465 41.1873 19.7732 41.4406 19.5998C41.7073 19.4265 42.0006 19.3398 42.3206 19.3398C42.6406 19.3398 42.9273 19.4265 43.1806 19.5998C43.4473 19.7732 43.5806 20.0465 43.5806 20.4198V29.2798ZM31.5606 34.3598C31.5606 33.0665 32.094 32.0998 33.1606 31.4598C34.2406 30.8065 35.7206 30.4798 37.6006 30.4798C39.4806 30.4798 40.954 30.8065 42.0206 31.4598C43.1006 32.0998 43.6406 33.0665 43.6406 34.3598C43.6406 35.6665 43.1006 36.6398 42.0206 37.2798C40.954 37.9198 39.4806 38.2398 37.6006 38.2398C35.7206 38.2398 34.2406 37.9198 33.1606 37.2798C32.094 36.6398 31.5606 35.6665 31.5606 34.3598ZM41.1006 34.3598C41.1006 33.8132 40.8273 33.3732 40.2806 33.0398C39.7473 32.6932 38.854 32.5198 37.6006 32.5198C36.334 32.5198 35.434 32.6932 34.9006 33.0398C34.3673 33.3732 34.1006 33.8132 34.1006 34.3598C34.1006 34.9065 34.3673 35.3465 34.9006 35.6798C35.434 36.0265 36.334 36.1998 37.6006 36.1998C38.854 36.1998 39.7473 36.0265 40.2806 35.6798C40.8273 35.3465 41.1006 34.9065 41.1006 34.3598Z"/>
</mask>
<path d="M12.8575 22.1798C12.5508 22.1798 12.3242 22.0732 12.1775 21.8598C12.0308 21.6465 11.9575 21.3932 11.9575 21.0998C11.9575 20.8198 12.0308 20.5732 12.1775 20.3598C12.3242 20.1465 12.5508 20.0398 12.8575 20.0398H23.9375C24.2442 20.0398 24.4708 20.1465 24.6175 20.3598C24.7642 20.5732 24.8375 20.8198 24.8375 21.0998C24.8375 21.3932 24.7642 21.6465 24.6175 21.8598C24.4708 22.0732 24.2442 22.1798 23.9375 22.1798H19.6975V22.3598C19.6975 22.7065 19.8175 23.0132 20.0575 23.2798C20.3108 23.5332 20.7375 23.7865 21.3375 24.0398C21.9508 24.2932 22.5242 24.5265 23.0575 24.7398C23.5908 24.9398 24.1508 25.1398 24.7375 25.3398C25.0175 25.4465 25.2042 25.6332 25.2975 25.8998C25.3908 26.1665 25.3842 26.4332 25.2775 26.6998C25.1575 27.0198 24.9708 27.2532 24.7175 27.3998C24.4775 27.5332 24.1842 27.5398 23.8375 27.4198C23.3175 27.2332 22.8042 27.0465 22.2975 26.8598C21.8042 26.6732 21.2975 26.4732 20.7775 26.2598C20.3242 26.0732 19.9508 25.9065 19.6575 25.7598C19.3775 25.5998 19.1508 25.4532 18.9775 25.3198C18.8042 25.1865 18.6775 25.0598 18.5975 24.9398C18.5175 24.8198 18.4575 24.6998 18.4175 24.5798H18.3975C18.3575 24.7132 18.2908 24.8465 18.1975 24.9798C18.1175 25.0998 17.9908 25.2332 17.8175 25.3798C17.6442 25.5132 17.4108 25.6598 17.1175 25.8198C16.8375 25.9665 16.4708 26.1332 16.0175 26.3198C15.4975 26.5332 14.9842 26.7332 14.4775 26.9198C13.9842 27.1065 13.4775 27.2932 12.9575 27.4798C12.6108 27.5998 12.3108 27.5932 12.0575 27.4598C11.8175 27.3132 11.6375 27.0732 11.5175 26.7398C11.4108 26.4598 11.3975 26.1865 11.4775 25.9198C11.5708 25.6398 11.7642 25.4465 12.0575 25.3398C12.6442 25.1398 13.2042 24.9398 13.7375 24.7398C14.2708 24.5265 14.8442 24.2932 15.4575 24.0398C16.0575 23.7865 16.4775 23.5332 16.7175 23.2798C16.9708 23.0132 17.0975 22.7065 17.0975 22.3598V22.1798H12.8575ZM10.8375 30.6598C10.5308 30.6598 10.3042 30.5532 10.1575 30.3398C10.0108 30.1265 9.9375 29.8798 9.9375 29.5998C9.9375 29.3065 10.0108 29.0532 10.1575 28.8398C10.3042 28.6265 10.5308 28.5198 10.8375 28.5198H25.9575C26.2642 28.5198 26.4908 28.6265 26.6375 28.8398C26.7842 29.0532 26.8575 29.3065 26.8575 29.5998C26.8575 29.8798 26.7842 30.1265 26.6375 30.3398C26.4908 30.5532 26.2642 30.6598 25.9575 30.6598H19.9375V33.0198C19.9375 33.3665 19.8108 33.6198 19.5575 33.7798C19.3175 33.9265 19.0175 33.9998 18.6575 33.9998C18.3108 33.9998 18.0108 33.9265 17.7575 33.7798C17.5175 33.6198 17.3975 33.3665 17.3975 33.0198V30.6598H10.8375ZM24.1175 35.6598C24.4242 35.6598 24.6508 35.7665 24.7975 35.9798C24.9442 36.1932 25.0175 36.4465 25.0175 36.7398C25.0175 37.0332 24.9442 37.2865 24.7975 37.4998C24.6508 37.7132 24.4242 37.8198 24.1175 37.8198H13.7975C13.1575 37.8198 12.7108 37.6998 12.4575 37.4598C12.2175 37.2198 12.0975 36.7865 12.0975 36.1598V33.0598C12.0975 32.6865 12.2242 32.4132 12.4775 32.2398C12.7442 32.0665 13.0508 31.9798 13.3975 31.9798C13.7308 31.9798 14.0242 32.0665 14.2775 32.2398C14.5442 32.4132 14.6775 32.6865 14.6775 33.0598V35.1998C14.6775 35.5065 14.8308 35.6598 15.1375 35.6598H24.1175Z" fill="#6ABAA4"/>
<path d="M28.6206 24.6398C28.6206 23.9865 28.7206 23.3798 28.9206 22.8198C29.1206 22.2598 29.414 21.7798 29.8006 21.3798C30.1873 20.9665 30.674 20.6465 31.2606 20.4198C31.8473 20.1932 32.5273 20.0798 33.3006 20.0798C34.074 20.0798 34.754 20.1932 35.3406 20.4198C35.9273 20.6465 36.414 20.9665 36.8006 21.3798C37.1873 21.7798 37.4806 22.2598 37.6806 22.8198C37.8806 23.3798 37.9806 23.9865 37.9806 24.6398C37.9806 25.3065 37.8806 25.9198 37.6806 26.4798C37.4806 27.0265 37.1873 27.5065 36.8006 27.9198C36.414 28.3198 35.9273 28.6332 35.3406 28.8598C34.754 29.0865 34.074 29.1998 33.3006 29.1998C32.5273 29.1998 31.8473 29.0865 31.2606 28.8598C30.674 28.6332 30.1873 28.3198 29.8006 27.9198C29.414 27.5065 29.1206 27.0265 28.9206 26.4798C28.7206 25.9198 28.6206 25.3065 28.6206 24.6398ZM35.5406 24.6398C35.5406 24.3065 35.5006 23.9932 35.4206 23.6998C35.3406 23.3932 35.2073 23.1332 35.0206 22.9198C34.8473 22.6932 34.6206 22.5198 34.3406 22.3998C34.0606 22.2665 33.714 22.1998 33.3006 22.1998C32.8873 22.1998 32.5406 22.2665 32.2606 22.3998C31.9806 22.5198 31.7473 22.6932 31.5606 22.9198C31.3873 23.1332 31.2606 23.3932 31.1806 23.6998C31.1006 23.9932 31.0606 24.3065 31.0606 24.6398C31.0606 24.9865 31.1006 25.3065 31.1806 25.5998C31.2606 25.8932 31.3873 26.1532 31.5606 26.3798C31.7473 26.5932 31.9806 26.7665 32.2606 26.8998C32.5406 27.0198 32.8873 27.0798 33.3006 27.0798C33.714 27.0798 34.0606 27.0198 34.3406 26.8998C34.6206 26.7665 34.8473 26.5932 35.0206 26.3798C35.2073 26.1532 35.3406 25.8932 35.4206 25.5998C35.5006 25.3065 35.5406 24.9865 35.5406 24.6398ZM43.5806 29.2798C43.5806 29.6532 43.4473 29.9265 43.1806 30.0998C42.9273 30.2732 42.6406 30.3598 42.3206 30.3598C42.0006 30.3598 41.7073 30.2732 41.4406 30.0998C41.1873 29.9265 41.0606 29.6532 41.0606 29.2798V27.5798H39.3006C38.994 27.5798 38.7673 27.4732 38.6206 27.2598C38.4873 27.0465 38.4206 26.7865 38.4206 26.4798C38.4206 26.1865 38.4873 25.9332 38.6206 25.7198C38.7673 25.5065 38.994 25.3998 39.3006 25.3998H41.0606V23.9798H39.3006C38.994 23.9798 38.7673 23.8732 38.6206 23.6598C38.4873 23.4465 38.4206 23.1865 38.4206 22.8798C38.4206 22.5865 38.4873 22.3332 38.6206 22.1198C38.7673 21.9065 38.994 21.7998 39.3006 21.7998H41.0606V20.4198C41.0606 20.0465 41.1873 19.7732 41.4406 19.5998C41.7073 19.4265 42.0006 19.3398 42.3206 19.3398C42.6406 19.3398 42.9273 19.4265 43.1806 19.5998C43.4473 19.7732 43.5806 20.0465 43.5806 20.4198V29.2798ZM31.5606 34.3598C31.5606 33.0665 32.094 32.0998 33.1606 31.4598C34.2406 30.8065 35.7206 30.4798 37.6006 30.4798C39.4806 30.4798 40.954 30.8065 42.0206 31.4598C43.1006 32.0998 43.6406 33.0665 43.6406 34.3598C43.6406 35.6665 43.1006 36.6398 42.0206 37.2798C40.954 37.9198 39.4806 38.2398 37.6006 38.2398C35.7206 38.2398 34.2406 37.9198 33.1606 37.2798C32.094 36.6398 31.5606 35.6665 31.5606 34.3598ZM41.1006 34.3598C41.1006 33.8132 40.8273 33.3732 40.2806 33.0398C39.7473 32.6932 38.854 32.5198 37.6006 32.5198C36.334 32.5198 35.434 32.6932 34.9006 33.0398C34.3673 33.3732 34.1006 33.8132 34.1006 34.3598C34.1006 34.9065 34.3673 35.3465 34.9006 35.6798C35.434 36.0265 36.334 36.1998 37.6006 36.1998C38.854 36.1998 39.7473 36.0265 40.2806 35.6798C40.8273 35.3465 41.1006 34.9065 41.1006 34.3598Z" fill="#6ABAA4"/>
<path d="M12.8575 22.1798C12.5508 22.1798 12.3242 22.0732 12.1775 21.8598C12.0308 21.6465 11.9575 21.3932 11.9575 21.0998C11.9575 20.8198 12.0308 20.5732 12.1775 20.3598C12.3242 20.1465 12.5508 20.0398 12.8575 20.0398H23.9375C24.2442 20.0398 24.4708 20.1465 24.6175 20.3598C24.7642 20.5732 24.8375 20.8198 24.8375 21.0998C24.8375 21.3932 24.7642 21.6465 24.6175 21.8598C24.4708 22.0732 24.2442 22.1798 23.9375 22.1798H19.6975V22.3598C19.6975 22.7065 19.8175 23.0132 20.0575 23.2798C20.3108 23.5332 20.7375 23.7865 21.3375 24.0398C21.9508 24.2932 22.5242 24.5265 23.0575 24.7398C23.5908 24.9398 24.1508 25.1398 24.7375 25.3398C25.0175 25.4465 25.2042 25.6332 25.2975 25.8998C25.3908 26.1665 25.3842 26.4332 25.2775 26.6998C25.1575 27.0198 24.9708 27.2532 24.7175 27.3998C24.4775 27.5332 24.1842 27.5398 23.8375 27.4198C23.3175 27.2332 22.8042 27.0465 22.2975 26.8598C21.8042 26.6732 21.2975 26.4732 20.7775 26.2598C20.3242 26.0732 19.9508 25.9065 19.6575 25.7598C19.3775 25.5998 19.1508 25.4532 18.9775 25.3198C18.8042 25.1865 18.6775 25.0598 18.5975 24.9398C18.5175 24.8198 18.4575 24.6998 18.4175 24.5798H18.3975C18.3575 24.7132 18.2908 24.8465 18.1975 24.9798C18.1175 25.0998 17.9908 25.2332 17.8175 25.3798C17.6442 25.5132 17.4108 25.6598 17.1175 25.8198C16.8375 25.9665 16.4708 26.1332 16.0175 26.3198C15.4975 26.5332 14.9842 26.7332 14.4775 26.9198C13.9842 27.1065 13.4775 27.2932 12.9575 27.4798C12.6108 27.5998 12.3108 27.5932 12.0575 27.4598C11.8175 27.3132 11.6375 27.0732 11.5175 26.7398C11.4108 26.4598 11.3975 26.1865 11.4775 25.9198C11.5708 25.6398 11.7642 25.4465 12.0575 25.3398C12.6442 25.1398 13.2042 24.9398 13.7375 24.7398C14.2708 24.5265 14.8442 24.2932 15.4575 24.0398C16.0575 23.7865 16.4775 23.5332 16.7175 23.2798C16.9708 23.0132 17.0975 22.7065 17.0975 22.3598V22.1798H12.8575ZM10.8375 30.6598C10.5308 30.6598 10.3042 30.5532 10.1575 30.3398C10.0108 30.1265 9.9375 29.8798 9.9375 29.5998C9.9375 29.3065 10.0108 29.0532 10.1575 28.8398C10.3042 28.6265 10.5308 28.5198 10.8375 28.5198H25.9575C26.2642 28.5198 26.4908 28.6265 26.6375 28.8398C26.7842 29.0532 26.8575 29.3065 26.8575 29.5998C26.8575 29.8798 26.7842 30.1265 26.6375 30.3398C26.4908 30.5532 26.2642 30.6598 25.9575 30.6598H19.9375V33.0198C19.9375 33.3665 19.8108 33.6198 19.5575 33.7798C19.3175 33.9265 19.0175 33.9998 18.6575 33.9998C18.3108 33.9998 18.0108 33.9265 17.7575 33.7798C17.5175 33.6198 17.3975 33.3665 17.3975 33.0198V30.6598H10.8375ZM24.1175 35.6598C24.4242 35.6598 24.6508 35.7665 24.7975 35.9798C24.9442 36.1932 25.0175 36.4465 25.0175 36.7398C25.0175 37.0332 24.9442 37.2865 24.7975 37.4998C24.6508 37.7132 24.4242 37.8198 24.1175 37.8198H13.7975C13.1575 37.8198 12.7108 37.6998 12.4575 37.4598C12.2175 37.2198 12.0975 36.7865 12.0975 36.1598V33.0598C12.0975 32.6865 12.2242 32.4132 12.4775 32.2398C12.7442 32.0665 13.0508 31.9798 13.3975 31.9798C13.7308 31.9798 14.0242 32.0665 14.2775 32.2398C14.5442 32.4132 14.6775 32.6865 14.6775 33.0598V35.1998C14.6775 35.5065 14.8308 35.6598 15.1375 35.6598H24.1175Z" stroke="white" stroke-width="4" mask="url(#path-3-outside-1_1147_9165)"/>
<path d="M28.6206 24.6398C28.6206 23.9865 28.7206 23.3798 28.9206 22.8198C29.1206 22.2598 29.414 21.7798 29.8006 21.3798C30.1873 20.9665 30.674 20.6465 31.2606 20.4198C31.8473 20.1932 32.5273 20.0798 33.3006 20.0798C34.074 20.0798 34.754 20.1932 35.3406 20.4198C35.9273 20.6465 36.414 20.9665 36.8006 21.3798C37.1873 21.7798 37.4806 22.2598 37.6806 22.8198C37.8806 23.3798 37.9806 23.9865 37.9806 24.6398C37.9806 25.3065 37.8806 25.9198 37.6806 26.4798C37.4806 27.0265 37.1873 27.5065 36.8006 27.9198C36.414 28.3198 35.9273 28.6332 35.3406 28.8598C34.754 29.0865 34.074 29.1998 33.3006 29.1998C32.5273 29.1998 31.8473 29.0865 31.2606 28.8598C30.674 28.6332 30.1873 28.3198 29.8006 27.9198C29.414 27.5065 29.1206 27.0265 28.9206 26.4798C28.7206 25.9198 28.6206 25.3065 28.6206 24.6398ZM35.5406 24.6398C35.5406 24.3065 35.5006 23.9932 35.4206 23.6998C35.3406 23.3932 35.2073 23.1332 35.0206 22.9198C34.8473 22.6932 34.6206 22.5198 34.3406 22.3998C34.0606 22.2665 33.714 22.1998 33.3006 22.1998C32.8873 22.1998 32.5406 22.2665 32.2606 22.3998C31.9806 22.5198 31.7473 22.6932 31.5606 22.9198C31.3873 23.1332 31.2606 23.3932 31.1806 23.6998C31.1006 23.9932 31.0606 24.3065 31.0606 24.6398C31.0606 24.9865 31.1006 25.3065 31.1806 25.5998C31.2606 25.8932 31.3873 26.1532 31.5606 26.3798C31.7473 26.5932 31.9806 26.7665 32.2606 26.8998C32.5406 27.0198 32.8873 27.0798 33.3006 27.0798C33.714 27.0798 34.0606 27.0198 34.3406 26.8998C34.6206 26.7665 34.8473 26.5932 35.0206 26.3798C35.2073 26.1532 35.3406 25.8932 35.4206 25.5998C35.5006 25.3065 35.5406 24.9865 35.5406 24.6398ZM43.5806 29.2798C43.5806 29.6532 43.4473 29.9265 43.1806 30.0998C42.9273 30.2732 42.6406 30.3598 42.3206 30.3598C42.0006 30.3598 41.7073 30.2732 41.4406 30.0998C41.1873 29.9265 41.0606 29.6532 41.0606 29.2798V27.5798H39.3006C38.994 27.5798 38.7673 27.4732 38.6206 27.2598C38.4873 27.0465 38.4206 26.7865 38.4206 26.4798C38.4206 26.1865 38.4873 25.9332 38.6206 25.7198C38.7673 25.5065 38.994 25.3998 39.3006 25.3998H41.0606V23.9798H39.3006C38.994 23.9798 38.7673 23.8732 38.6206 23.6598C38.4873 23.4465 38.4206 23.1865 38.4206 22.8798C38.4206 22.5865 38.4873 22.3332 38.6206 22.1198C38.7673 21.9065 38.994 21.7998 39.3006 21.7998H41.0606V20.4198C41.0606 20.0465 41.1873 19.7732 41.4406 19.5998C41.7073 19.4265 42.0006 19.3398 42.3206 19.3398C42.6406 19.3398 42.9273 19.4265 43.1806 19.5998C43.4473 19.7732 43.5806 20.0465 43.5806 20.4198V29.2798ZM31.5606 34.3598C31.5606 33.0665 32.094 32.0998 33.1606 31.4598C34.2406 30.8065 35.7206 30.4798 37.6006 30.4798C39.4806 30.4798 40.954 30.8065 42.0206 31.4598C43.1006 32.0998 43.6406 33.0665 43.6406 34.3598C43.6406 35.6665 43.1006 36.6398 42.0206 37.2798C40.954 37.9198 39.4806 38.2398 37.6006 38.2398C35.7206 38.2398 34.2406 37.9198 33.1606 37.2798C32.094 36.6398 31.5606 35.6665 31.5606 34.3598ZM41.1006 34.3598C41.1006 33.8132 40.8273 33.3732 40.2806 33.0398C39.7473 32.6932 38.854 32.5198 37.6006 32.5198C36.334 32.5198 35.434 32.6932 34.9006 33.0398C34.3673 33.3732 34.1006 33.8132 34.1006 34.3598C34.1006 34.9065 34.3673 35.3465 34.9006 35.6798C35.434 36.0265 36.334 36.1998 37.6006 36.1998C38.854 36.1998 39.7473 36.0265 40.2806 35.6798C40.8273 35.3465 41.1006 34.9065 41.1006 34.3598Z" stroke="white" stroke-width="4" mask="url(#path-3-outside-1_1147_9165)"/>
</svg>
