<svg width="547" height="48" viewBox="0 0 547 48" fill="none" xmlns="http://www.w3.org/2000/svg">
<path d="M4.76021 37L0.85396 0.636363H5.32839L8.02726 30.2528H8.38237L21.0244 0.636363H25.996L28.8369 30.2528H29.192L41.692 0.636363H46.1665L30.1863 37H25.6409L22.4449 8.02273H22.1608L9.30566 37H4.76021ZM53.8724 37.5682C51.2564 37.5682 49.0961 36.9882 47.3916 35.8281C45.6871 34.6562 44.4974 33.0227 43.8227 30.9276C43.148 28.8205 43.0415 26.3703 43.5031 23.5767C43.9648 20.7831 44.8821 18.321 46.2552 16.1903C47.6283 14.0478 49.3388 12.3788 51.3866 11.1832C53.4345 9.97585 55.6835 9.37216 58.1338 9.37216C59.5542 9.37216 60.9214 9.6089 62.2354 10.0824C63.5493 10.5559 64.6856 11.3253 65.6444 12.3906C66.6033 13.4441 67.272 14.8409 67.6508 16.581C68.0296 18.321 68.0059 20.4635 67.5798 23.0085L67.2957 24.7841H46.273L46.8412 21.1619H63.6025C63.8748 19.6231 63.8038 18.25 63.3895 17.0426C62.987 15.8352 62.2827 14.8823 61.2765 14.1839C60.2822 13.4856 59.0216 13.1364 57.4946 13.1364C55.9202 13.1364 54.4524 13.5625 53.0912 14.4148C51.7299 15.2552 50.5935 16.3205 49.6821 17.6108C48.7706 18.8892 48.2024 20.1913 47.9775 21.517L47.4804 24.642C47.1253 26.9029 47.1785 28.7022 47.6402 30.0398C48.1137 31.3774 48.9363 32.3421 50.1082 32.9339C51.2801 33.514 52.7479 33.804 54.5116 33.804C55.6362 33.804 56.6719 33.6501 57.6189 33.3423C58.5658 33.0227 59.4122 32.5492 60.1579 31.9219C60.9037 31.2827 61.531 30.4896 62.04 29.5426L65.8753 30.679C65.2242 32.0521 64.3068 33.2595 63.1231 34.3011C61.9513 35.331 60.5782 36.1359 59.0038 36.7159C57.4413 37.2841 55.7309 37.5682 53.8724 37.5682ZM85.7705 37L90.316 9.72727H94.3643L93.654 13.9886H94.0091C94.8259 12.5327 95.9327 11.4022 97.3295 10.5973C98.7381 9.78054 100.33 9.37216 102.106 9.37216C103.881 9.37216 105.308 9.78054 106.385 10.5973C107.462 11.4022 108.214 12.5327 108.64 13.9886H108.924C109.847 12.5682 111.078 11.4437 112.617 10.6151C114.168 9.78646 115.92 9.37216 117.873 9.37216C120.288 9.37216 122.146 10.1357 123.448 11.6626C124.762 13.1896 125.153 15.5511 124.62 18.7472L121.566 37H117.376L120.43 18.7472C120.749 16.723 120.43 15.2848 119.471 14.4325C118.524 13.5684 117.305 13.1364 115.813 13.1364C113.896 13.1364 112.315 13.7105 111.072 14.8587C109.829 16.0069 109.066 17.4687 108.782 19.2443L105.799 37H101.538L104.663 18.321C104.911 16.7585 104.615 15.5038 103.775 14.5568C102.934 13.6098 101.715 13.1364 100.117 13.1364C99.0281 13.1364 97.9627 13.4323 96.9211 14.0241C95.8794 14.6042 94.9857 15.4091 94.24 16.4389C93.4942 17.4569 93.0148 18.6288 92.8018 19.9545L89.9608 37H85.7705ZM137.182 37.6392C135.454 37.6392 133.939 37.3137 132.637 36.6626C131.335 35.9998 130.37 35.0469 129.742 33.804C129.115 32.5492 128.943 31.0341 129.228 29.2585C129.5 27.696 130.027 26.4295 130.808 25.4588C131.589 24.4763 132.536 23.7069 133.649 23.1506C134.773 22.5824 135.981 22.1622 137.271 21.8899C138.573 21.6058 139.869 21.3868 141.159 21.233C142.84 21.0199 144.207 20.8542 145.261 20.7358C146.314 20.6174 147.108 20.4221 147.64 20.1499C148.173 19.8776 148.498 19.41 148.617 18.7472V18.6051C148.901 16.8651 148.67 15.5097 147.924 14.5391C147.179 13.5566 145.847 13.0653 143.929 13.0653C141.941 13.0653 140.277 13.5033 138.94 14.3793C137.602 15.2552 136.614 16.1903 135.975 17.1847L132.282 15.7642C133.252 14.107 134.412 12.8168 135.762 11.8935C137.111 10.9583 138.526 10.3073 140.005 9.94034C141.485 9.56155 142.911 9.37216 144.284 9.37216C145.16 9.37216 146.149 9.47869 147.25 9.69176C148.35 9.89299 149.38 10.3132 150.339 10.9524C151.31 11.5916 152.038 12.5563 152.523 13.8466C153.02 15.1368 153.091 16.8651 152.736 19.0312L149.753 37H145.563L146.202 33.3068H145.989C145.61 33.8987 145.03 34.532 144.249 35.2067C143.479 35.8814 142.503 36.4555 141.319 36.929C140.147 37.4025 138.768 37.6392 137.182 37.6392ZM138.389 33.875C140.047 33.875 141.497 33.5495 142.74 32.8984C143.994 32.2474 145.001 31.407 145.758 30.3771C146.527 29.3473 147.007 28.2642 147.196 27.1278L147.835 23.2926C147.622 23.5057 147.202 23.701 146.575 23.8786C145.947 24.0443 145.237 24.1922 144.444 24.3224C143.663 24.4408 142.899 24.5473 142.154 24.642C141.42 24.7249 140.828 24.7959 140.378 24.8551C139.265 24.9972 138.206 25.228 137.2 25.5476C136.206 25.8554 135.365 26.3229 134.679 26.9503C134.004 27.5658 133.584 28.4062 133.418 29.4716C133.169 30.9276 133.518 32.0284 134.465 32.7741C135.412 33.508 136.72 33.875 138.389 33.875ZM162.941 27.0568L163.722 21.8722H164.575L178.566 9.72727H183.751L168.907 22.5824H168.552L162.941 27.0568ZM157.401 37L163.438 0.636363H167.629L161.592 37H157.401ZM174.731 37L166.35 23.5057L169.759 20.5938L180.058 37H174.731ZM194.839 37.5682C192.223 37.5682 190.063 36.9882 188.358 35.8281C186.654 34.6562 185.464 33.0227 184.79 30.9276C184.115 28.8205 184.008 26.3703 184.47 23.5767C184.932 20.7831 185.849 18.321 187.222 16.1903C188.595 14.0478 190.306 12.3788 192.353 11.1832C194.401 9.97585 196.65 9.37216 199.101 9.37216C200.521 9.37216 201.888 9.6089 203.202 10.0824C204.516 10.5559 205.652 11.3253 206.611 12.3906C207.57 13.4441 208.239 14.8409 208.618 16.581C208.996 18.321 208.973 20.4635 208.547 23.0085L208.263 24.7841H187.24L187.808 21.1619H204.569C204.842 19.6231 204.771 18.25 204.356 17.0426C203.954 15.8352 203.249 14.8823 202.243 14.1839C201.249 13.4856 199.988 13.1364 198.461 13.1364C196.887 13.1364 195.419 13.5625 194.058 14.4148C192.697 15.2552 191.56 16.3205 190.649 17.6108C189.737 18.8892 189.169 20.1913 188.944 21.517L188.447 24.642C188.092 26.9029 188.145 28.7022 188.607 30.0398C189.08 31.3774 189.903 32.3421 191.075 32.9339C192.247 33.514 193.715 33.804 195.478 33.804C196.603 33.804 197.639 33.6501 198.586 33.3423C199.533 33.0227 200.379 32.5492 201.125 31.9219C201.87 31.2827 202.498 30.4896 203.007 29.5426L206.842 30.679C206.191 32.0521 205.274 33.2595 204.09 34.3011C202.918 35.331 201.545 36.1359 199.971 36.7159C198.408 37.2841 196.698 37.5682 194.839 37.5682ZM225.033 47.2273L231.318 9.72727H235.367L234.656 14.0597H235.153C235.532 13.5862 236.053 12.9825 236.716 12.2486C237.391 11.5028 238.296 10.84 239.433 10.2599C240.581 9.66809 242.043 9.37216 243.818 9.37216C246.115 9.37216 248.038 9.94626 249.589 11.0945C251.14 12.2427 252.234 13.8703 252.874 15.9773C253.513 18.0843 253.596 20.5701 253.122 23.4347C252.649 26.3229 251.743 28.8265 250.406 30.9453C249.068 33.0523 247.435 34.6858 245.505 35.8459C243.576 36.9941 241.475 37.5682 239.202 37.5682C237.45 37.5682 236.095 37.2782 235.136 36.6982C234.177 36.1063 233.479 35.4375 233.041 34.6918C232.603 33.9342 232.265 33.3068 232.028 32.8097H231.673L229.259 47.2273H225.033ZM233.165 23.3636C232.833 25.4233 232.833 27.2403 233.165 28.8146C233.508 30.3771 234.189 31.6023 235.207 32.4901C236.237 33.366 237.592 33.804 239.273 33.804C241.025 33.804 242.558 33.3423 243.872 32.419C245.197 31.4839 246.286 30.2292 247.139 28.6548C248.003 27.0687 248.6 25.3049 248.932 23.3636C249.24 21.446 249.228 19.7178 248.896 18.179C248.565 16.6283 247.89 15.4032 246.872 14.5036C245.854 13.5921 244.457 13.1364 242.682 13.1364C240.977 13.1364 239.468 13.5684 238.154 14.4325C236.852 15.2848 235.775 16.4804 234.923 18.0192C234.082 19.5462 233.496 21.3277 233.165 23.3636ZM268.619 37.5682C266.003 37.5682 263.842 36.9882 262.138 35.8281C260.433 34.6562 259.244 33.0227 258.569 30.9276C257.894 28.8205 257.788 26.3703 258.249 23.5767C258.711 20.7831 259.628 18.321 261.001 16.1903C262.374 14.0478 264.085 12.3788 266.133 11.1832C268.181 9.97585 270.43 9.37216 272.88 9.37216C274.3 9.37216 275.668 9.6089 276.981 10.0824C278.295 10.5559 279.432 11.3253 280.391 12.3906C281.349 13.4441 282.018 14.8409 282.397 16.581C282.776 18.321 282.752 20.4635 282.326 23.0085L282.042 24.7841H261.019L261.587 21.1619H278.349C278.621 19.6231 278.55 18.25 278.136 17.0426C277.733 15.8352 277.029 14.8823 276.023 14.1839C275.028 13.4856 273.768 13.1364 272.241 13.1364C270.666 13.1364 269.199 13.5625 267.837 14.4148C266.476 15.2552 265.34 16.3205 264.428 17.6108C263.517 18.8892 262.949 20.1913 262.724 21.517L262.226 24.642C261.871 26.9029 261.925 28.7022 262.386 30.0398C262.86 31.3774 263.682 32.3421 264.854 32.9339C266.026 33.514 267.494 33.804 269.258 33.804C270.382 33.804 271.418 33.6501 272.365 33.3423C273.312 33.0227 274.158 32.5492 274.904 31.9219C275.65 31.2827 276.277 30.4896 276.786 29.5426L280.621 30.679C279.97 32.0521 279.053 33.2595 277.869 34.3011C276.697 35.331 275.324 36.1359 273.75 36.7159C272.187 37.2841 270.477 37.5682 268.619 37.5682ZM297.711 37.5682C295.202 37.5682 293.101 36.9704 291.408 35.7749C289.715 34.5793 288.52 32.9044 287.821 30.75C287.135 28.5956 287.022 26.0862 287.484 23.2216C287.934 20.428 288.827 17.9955 290.165 15.924C291.514 13.8407 293.189 12.2308 295.19 11.0945C297.202 9.94626 299.416 9.37216 301.831 9.37216C304.34 9.37216 306.435 9.97585 308.116 11.1832C309.809 12.3788 311.004 14.0597 311.703 16.2259C312.401 18.3802 312.519 20.9015 312.058 23.7898C311.608 26.5597 310.702 28.9804 309.341 31.0518C307.992 33.1115 306.317 34.7154 304.316 35.8636C302.328 37 300.126 37.5682 297.711 37.5682ZM297.782 33.804C299.7 33.804 301.363 33.3127 302.772 32.3303C304.192 31.3478 305.34 30.0516 306.216 28.4418C307.104 26.8319 307.702 25.0919 308.009 23.2216C308.294 21.446 308.282 19.7947 307.974 18.2678C307.666 16.7289 307.009 15.4919 306.003 14.5568C304.997 13.6098 303.582 13.1364 301.759 13.1364C299.842 13.1364 298.167 13.6335 296.735 14.6278C295.314 15.6222 294.166 16.9302 293.29 18.5518C292.414 20.1735 291.828 21.9195 291.532 23.7898C291.248 25.5653 291.254 27.2166 291.55 28.7436C291.858 30.2588 292.515 31.4839 293.521 32.419C294.539 33.3423 295.959 33.804 297.782 33.804ZM314.584 47.2273L320.869 9.72727H324.917L324.207 14.0597H324.704C325.083 13.5862 325.604 12.9825 326.267 12.2486C326.941 11.5028 327.847 10.84 328.983 10.2599C330.132 9.66809 331.593 9.37216 333.369 9.37216C335.665 9.37216 337.589 9.94626 339.14 11.0945C340.69 12.2427 341.785 13.8703 342.424 15.9773C343.064 18.0843 343.147 20.5701 342.673 23.4347C342.2 26.3229 341.294 28.8265 339.956 30.9453C338.619 33.0523 336.985 34.6858 335.056 35.8459C333.126 36.9941 331.025 37.5682 328.753 37.5682C327.001 37.5682 325.645 37.2782 324.687 36.6982C323.728 36.1063 323.029 35.4375 322.591 34.6918C322.153 33.9342 321.816 33.3068 321.579 32.8097H321.224L318.809 47.2273H314.584ZM322.716 23.3636C322.384 25.4233 322.384 27.2403 322.716 28.8146C323.059 30.3771 323.74 31.6023 324.758 32.4901C325.787 33.366 327.143 33.804 328.824 33.804C330.575 33.804 332.108 33.3423 333.422 32.419C334.748 31.4839 335.837 30.2292 336.689 28.6548C337.553 27.0687 338.151 25.3049 338.483 23.3636C338.79 21.446 338.779 19.7178 338.447 18.179C338.116 16.6283 337.441 15.4032 336.423 14.5036C335.405 13.5921 334.008 13.1364 332.233 13.1364C330.528 13.1364 329.019 13.5684 327.705 14.4325C326.403 15.2848 325.326 16.4804 324.473 18.0192C323.633 19.5462 323.047 21.3277 322.716 23.3636ZM357.033 0.636363L350.996 37H346.806L352.843 0.636363H357.033ZM370.035 37.5682C367.419 37.5682 365.258 36.9882 363.554 35.8281C361.849 34.6562 360.66 33.0227 359.985 30.9276C359.31 28.8205 359.204 26.3703 359.665 23.5767C360.127 20.7831 361.044 18.321 362.417 16.1903C363.79 14.0478 365.501 12.3788 367.549 11.1832C369.597 9.97585 371.846 9.37216 374.296 9.37216C375.716 9.37216 377.084 9.6089 378.397 10.0824C379.711 10.5559 380.848 11.3253 381.807 12.3906C382.765 13.4441 383.434 14.8409 383.813 16.581C384.192 18.321 384.168 20.4635 383.742 23.0085L383.458 24.7841H362.435L363.003 21.1619H379.765C380.037 19.6231 379.966 18.25 379.552 17.0426C379.149 15.8352 378.445 14.8823 377.439 14.1839C376.444 13.4856 375.184 13.1364 373.657 13.1364C372.082 13.1364 370.615 13.5625 369.253 14.4148C367.892 15.2552 366.756 16.3205 365.844 17.6108C364.933 18.8892 364.365 20.1913 364.14 21.517L363.642 24.642C363.287 26.9029 363.341 28.7022 363.802 30.0398C364.276 31.3774 365.098 32.3421 366.27 32.9339C367.442 33.514 368.91 33.804 370.674 33.804C371.798 33.804 372.834 33.6501 373.781 33.3423C374.728 33.0227 375.574 32.5492 376.32 31.9219C377.066 31.2827 377.693 30.4896 378.202 29.5426L382.037 30.679C381.386 32.0521 380.469 33.2595 379.285 34.3011C378.113 35.331 376.74 36.1359 375.166 36.7159C373.603 37.2841 371.893 37.5682 370.035 37.5682ZM408.822 20.5938L406.123 37H401.933L407.97 0.636363H412.16L409.958 13.9886H410.313C411.166 12.5682 412.302 11.4437 413.722 10.6151C415.155 9.78646 416.954 9.37216 419.12 9.37216C420.967 9.37216 422.523 9.74503 423.79 10.4908C425.068 11.2247 425.968 12.3551 426.489 13.8821C427.021 15.3973 427.098 17.3267 426.72 19.6705L423.808 37H419.617L422.458 19.9545C422.813 17.7884 422.523 16.1134 421.588 14.9297C420.665 13.7341 419.227 13.1364 417.274 13.1364C415.9 13.1364 414.622 13.4264 413.438 14.0064C412.266 14.5864 411.272 15.4328 410.455 16.5455C409.65 17.6581 409.106 19.0076 408.822 20.5938ZM439.428 37.6392C437.7 37.6392 436.185 37.3137 434.883 36.6626C433.581 35.9998 432.616 35.0469 431.989 33.804C431.361 32.5492 431.19 31.0341 431.474 29.2585C431.746 27.696 432.273 26.4295 433.054 25.4588C433.835 24.4763 434.782 23.7069 435.895 23.1506C437.019 22.5824 438.227 22.1622 439.517 21.8899C440.819 21.6058 442.115 21.3868 443.405 21.233C445.086 21.0199 446.454 20.8542 447.507 20.7358C448.561 20.6174 449.354 20.4221 449.886 20.1499C450.419 19.8776 450.744 19.41 450.863 18.7472V18.6051C451.147 16.8651 450.916 15.5097 450.17 14.5391C449.425 13.5566 448.093 13.0653 446.175 13.0653C444.187 13.0653 442.524 13.5033 441.186 14.3793C439.848 15.2552 438.86 16.1903 438.221 17.1847L434.528 15.7642C435.498 14.107 436.658 12.8168 438.008 11.8935C439.357 10.9583 440.772 10.3073 442.251 9.94034C443.731 9.56155 445.157 9.37216 446.53 9.37216C447.406 9.37216 448.395 9.47869 449.496 9.69176C450.597 9.89299 451.626 10.3132 452.585 10.9524C453.556 11.5916 454.284 12.5563 454.769 13.8466C455.266 15.1368 455.337 16.8651 454.982 19.0312L451.999 37H447.809L448.448 33.3068H448.235C447.856 33.8987 447.276 34.532 446.495 35.2067C445.726 35.8814 444.749 36.4555 443.565 36.929C442.393 37.4025 441.014 37.6392 439.428 37.6392ZM440.636 33.875C442.293 33.875 443.743 33.5495 444.986 32.8984C446.24 32.2474 447.247 31.407 448.004 30.3771C448.774 29.3473 449.253 28.2642 449.442 27.1278L450.082 23.2926C449.869 23.5057 449.448 23.701 448.821 23.8786C448.194 24.0443 447.483 24.1922 446.69 24.3224C445.909 24.4408 445.146 24.5473 444.4 24.642C443.666 24.7249 443.074 24.7959 442.624 24.8551C441.512 24.9972 440.452 25.228 439.446 25.5476C438.452 25.8554 437.611 26.3229 436.925 26.9503C436.25 27.5658 435.83 28.4062 435.664 29.4716C435.415 30.9276 435.765 32.0284 436.712 32.7741C437.659 33.508 438.967 33.875 440.636 33.875ZM457.943 47.2273L464.228 9.72727H468.277L467.566 14.0597H468.064C468.442 13.5862 468.963 12.9825 469.626 12.2486C470.301 11.5028 471.206 10.84 472.343 10.2599C473.491 9.66809 474.953 9.37216 476.728 9.37216C479.025 9.37216 480.948 9.94626 482.499 11.0945C484.05 12.2427 485.145 13.8703 485.784 15.9773C486.423 18.0843 486.506 20.5701 486.032 23.4347C485.559 26.3229 484.653 28.8265 483.316 30.9453C481.978 33.0523 480.345 34.6858 478.415 35.8459C476.486 36.9941 474.385 37.5682 472.112 37.5682C470.36 37.5682 469.005 37.2782 468.046 36.6982C467.087 36.1063 466.389 35.4375 465.951 34.6918C465.513 33.9342 465.175 33.3068 464.939 32.8097H464.584L462.169 47.2273H457.943ZM466.075 23.3636C465.744 25.4233 465.744 27.2403 466.075 28.8146C466.418 30.3771 467.099 31.6023 468.117 32.4901C469.147 33.366 470.502 33.804 472.183 33.804C473.935 33.804 475.468 33.3423 476.782 32.419C478.107 31.4839 479.196 30.2292 480.049 28.6548C480.913 27.0687 481.511 25.3049 481.842 23.3636C482.15 21.446 482.138 19.7178 481.807 18.179C481.475 16.6283 480.8 15.4032 479.782 14.5036C478.764 13.5921 477.368 13.1364 475.592 13.1364C473.888 13.1364 472.378 13.5684 471.064 14.4325C469.762 15.2848 468.685 16.4804 467.833 18.0192C466.992 19.5462 466.406 21.3277 466.075 23.3636ZM488.46 47.2273L494.746 9.72727H498.794L498.084 14.0597H498.581C498.96 13.5862 499.481 12.9825 500.144 12.2486C500.818 11.5028 501.724 10.84 502.86 10.2599C504.009 9.66809 505.47 9.37216 507.246 9.37216C509.542 9.37216 511.466 9.94626 513.017 11.0945C514.567 12.2427 515.662 13.8703 516.301 15.9773C516.941 18.0843 517.023 20.5701 516.55 23.4347C516.076 26.3229 515.171 28.8265 513.833 30.9453C512.496 33.0523 510.862 34.6858 508.933 35.8459C507.003 36.9941 504.902 37.5682 502.63 37.5682C500.878 37.5682 499.522 37.2782 498.563 36.6982C497.605 36.1063 496.906 35.4375 496.468 34.6918C496.03 33.9342 495.693 33.3068 495.456 32.8097H495.101L492.686 47.2273H488.46ZM496.593 23.3636C496.261 25.4233 496.261 27.2403 496.593 28.8146C496.936 30.3771 497.617 31.6023 498.634 32.4901C499.664 33.366 501.02 33.804 502.701 33.804C504.452 33.804 505.985 33.3423 507.299 32.419C508.625 31.4839 509.714 30.2292 510.566 28.6548C511.43 27.0687 512.028 25.3049 512.36 23.3636C512.667 21.446 512.656 19.7178 512.324 18.179C511.993 16.6283 511.318 15.4032 510.3 14.5036C509.282 13.5921 507.885 13.1364 506.11 13.1364C504.405 13.1364 502.896 13.5684 501.582 14.4325C500.28 15.2848 499.203 16.4804 498.35 18.0192C497.51 19.5462 496.924 21.3277 496.593 23.3636ZM520.736 47.2273C520.026 47.2273 519.398 47.1681 518.854 47.0497C518.321 46.9432 517.954 46.8366 517.753 46.7301L519.457 43.0369C520.428 43.2973 521.292 43.3743 522.05 43.2678C522.819 43.1731 523.547 42.8002 524.234 42.1491C524.932 41.5099 525.66 40.5038 526.418 39.1307L527.59 37L522.121 9.72727H526.489L530.395 31.5312H530.679L541.83 9.72727H546.553L529.827 40.9418C529.046 42.3977 528.187 43.5874 527.252 44.5107C526.317 45.4339 525.305 46.1146 524.216 46.5526C523.127 47.0024 521.967 47.2273 520.736 47.2273Z" fill="#1B1B1B"/>
</svg>
